<?xml version="1.0" encoding="UTF-8" standalone="no"?>
<!-- Generator: Adobe Illustrator 16.1.0, SVG Export Plug-In . SVG Version: 6.00 Build 0)  -->

<svg
   version="1.1"
   id="Layer_1"
   x="0px"
   y="0px"
   width="48px"
   height="48px"
   viewBox="0 0 48 48"
   enable-background="new 0 0 48 48"
   xml:space="preserve"
   inkscape:version="1.2.2 (b0a8486541, 2022-12-01)"
   sodipodi:docname="JSONFile.svg"
   inkscape:export-filename="JSONFile.png"
   inkscape:export-xdpi="1024"
   inkscape:export-ydpi="1024"
   xmlns:inkscape="http://www.inkscape.org/namespaces/inkscape"
   xmlns:sodipodi="http://sodipodi.sourceforge.net/DTD/sodipodi-0.dtd"
   xmlns="http://www.w3.org/2000/svg"
   xmlns:svg="http://www.w3.org/2000/svg"
   xmlns:rdf="http://www.w3.org/1999/02/22-rdf-syntax-ns#"
   xmlns:cc="http://creativecommons.org/ns#"
   xmlns:dc="http://purl.org/dc/elements/1.1/"><metadata
     id="metadata4304"><rdf:RDF><cc:Work
         rdf:about=""><dc:format>image/svg+xml</dc:format><dc:type
           rdf:resource="http://purl.org/dc/dcmitype/StillImage" /><dc:title /></cc:Work></rdf:RDF></metadata><defs
     id="defs4302" /><sodipodi:namedview
     pagecolor="#ffffff"
     bordercolor="#666666"
     borderopacity="1"
     objecttolerance="10"
     gridtolerance="10"
     guidetolerance="10"
     inkscape:pageopacity="0"
     inkscape:pageshadow="2"
     inkscape:window-width="1920"
     inkscape:window-height="1141"
     id="namedview4300"
     showgrid="true"
     inkscape:zoom="18.162764"
     inkscape:cx="13.654309"
     inkscape:cy="24.665849"
     inkscape:window-x="0"
     inkscape:window-y="0"
     inkscape:window-maximized="1"
     inkscape:current-layer="text1009"
     inkscape:showpageshadow="2"
     inkscape:pagecheckerboard="0"
     inkscape:deskcolor="#d1d1d1"><inkscape:grid
       type="xygrid"
       id="grid4306"
       empspacing="4" /></sodipodi:namedview><path
     fill="#FFFFFF"
     d="M25,8H13v32h22V17c0-4.123-8-1-8-1C28,12,27,8,25,8z"
     id="path4296" /><path
     fill="#333333"
     d="M28,6H13h-2v2v32v2h2h22h2v-2V16v-2L28,6z M35,40H13V8h12c2,0,3,4,2,8c0,0,8-3.123,8,1V40z"
     id="path4298" /><rect
     style="opacity:1;fill:#333333;fill-opacity:1;fill-rule:nonzero;stroke:none;stroke-width:3;stroke-linecap:square;stroke-linejoin:miter;stroke-miterlimit:4;stroke-dasharray:none;stroke-dashoffset:0;stroke-opacity:1"
     id="rect4308"
     width="5"
     height="2.0448074"
     x="14.072981"
     y="16.955193" /><rect
     y="16.955193"
     x="21.01025"
     height="2.0448074"
     width="5"
     id="rect4312"
     style="opacity:1;fill:#333333;fill-opacity:1;fill-rule:nonzero;stroke:none;stroke-width:3;stroke-linecap:square;stroke-linejoin:miter;stroke-miterlimit:4;stroke-dasharray:none;stroke-dashoffset:0;stroke-opacity:1" /><rect
     style="opacity:1;fill:#333333;fill-opacity:1;fill-rule:nonzero;stroke:none;stroke-width:3;stroke-linecap:square;stroke-linejoin:miter;stroke-miterlimit:4;stroke-dasharray:none;stroke-dashoffset:0;stroke-opacity:1"
     id="rect4314"
     width="5"
     height="2.0448074"
     x="28.002579"
     y="16.955193" /><rect
     y="12.991038"
     x="14.072981"
     height="2.0448074"
     width="5"
     id="rect4327"
     style="opacity:1;fill:#333333;fill-opacity:1;fill-rule:nonzero;stroke:none;stroke-width:3;stroke-linecap:square;stroke-linejoin:miter;stroke-miterlimit:4;stroke-dasharray:none;stroke-dashoffset:0;stroke-opacity:1" /><rect
     style="opacity:1;fill:#333333;fill-opacity:1;fill-rule:nonzero;stroke:none;stroke-width:3;stroke-linecap:square;stroke-linejoin:miter;stroke-miterlimit:4;stroke-dasharray:none;stroke-dashoffset:0;stroke-opacity:1"
     id="rect4329"
     width="5"
     height="2.0448074"
     x="21.01025"
     y="12.991038" /><rect
     y="24.938559"
     x="14.072981"
     height="2.0448074"
     width="5"
     id="rect4333"
     style="opacity:1;fill:#333333;fill-opacity:1;fill-rule:nonzero;stroke:none;stroke-width:3;stroke-linecap:square;stroke-linejoin:miter;stroke-miterlimit:4;stroke-dasharray:none;stroke-dashoffset:0;stroke-opacity:1" /><rect
     style="opacity:1;fill:#333333;fill-opacity:1;fill-rule:nonzero;stroke:none;stroke-width:3;stroke-linecap:square;stroke-linejoin:miter;stroke-miterlimit:4;stroke-dasharray:none;stroke-dashoffset:0;stroke-opacity:1"
     id="rect4335"
     width="5"
     height="2.0448074"
     x="21.01025"
     y="24.938559" /><rect
     y="24.938559"
     x="28.002579"
     height="2.0448074"
     width="5"
     id="rect4337"
     style="opacity:1;fill:#333333;fill-opacity:1;fill-rule:nonzero;stroke:none;stroke-width:3;stroke-linecap:square;stroke-linejoin:miter;stroke-miterlimit:4;stroke-dasharray:none;stroke-dashoffset:0;stroke-opacity:1" /><rect
     style="opacity:1;fill:#333333;fill-opacity:1;fill-rule:nonzero;stroke:none;stroke-width:3;stroke-linecap:square;stroke-linejoin:miter;stroke-miterlimit:4;stroke-dasharray:none;stroke-dashoffset:0;stroke-opacity:1"
     id="rect4339"
     width="5"
     height="2.0448074"
     x="14.072981"
     y="20.974405" /><rect
     y="20.974405"
     x="21.01025"
     height="2.0448074"
     width="5"
     id="rect4341"
     style="opacity:1;fill:#333333;fill-opacity:1;fill-rule:nonzero;stroke:none;stroke-width:3;stroke-linecap:square;stroke-linejoin:miter;stroke-miterlimit:4;stroke-dasharray:none;stroke-dashoffset:0;stroke-opacity:1" /><rect
     style="opacity:1;fill:#333333;fill-opacity:1;fill-rule:nonzero;stroke:none;stroke-width:3;stroke-linecap:square;stroke-linejoin:miter;stroke-miterlimit:4;stroke-dasharray:none;stroke-dashoffset:0;stroke-opacity:1"
     id="rect4343"
     width="5"
     height="2.0448074"
     x="28.002579"
     y="20.974405" /><g
     transform="scale(0.98335939,1.0169222)"
     style="font-style:normal;font-variant:normal;font-weight:bold;font-stretch:normal;font-size:9.23964787px;line-height:125%;font-family:sans-serif;-inkscape-font-specification:'sans-serif Bold';letter-spacing:0px;word-spacing:0px;fill:#000000;fill-opacity:1;stroke:none;stroke-width:0.1;stroke-linecap:butt;stroke-linejoin:miter;stroke-miterlimit:4;stroke-dasharray:none;stroke-opacity:1"
     id="text4345"><g
       aria-label="JSON"
       transform="scale(0.94638066,1.0566573)"
       id="text1009"
       style="font-size:13.6493px;line-height:1.25;font-family:'Exo 2';-inkscape-font-specification:'Exo 2, ';stroke-width:0.0930633"><path
         d="m 17.65882,28.528786 h 1.425028 v 4.885807 q 0,1.027571 -0.57195,1.647991 -0.57195,0.62042 -1.473497,0.62042 -0.969407,0 -1.507427,-0.576797 -0.538021,-0.576796 -0.538021,-1.604367 h 1.429875 q 0,0.998488 0.615573,0.998488 0.620419,0 0.620419,-1.153593 z"
         style="font-stretch:condensed;font-size:9.92672px;font-family:'Roboto Condensed';-inkscape-font-specification:'Roboto Condensed, Bold Condensed'"
         id="path1088" /><path
         d="m 23.184436,33.734498 q 0,-0.431386 -0.222963,-0.649503 -0.218117,-0.222963 -0.799761,-0.460468 -1.061499,-0.402303 -1.526814,-0.940324 -0.465315,-0.542867 -0.465315,-1.279616 0,-0.891854 0.630114,-1.429874 0.634961,-0.542867 1.609214,-0.542867 0.649502,0 1.15844,0.27628 0.508939,0.271434 0.780372,0.770678 0.276281,0.499244 0.276281,1.134205 h -1.42018 q 0,-0.494397 -0.213269,-0.751289 -0.208423,-0.26174 -0.605879,-0.26174 -0.373221,0 -0.581644,0.222963 -0.208422,0.218117 -0.208422,0.591338 0,0.290822 0.232657,0.528327 0.232658,0.232657 0.823996,0.484703 1.032417,0.373221 1.497732,0.916089 0.470162,0.542867 0.470162,1.381403 0,0.920936 -0.586491,1.439569 -0.58649,0.518632 -1.594673,0.518632 -0.683431,0 -1.245687,-0.281128 Q 20.630051,35.120748 20.310147,34.597269 19.99509,34.07379 19.99509,33.361276 h 1.429874 q 0,0.610726 0.237504,0.887007 0.237505,0.276281 0.775525,0.276281 0.746443,0 0.746443,-0.790066 z"
         style="font-stretch:condensed;font-size:9.92672px;font-family:'Roboto Condensed';-inkscape-font-specification:'Roboto Condensed, Bold Condensed'"
         id="path1085" /><path
         d="m 30.532535,32.692386 q 0,1.42018 -0.673737,2.205399 -0.66889,0.785219 -1.86126,0.785219 -1.187523,0 -1.866107,-0.775525 -0.678584,-0.780372 -0.688278,-2.181164 v -1.206911 q 0,-1.454109 0.673737,-2.26841 0.673737,-0.819148 1.870954,-0.819148 1.177828,0 1.856413,0.804607 0.678584,0.79976 0.688278,2.249022 z M 29.102661,31.50971 q 0,-0.954865 -0.271434,-1.42018 -0.271433,-0.465315 -0.843383,-0.465315 -0.567103,0 -0.838536,0.450774 -0.271434,0.445927 -0.281128,1.362016 v 1.255381 q 0,0.925783 0.276281,1.366863 0.27628,0.436232 0.853077,0.436232 0.557409,0 0.828842,-0.426538 0.271434,-0.431386 0.276281,-1.332934 z"
         style="font-stretch:condensed;font-size:9.92672px;font-family:'Roboto Condensed';-inkscape-font-specification:'Roboto Condensed, Bold Condensed'"
         id="path1082" /><path
         d="m 36.489537,35.586063 h -1.425028 l -2.084223,-4.628914 v 4.628914 h -1.425027 v -7.057277 h 1.425027 l 2.08907,4.633762 v -4.633762 h 1.420181 z"
         style="font-stretch:condensed;font-size:9.92672px;font-family:'Roboto Condensed';-inkscape-font-specification:'Roboto Condensed, Bold Condensed'"
         id="path1079" /></g></g></svg>
