<?xml version="1.0" encoding="UTF-8" standalone="no"?>
<!-- Generator: Adobe Illustrator 16.1.0, SVG Export Plug-In . SVG Version: 6.00 Build 0)  -->

<svg
   version="1.1"
   id="Layer_1"
   x="0px"
   y="0px"
   width="48px"
   height="48px"
   viewBox="0 0 48 48"
   enable-background="new 0 0 48 48"
   xml:space="preserve"
   sodipodi:docname="Sketch.svg"
   inkscape:version="1.2.2 (b0a8486541, 2022-12-01)"
   inkscape:export-filename="WebCam.png"
   inkscape:export-xdpi="1024"
   inkscape:export-ydpi="1024"
   xmlns:inkscape="http://www.inkscape.org/namespaces/inkscape"
   xmlns:sodipodi="http://sodipodi.sourceforge.net/DTD/sodipodi-0.dtd"
   xmlns="http://www.w3.org/2000/svg"
   xmlns:svg="http://www.w3.org/2000/svg"><defs
   id="defs9"><inkscape:path-effect
     effect="spiro"
     id="path-effect2987"
     is_visible="true"
     lpeversion="1" /></defs><sodipodi:namedview
   id="namedview7"
   pagecolor="#ffffff"
   bordercolor="#666666"
   borderopacity="1.0"
   inkscape:showpageshadow="2"
   inkscape:pageopacity="0.0"
   inkscape:pagecheckerboard="0"
   inkscape:deskcolor="#d1d1d1"
   showgrid="false"
   inkscape:zoom="9.8333333"
   inkscape:cx="14.949153"
   inkscape:cy="23.694915"
   inkscape:window-width="1920"
   inkscape:window-height="1141"
   inkscape:window-x="0"
   inkscape:window-y="0"
   inkscape:window-maximized="1"
   inkscape:current-layer="Layer_1" />


<path
   style="fill:none;stroke:#000000;stroke-width:4;stroke-linecap:butt;stroke-linejoin:miter;stroke-opacity:1;stroke-dasharray:none"
   d="M 6.3752969,13.510758 C 8.9283429,11.32202 11.850059,9.5643853 14.979892,8.3344399 18.380864,6.9979436 22.077683,6.2843389 25.7092,6.690445 c 1.945376,0.2175479 3.839251,0.7496849 5.741983,1.2094933 1.351846,0.326683 2.733931,0.6257185 3.949442,1.3015453 0.607755,0.3379135 1.168546,0.7701658 1.608925,1.3083284 0.440378,0.538163 0.757072,1.185605 0.858683,1.87352 0.149058,1.009131 -0.175027,2.050865 -0.746988,2.895509 -0.571961,0.844645 -1.37613,1.509044 -2.235612,2.058457 -3.467717,2.216696 -7.773675,2.632811 -11.889319,2.61618 -3.50415,-0.01416 -7.120179,-0.280546 -10.407029,0.934316 -0.866331,0.320207 -1.704397,0.745921 -2.400382,1.3531 -0.6959844,0.607179 -1.2445536,1.407443 -1.4478778,2.308398 -0.2324308,1.02993 0.0034,2.133583 0.5282161,3.04974 0.5248198,0.916158 1.3213997,1.655592 2.2078077,2.22923 1.94196,1.256736 4.299842,1.741771 6.612485,1.789472 2.312643,0.0477 4.611203,-0.315275 6.90276,-0.630489 3.951319,-0.543521 7.930264,-0.948123 11.918783,-0.940861 0.82213,0.0015 1.659101,0.02294 2.43896,0.28317 0.389929,0.130116 0.762315,0.320331 1.079228,0.582135 0.316913,0.261803 0.577121,0.59698 0.726961,0.979763 0.194836,0.49773 0.195777,1.05866 0.06211,1.576182 -0.133666,0.517522 -0.395903,0.994832 -0.711128,1.42649 -0.834649,1.142939 -2.038078,1.978225 -3.329907,2.556263 -1.291828,0.578039 -2.67722,0.914658 -4.061919,1.207162 -3.235158,0.683397 -6.51273,1.142186 -9.776592,1.671794 -2.167881,0.351769 -4.330665,0.734956 -6.487442,1.1494"
   id="path2985"
   inkscape:path-effect="#path-effect2987"
   inkscape:original-d="M 6.3752969,13.510758 C 9.2447883,11.821193 12.112988,10.060907 14.979892,8.3344399 17.846796,6.6079725 22.134058,7.2394714 25.7092,6.690445 c 3.575142,-0.5490262 3.829281,0.8073569 5.741983,1.2094933 1.912698,0.4021363 4.279328,2.9899577 6.41705,4.4833937 2.137723,1.493438 -1.987106,3.303672 -2.9826,4.953966 -0.995494,1.650292 -7.92492,1.745147 -11.889319,2.61618 -3.964401,0.871031 -6.936726,0.623905 -10.407029,0.934316 -3.4703027,0.310409 -2.564211,2.442026 -3.8482598,3.661498 -1.2840472,1.219472 1.8253098,3.520341 2.7360238,5.27897 0.910714,1.758629 9.011458,0.773685 13.515245,1.158983 4.50379,0.385301 7.94715,-0.626212 11.918783,-0.940861 3.971632,-0.314649 2.831392,1.231071 4.245149,1.845068 1.413757,0.613994 -0.431385,2.00281 -0.649018,3.002672 -0.217634,0.999866 -4.926591,2.509977 -7.391826,3.763425 -2.465234,1.253446 -6.516433,1.115557 -9.776592,1.671794 -3.260157,0.556238 -4.323668,0.767296 -6.487442,1.1494" /></svg>
