<?xml version="1.0" encoding="UTF-8" standalone="no"?>
<svg
   xmlns:dc="http://purl.org/dc/elements/1.1/"
   xmlns:cc="http://creativecommons.org/ns#"
   xmlns:rdf="http://www.w3.org/1999/02/22-rdf-syntax-ns#"
   xmlns:svg="http://www.w3.org/2000/svg"
   xmlns="http://www.w3.org/2000/svg"
   xmlns:sodipodi="http://sodipodi.sourceforge.net/DTD/sodipodi-0.dtd"
   xmlns:inkscape="http://www.inkscape.org/namespaces/inkscape"
   width="399.99435mm"
   height="82.803329mm"
   viewBox="0 0 399.99435 82.803329"
   version="1.1"
   id="svg32"
   inkscape:version="1.0.2 (e86c870879, 2021-01-15, custom)"
   sodipodi:docname="Movie audience (1924).svg">
  <defs
     id="defs26" />
  <sodipodi:namedview
     id="base"
     pagecolor="#ffffff"
     bordercolor="#666666"
     borderopacity="1.0"
     inkscape:pageopacity="0.0"
     inkscape:pageshadow="2"
     inkscape:zoom="0.98994949"
     inkscape:cx="747.3756"
     inkscape:cy="290.56528"
     inkscape:document-units="mm"
     inkscape:current-layer="layer1"
     inkscape:document-rotation="0"
     showgrid="false"
     inkscape:window-width="1920"
     inkscape:window-height="1057"
     inkscape:window-x="-8"
     inkscape:window-y="-8"
     inkscape:window-maximized="1" />
  <metadata
     id="metadata29">
    <rdf:RDF>
      <cc:Work
         rdf:about="">
        <dc:format>image/svg+xml</dc:format>
        <dc:type
           rdf:resource="http://purl.org/dc/dcmitype/StillImage" />
        <dc:title></dc:title>
      </cc:Work>
    </rdf:RDF>
  </metadata>
  <g
     inkscape:label="Layer 1"
     inkscape:groupmode="layer"
     id="layer1"
     transform="translate(91.244434,-63.185773)">
    <path
       style="fill:#000000;stroke-width:0.264583"
       d="m -23.493356,145.46761 c -0.330119,-0.33462 -46.982146,-0.74745 -60.424428,-0.53471 l -7.048472,0.11154 -0.174187,-1.47518 c -0.0958,-0.81136 -0.132052,-1.51676 -0.08056,-1.56757 0.0515,-0.0508 2.770646,-0.13879 6.042553,-0.19552 13.971007,-0.24225 18.518655,-0.37157 18.518433,-0.52663 -1.81e-4,-0.0906 -0.444696,-0.37545 -0.987929,-0.63292 l -0.987694,-0.46814 0.991393,0.12078 c 1.099985,0.13402 1.238209,-0.0692 0.5047,-0.74213 -0.269221,-0.24698 -0.701654,-0.92816 -0.960962,-1.51374 -0.292763,-0.66113 -0.604109,-1.01481 -0.821408,-0.93311 -0.2134,0.0803 -0.41427,-0.1323 -0.514818,-0.54471 -0.246827,-1.01239 0.656932,-2.0799 1.75456,-2.07248 0.784691,0.005 0.899414,0.11756 1.345109,1.31607 0.511979,1.37676 1.153765,2.23049 1.454049,1.93424 0.09789,-0.0965 -0.02169,-0.70922 -0.265728,-1.36143 -0.540475,-1.44446 -0.236215,-2.27022 0.833813,-2.26298 0.713405,0.005 1.238997,0.49174 1.671616,1.54861 0.356998,0.87214 0.660188,0.55409 1.319957,-1.38464 0.317954,-0.93431 0.810634,-1.99028 1.094848,-2.34662 0.641992,-0.80489 0.661068,-1.2249 0.05583,-1.229 -0.606027,-0.004 -2.169287,-1.7363 -2.164806,-2.39874 0.0019,-0.28279 0.302448,-0.70718 0.667854,-0.94308 0.47992,-0.30984 0.665967,-0.66434 0.670111,-1.27689 0.0075,-1.11055 1.540148,-2.91706 2.657803,-3.13274 0.442256,-0.0853 0.805229,-0.32216 0.80661,-0.52625 0.0014,-0.2041 0.193176,-0.52716 0.426214,-0.71792 0.356644,-0.29193 0.597192,-0.25522 1.519821,0.23194 1.236355,0.65282 4.232083,1.41875 4.61297,1.17942 0.137616,-0.0865 0.341777,-0.57332 0.453692,-1.08191 0.345424,-1.56973 2.563669,-4.21608 3.528561,-4.20955 0.531359,0.004 0.399085,0.51722 -0.481331,1.86901 -0.448339,0.68839 -0.890045,1.6941 -0.981566,2.23492 l -0.166402,0.98331 1.563123,-0.19963 c 0.85972,-0.1098 3.001775,-0.16471 4.760122,-0.12201 3.610169,0.0876 3.566408,0.10842 4.065507,-1.92817 0.178022,-0.72641 0.395009,-1.55256 0.482198,-1.83588 0.152648,-0.49605 0.132964,-0.49863 -0.531364,-0.0697 -0.881477,0.56908 -1.122703,0.55819 -1.751333,-0.079 -0.485403,-0.49202 -0.49087,-0.58616 -0.09935,-1.71025 0.671554,-1.92809 0.446401,-2.23507 -0.871115,-1.18772 -0.614014,0.48809 -1.412345,1.09225 -1.77407,1.34256 -0.361726,0.2503 -0.962633,1.10945 -1.335347,1.90924 -0.498166,1.06897 -0.820359,1.45316 -1.21641,1.45048 -0.715322,-0.005 -0.911199,-0.89003 -0.582407,-2.63196 0.208854,-1.1065 0.187745,-1.40901 -0.106357,-1.52415 -0.201811,-0.079 -0.514962,-0.0373 -0.695893,0.0928 -0.180933,0.13006 -1.028894,0.45933 -1.88436,0.73172 -1.516424,0.48284 -1.564343,0.48283 -1.912577,-2.3e-4 -0.457306,-0.63437 -0.282117,-1.32534 1.026924,-4.05029 1.255124,-2.61271 1.852472,-3.02937 3.188301,-2.22389 1.043313,0.6291 4.385785,1.56997 4.650295,1.309 0.102243,-0.10086 -0.05033,-0.31738 -0.339063,-0.48113 -0.288729,-0.16376 -0.820242,-0.64987 -1.181141,-1.08024 -0.360899,-0.43037 -0.934195,-1.09662 -1.273992,-1.48056 -1.130008,-1.2768 -1.623472,-2.6135 -1.71189,-4.63719 -0.07615,-1.74292 -0.1636,-2.01134 -0.897747,-2.75548 -0.447359,-0.45346 -0.813753,-1.04199 -0.814206,-1.30786 -6.02e-4,-0.26586 0.506602,-0.913902 1.126795,-1.440078 l 1.127624,-0.956708 -0.304695,-1.551336 c -0.47007,-2.393335 0.402398,-4.89407 1.948914,-5.586115 1.093065,-0.489137 0.77728,-0.839621 -0.765904,-0.85006 -1.593017,-0.01078 -2.006089,-0.331838 -1.348783,-1.048348 0.60832,-0.66312 4.014193,-0.724213 5.237637,-0.09396 1.283088,0.660985 1.783873,1.191024 1.779191,1.883138 -0.0051,0.748403 -0.696475,0.819348 -1.886737,0.193602 -0.725441,-0.381386 -0.856529,-0.381692 -1.442573,-0.0038 -0.903317,0.583173 -1.95109,2.229273 -2.019167,3.172204 -0.0315,0.436357 0.0306,1.312287 0.138014,1.946519 0.235624,1.391255 -0.379015,2.968077 -1.357843,3.483437 -0.794421,0.418275 -0.797757,0.641985 -0.02348,1.574875 0.450676,0.54301 0.663095,1.22354 0.787279,2.52224 0.09354,0.97821 0.399975,2.23685 0.680972,2.79697 0.566212,1.12868 0.836628,1.22755 4.256194,1.55618 l 1.940103,0.18646 -0.0054,0.79373 c -0.006,0.88875 -0.14444,0.91506 -2.715533,0.51621 -1.846109,-0.28638 -1.818361,0.13291 0.08086,1.22176 0.809876,0.46432 1.528196,0.99234 1.59627,1.17338 0.09002,0.23944 0.750636,0.30296 2.422908,0.23298 4.536393,-0.18982 5.047276,-0.28959 5.463288,-1.06689 0.913309,-1.70647 3.608533,-3.84463 6.002959,-4.76223 3.60884,-1.38298 8.786541,-4.41583 9.729532,-5.69909 0.850465,-1.157343 1.708392,-3.157099 1.887147,-4.398778 0.209892,-1.457933 -0.682435,-3.567098 -2.228408,-5.267214 -1.677704,-1.844981 -1.343816,-2.468047 0.74564,-1.391408 1.506261,0.776127 2.763813,2.458052 3.214075,4.298699 0.503724,2.059195 -0.14749,4.780202 -1.699027,7.099131 -1.721342,2.57273 -4.355742,4.35987 -8.343631,5.6602 -0.583384,0.19022 -1.240195,0.47898 -1.459583,0.64168 -0.518217,0.38432 -2.838564,1.42489 -3.172284,1.42264 -0.14186,-9.6e-4 -1.131076,0.83099 -2.198253,1.8488 -2.736522,2.6099 -3.115701,2.80029 -5.978738,3.00196 -1.344344,0.0947 -2.555573,0.30504 -2.691622,0.46744 -0.39584,0.47251 -1.183642,2.54603 -1.027473,2.70432 0.07831,0.0794 0.911237,-0.31232 1.850945,-0.87046 1.594899,-0.94727 4.827126,-2.12818 5.091501,-1.86021 0.688866,0.69825 -0.696144,13.2439 -1.590638,14.40827 -0.124869,0.16254 -0.946217,0.37197 -1.82522,0.46539 -1.737564,0.18469 -1.725951,0.17176 -1.942973,2.16448 l -0.148541,1.3639 1.5984,0.19647 c 1.94194,0.23872 2.059606,0.14244 2.892826,-2.36671 1.743864,-5.25145 6.0285,-11.77648 8.57028,-13.05161 0.973364,-0.48831 1.565379,-0.31977 1.560211,0.44416 -0.0023,0.33761 -1.10287,1.80092 -2.757021,3.66566 -2.375215,2.67761 -5.383892,9.24096 -6.22509,13.57987 -0.267677,1.38067 -0.652476,3.09636 -0.855113,3.81264 -0.202638,0.71628 -0.370912,1.66913 -0.373944,2.11745 l -0.0055,0.81513 7.937073,0.0899 c 4.547663,0.0515 7.937761,-0.0117 7.938683,-0.14801 8.85e-4,-0.13082 -0.112812,-0.23865 -0.25266,-0.23959 -0.452716,-0.003 -1.353859,-1.16234 -2.170987,-2.79287 -0.718959,-1.43464 -0.808938,-1.89806 -0.90544,-4.66328 -0.103078,-2.95367 -0.08446,-3.086 0.489893,-3.48254 0.798142,-0.55103 1.288584,-0.31 1.431665,0.70358 0.873769,6.18982 0.923617,6.339 2.577121,7.71272 0.664228,0.55185 1.34908,1.40278 1.521891,1.89098 0.26343,0.74422 0.481397,0.91705 1.349044,1.06968 1.518949,0.2672 1.872689,-0.25823 0.539924,-0.80198 -1.071292,-0.43707 -3.39543,-2.9678 -4.345916,-4.73221 -0.904283,-1.67865 -0.447886,-3.39162 1.649513,-6.19104 0.844733,-1.12748 1.792692,-2.58402 2.106572,-3.23675 0.313881,-0.65273 1.07545,-1.71536 1.692379,-2.36138 0.616929,-0.64602 1.3930489,-1.59329 1.7247152,-2.10504 1.3588502,-2.09669 3.0415292,-2.88469 3.9609037,-1.85488 0.614449,0.68826 0.8706356,0.69522 1.431626,0.0389 0.24354,-0.28495 1.4477726,-0.87661 2.6760767,-1.3148 1.22830139,-0.43818 2.5069625,-1.08804 2.8414706,-1.44411 1.3088416,-1.39325 1.6759038,-0.57146 0.7829949,1.75297 -0.3605845,0.93868 -0.7426625,2.26157 -0.8490589,2.93978 -0.2056226,1.31066 -0.72884364,1.76646 -1.389578,1.2105 -0.29130851,-0.24511 -0.34392196,-0.64215 -0.21116076,-1.59353 0.09724898,-0.6969 0.07142124,-1.2678 -0.05739347,-1.26867 -0.75803774,-0.005 -1.87412187,0.62439 -2.00053877,1.12839 -0.2292472,0.91395 0.021285,3.9194 0.4464677,5.356 0.4929378,1.66551 0.4906877,2.23987 -0.00875,2.23649 -0.2182762,-0.001 -0.3976714,0.11638 -0.3986557,0.2619 -9.844e-4,0.14552 0.2582845,0.26633 0.576153,0.26848 1.28735364,0.009 3.6350127,0.88922 4.0389047,1.51483 0.4000375,0.61963 1.288386,0.82729 1.8798746,0.43943 0.251858,-0.16515 0.547897,-1.44662 1.0647075,-4.60882 0.1529477,-0.93588 -0.4564361,-1.53471 -1.5693991,-1.54224 -0.4827979,-0.003 -1.147026,-0.22697 -1.476065,-0.49712 -0.5827891,-0.47847 -0.5895943,-0.54263 -0.2633119,-2.48172 0.1842177,-1.09481 0.6257181,-2.80743 0.9811106,-3.80582 0.5098338,-1.43225 0.7707188,-1.83354 1.2364593,-1.90194 0.324659,-0.0477 0.8512804,-0.25518 1.1702707,-0.46112 0.3189902,-0.20594 0.7508525,-0.30754 0.9596928,-0.22577 0.2095846,0.082 0.6598702,-0.14553 1.0049995,-0.50797 0.5747891,-0.60359 0.6057155,-0.76961 0.3829556,-2.05577 -0.338959,-1.95708 -0.1160838,-5.22758 0.368665,-5.40983 0.7253382,-0.27273 1.6495577,0.68348 2.2286955,2.30584 0.313275,0.87759 0.646208,1.59613 0.739847,1.59677 0.434123,0.003 1.373815,-0.87593 1.260053,-1.1785 -0.167208,-0.4447 0.567584,-2.51934 1.097817,-3.09962 0.377384,-0.413 0.374267,-0.47084 -0.034,-0.63069 -0.247221,-0.0968 -0.585276,-0.0421 -0.751231,0.1217 -0.352145,0.34741 -2.282386,0.37953 -2.79998,0.0466 -0.1953757,-0.12568 -0.3110927,-0.45207 -0.2571519,-0.72532 0.077897,-0.39458 0.4244319,-0.53171 1.6842279,-0.66645 2.522547,-0.2698 3.305058,-0.48779 3.582563,-0.99798 0.354013,-0.65086 0.130117,-1.11988 -0.801324,-1.67862 -0.432575,-0.25949 -1.524697,-1.07233 -2.426935,-1.8063 -1.405235,-1.14316 -1.779713,-1.64584 -2.6118645,-3.506027 C 8.7104189,97.08911 8.271944,95.903547 8.2703144,95.64887 8.2647439,94.778773 7.8061663,95.18069 7.6351698,96.205537 7.427755,97.448652 6.879894,98.008329 6.4201905,97.446737 6.0452619,96.98871 6.0320061,96.716844 6.2486489,93.928446 c 0.1729549,-2.226131 0.7205373,-4.656113 1.4547566,-6.455717 0.6631525,-1.625412 0.9859772,-1.26389 0.8050347,0.901546 -0.2066862,2.473518 0.056368,4.110575 1.0420196,6.484717 1.0904262,2.626526 2.5915762,4.780212 4.2188332,6.052718 0.750866,0.58717 1.744083,1.38524 2.207148,1.77347 0.890937,0.74698 1.523824,0.79323 3.747972,0.27391 1.646332,-0.38439 2.249481,-0.51761 4.190448,-0.9255 3.055157,-0.64201 4.137062,-1.24942 5.62699,-3.159118 1.593569,-2.042527 2.162421,-2.50044 6.485565,-5.220699 5.409553,-3.403865 5.95887,-4.764391 4.980205,-12.334754 -0.223282,-1.72718 -0.326549,-3.218682 -0.229479,-3.314448 0.27256,-0.268893 1.024762,0.314139 1.525782,1.182638 0.248865,0.431403 0.627017,1.731111 0.840334,2.88824 0.928817,5.038308 -0.07706,8.486153 -3.140536,10.764893 -1.125803,0.837414 -1.683071,1.188312 -4.290287,2.701491 -2.296983,1.333123 -7.399372,6.601817 -8.364185,8.636817 -0.637655,1.34494 -0.825128,2.50801 -0.404723,2.51085 0.381544,0.003 0.531077,1.03675 0.354116,2.44907 -0.143483,1.1451 -0.28487,1.39164 -1.054495,1.83874 -0.567048,0.32942 -0.891319,0.72236 -0.89577,1.08547 -0.01963,1.6015 -2.990355,10.30038 -3.795465,11.11386 -0.135918,0.13734 -0.248224,0.41297 -0.249574,0.61254 -0.003,0.44156 0.277405,0.17772 1.437226,-1.35235 1.281158,-1.69014 2.601143,-3.02105 4.423055,-4.45964 1.900138,-1.50037 2.877129,-2.00611 3.86252,-1.99944 1.00132,0.007 0.783954,0.74687 -0.351276,1.19604 -1.718196,0.67983 -5.158095,4.69998 -7.391022,8.63774 -0.833212,1.46938 -1.746534,3.02723 -2.029601,3.46188 -0.654056,1.00432 -1.059281,1.9104 -1.062428,2.37557 -0.0031,0.45621 -1.225467,3.79488 -1.755237,4.79406 -0.217633,0.41047 -0.398194,1.00716 -0.401247,1.32598 -0.003,0.31883 -0.136368,0.65931 -0.296254,0.75663 -0.159885,0.0973 -0.234431,0.48253 -0.165652,0.856 0.06878,0.37347 -0.0017,0.87906 -0.156737,1.12353 -0.154983,0.24448 -0.20343,0.65289 -0.10766,0.9076 0.160315,0.42638 0.514985,0.449 4.471701,0.2852 2.363665,-0.0979 5.82154,-0.15202 7.684167,-0.12037 l 3.386594,0.0575 2.365748,-2.09245 c 2.902919,-2.56758 4.454719,-4.37295 4.082789,-4.74995 -0.146534,-0.14852 -0.934019,-0.34351 -1.749969,-0.43331 -2.441152,-0.26865 -2.816272,-1.44939 -1.095086,-3.44691 1.183139,-1.37309 3.084991,-4.15994 3.087454,-4.52415 0.0011,-0.16424 -0.206278,-0.30824 -0.460867,-0.31998 -1.225074,-0.0565 -2.020588,-0.26413 -2.217052,-0.57854 -0.336393,-0.53836 -0.250976,-2.11835 0.191497,-3.54217 0.221531,-0.71287 0.407399,-1.78754 0.413039,-2.38817 0.0057,-0.60061 0.159887,-1.21121 0.342778,-1.35685 0.567316,-0.45181 2.474268,-0.6247 3.564603,-0.32318 0.944142,0.2611 1.210236,0.20636 2.87814,-0.59206 2.061389,-0.98679 2.731888,-1.20668 5.946193,-1.95 2.871943,-0.66415 4.94193,-0.98383 7.333964,-1.13261 1.197718,-0.0745 2.173836,-0.29321 2.633717,-0.59011 0.41103,-0.26536 1.548573,-0.55196 2.600228,-0.65511 1.028246,-0.10086 2.157764,-0.21362 2.510039,-0.25058 0.519457,-0.0545 0.680858,0.0895 0.854051,0.76223 l 0.213551,0.82944 1.259204,-0.25068 c 0.731122,-0.14555 1.518525,-0.51882 1.877557,-0.89006 0.340096,-0.35167 1.088273,-0.94581 1.662615,-1.32034 1.134354,-0.73969 1.206087,-0.87234 0.731747,-1.35314 -0.177358,-0.17977 -0.376589,-1.47157 -0.456135,-2.95755 -0.07768,-1.45109 -0.220276,-2.71847 -0.31688,-2.81639 -0.250128,-0.25354 -1.659471,0.36556 -2.21788,0.97426 -0.953392,1.03927 -2.225625,1.40424 -4.795071,1.37559 -2.19613,-0.0249 -2.503351,-0.09 -3.104444,-0.66245 -0.50515,-0.48103 -0.665319,-0.90028 -0.659727,-1.72683 0.0041,-0.60036 0.120922,-1.20391 0.259691,-1.34121 0.138767,-0.13732 0.293592,-1.0233 0.344055,-1.96887 0.08737,-1.637107 0.125092,-1.722847 0.790005,-1.795331 0.611788,-0.06666 0.744929,0.06524 1.075129,1.065641 0.382526,1.15886 0.319366,3.01087 -0.111623,3.27322 -0.12998,0.0791 -0.237788,0.35961 -0.239572,0.62331 -0.0025,0.37318 0.279196,0.51887 1.270965,0.65727 1.491971,0.20819 2.302982,-0.0299 4.91461,-1.44323 1.489446,-0.80601 2.075341,-0.99167 2.728898,-0.86476 1.045411,0.20299 1.208522,0.41857 1.912014,2.52706 0.455329,1.3647 0.533699,2.0266 0.384074,3.24382 -0.103392,0.84109 -0.09744,1.52986 0.01322,1.53061 0.110662,7.5e-4 1.166434,-0.31047 2.34616,-0.69161 l 2.14496,-0.69298 0.08331,-1.67977 c 0.08887,-1.79163 0.88978,-4.23999 1.7738,-5.42245 1.362293,-1.822176 -0.818402,-0.82334 -3.033763,1.38957 -0.854974,0.85403 -1.676088,1.55195 -1.824699,1.55094 -0.919369,-0.006 -3.073869,-3.20632 -4.144194,-6.155433 -1.24755,-3.437407 -0.943065,-5.820792 1.305445,-10.218483 1.222715,-2.391414 1.408244,-3.838762 0.710619,-5.54375 -0.438692,-1.072142 -1.868828,-2.716183 -2.36572,-2.719545 -0.170105,-0.0011 -0.591762,-0.220318 -0.937012,-0.487039 -0.34525,-0.266732 -1.669227,-0.867421 -2.942171,-1.334892 -2.699034,-0.99116 -3.021236,-0.928808 -4.391075,0.849636 -0.686824,0.891705 -0.94311,1.541056 -1.112562,2.818939 -0.36458,2.749387 -0.758605,3.791915 -1.761421,4.660452 -1.063469,0.921077 -1.147053,1.334851 -0.406816,2.013924 0.620716,0.569422 0.639524,0.895496 0.156214,2.708169 -0.200133,0.750603 -0.294315,1.472502 -0.209294,1.604231 0.183831,0.28481 2.774094,1.99941 4.158018,2.752349 1.337208,0.727532 0.901141,2.064383 -0.978951,3.001167 -1.40404,0.699578 -2.014534,0.811921 -2.256068,0.415128 -0.270486,-0.44435 0.159181,-1.041447 0.941369,-1.308202 0.425889,-0.145242 0.774692,-0.315817 0.775119,-0.379056 4.28e-4,-0.0632 -0.755636,-0.615115 -1.680143,-1.226403 -1.99661,-1.320166 -2.472528,-1.815246 -2.770757,-2.882288 -0.172558,-0.617411 -0.108117,-0.973754 0.281386,-1.555952 0.651571,-0.973905 0.645896,-1.638749 -0.02013,-2.35737 -0.29466,-0.317931 -0.601767,-1.003074 -0.682461,-1.522521 -0.133319,-0.858222 -0.03626,-1.05038 1.062992,-2.104358 0.882518,-0.84617 1.257818,-1.439585 1.387579,-2.194014 0.577575,-3.35793 0.756616,-3.881371 1.668026,-4.876579 0.511813,-0.55887 0.864698,-1.124326 0.784194,-1.256574 -0.08051,-0.132258 -0.684399,-0.304796 -1.341986,-0.383416 -1.55024,-0.185371 -1.990236,-0.581286 -1.963709,-1.766984 0.01919,-0.85771 0.190996,-1.085013 1.617185,-2.13952 0.877644,-0.648928 2.097453,-1.555527 2.710689,-2.01467 0.613239,-0.459142 1.235038,-0.841895 1.38178,-0.850562 0.146741,-0.009 0.803534,-0.294902 1.459544,-0.636062 0.656008,-0.34117 2.504655,-0.944829 4.108104,-1.341482 2.641427,-0.653408 3.325542,-0.716271 7.280735,-0.669066 2.400954,0.02864 5.143408,0.185446 6.09434,0.348422 1.674854,0.287036 6.26146,1.9539 6.567414,2.386719 0.08299,0.117394 0.656767,0.612787 1.27507,1.10087 2.902802,2.291428 4.730348,7.442618 4.746343,13.378202 0.0048,1.772853 0.119575,3.769195 0.255101,4.436307 0.321076,1.580438 1.435051,2.918904 3.097892,3.722201 0.789332,0.381308 1.335107,0.81978 1.333407,1.071224 -0.003,0.477799 -0.87626,1.357483 -1.232074,1.241454 -0.127076,-0.04146 -0.769315,0.290383 -1.427198,0.737373 -1.58283,1.075438 -3.413734,1.927482 -4.13144,1.922627 -0.318644,-0.0022 -0.717942,0.160788 -0.887326,0.362096 -0.169386,0.201309 -0.631984,0.426585 -1.027995,0.500608 -0.396012,0.07402 -1.256754,0.273655 -1.912763,0.443612 -0.656008,0.169966 -1.728751,0.340824 -2.383873,0.379683 -0.655122,0.03887 -1.927667,0.151224 -2.827879,0.249687 -1.625466,0.177782 -1.640876,0.187411 -2.23524,1.396661 -0.329171,0.6697 -0.766069,1.54288 -0.970889,1.94038 -0.727042,1.41099 -1.30508,3.88384 -1.196838,5.1201 0.01432,0.16349 0.627941,0.3592 1.363614,0.43492 1.443936,0.14861 1.742031,0.32888 1.872927,1.13262 0.07969,0.48937 -0.09165,0.52179 -2.87848,0.54456 -2.715887,0.0222 -3.110996,0.0922 -4.733774,0.83821 -1.515466,0.69672 -1.723013,0.87208 -1.440537,1.21716 0.270203,0.3301 0.239345,0.50203 -0.170253,0.94851 -0.275151,0.29994 -0.734109,0.66846 -1.019904,0.81893 -0.871035,0.45862 -5.769897,1.47716 -7.086156,1.47331 -0.751078,-0.002 -1.397632,0.154 -1.644119,0.39717 -0.364079,0.35919 -0.351735,0.53037 0.118916,1.64918 0.288835,0.68662 0.665871,1.33922 0.837852,1.45022 0.548547,0.35402 4.048917,0.24986 5.73826,-0.17077 2.196795,-0.54699 2.716316,-0.3363 1.7145,0.69531 -1.030061,1.0607 -3.05845,1.59723 -5.550491,1.46816 -1.093414,-0.0566 -2.079995,-0.0357 -2.192404,0.0466 -0.391362,0.28642 -1.141713,1.81598 -1.14522,2.3345 -0.0019,0.28714 -0.183124,0.66909 -0.402626,0.84876 -0.666159,0.5453 -1.270004,-0.17813 -1.100213,-1.31811 l 0.139617,-0.9374 -0.483943,1.02775 c -0.72377,1.53705 -0.360082,2.28216 1.644503,3.36918 0.897429,0.48665 2.047942,0.95528 2.556694,1.0414 0.69378,0.11744 0.944847,0.3023 1.004386,0.73953 0.240542,1.76647 -4.294879,0.46479 -6.630961,-1.90311 -0.301911,-0.30602 -0.542797,-1.04092 -0.626764,-1.91213 -0.126046,-1.30786 -0.07837,-1.4681 0.629283,-2.11509 l 0.765663,-0.70003 -1.274748,0.0698 c -1.182163,0.0647 -1.302325,0.0128 -1.654402,-0.71486 -0.903105,-1.86639 -1.241529,-2.09987 -3.114222,-2.14856 -0.989645,-0.0257 -1.84215,0.08 -1.979815,0.24574 -0.132975,0.16001 -0.329114,0.95967 -0.435861,1.77703 l -0.194091,1.4861 1.281714,0.19632 c 0.704943,0.10799 1.853281,0.38527 2.551868,0.61618 1.235783,0.40848 1.281228,0.40425 1.679424,-0.15615 0.596295,-0.83919 0.936723,-0.55928 0.981825,0.80729 0.06492,1.96727 1.688841,4.16937 4.35596,5.90687 0.5071,0.33035 0.95491,0.8349 0.995133,1.12123 0.06655,0.47368 0.316431,0.52788 2.774119,0.60163 1.485542,0.0445 2.969673,0.0221 3.29806,-0.0491 0.458895,-0.10003 1.038648,-0.99852 2.505121,-3.88239 2.214105,-4.35411 4.376403,-7.694 7.422874,-11.46538 1.967322,-2.43545 2.697781,-3.10069 2.693399,-2.45289 -0.0043,0.6284 -2.80474,5.40124 -5.514399,9.39812 -2.132435,3.14545 -3.277062,5.11957 -3.832218,6.60937 -0.846226,2.2709 -2.193255,8.01923 -2.202591,9.39936 -0.0031,0.45916 -0.200121,1.04682 -0.437808,1.30592 -0.23769,0.2591 -0.36981,0.63693 -0.2936,0.83961 0.240349,0.63924 2.996206,0.82515 4.659647,0.31434 0.620446,-0.19052 16.263133,-0.0685 16.731594,0.13048 0.239261,0.10164 0.515691,0.0562 0.614292,-0.10092 0.0986,-0.15715 0.289642,-0.21649 0.42454,-0.13184 0.332521,0.20862 0.313866,-0.62037 -0.05062,-2.24962 -0.260972,-1.16654 -0.243807,-1.4127 0.123788,-1.77535 0.675461,-0.66639 1.087669,-0.28403 2.174123,2.01668 1.068901,2.26353 1.750269,2.80095 1.642947,1.29584 -0.05198,-0.72898 0.03526,-0.87319 0.571993,-0.9455 0.348331,-0.0469 1.095048,0.12664 1.659366,0.38573 1.166773,0.53567 3.152033,0.67703 3.309623,0.23566 0.0597,-0.16724 -0.32765,-0.36813 -0.8961,-0.46473 -0.55072,-0.0936 -1.35637,-0.48463 -1.79034,-0.86897 -0.910827,-0.80667 -1.743317,-1.17916 -2.649003,-1.18529 -1.521536,-0.0103 -1.959977,-2.7422 -0.935214,-5.82729 1.615198,-4.86263 3.139972,-7.76152 4.731997,-8.99647 1.02911,-0.79828 1.14013,-0.0611 0.25016,1.66102 -1.55422,3.00754 -3.678506,10.35391 -3.291545,11.38307 0.08704,0.23148 0.373595,0.39076 0.636793,0.35395 0.383253,-0.0536 0.543577,-0.48299 0.805158,-2.15641 0.495044,-3.16695 1.381884,-6.86538 1.944134,-8.10771 0.771,-1.70356 2.40212,-4.09229 3.0146,-4.41476 0.51801,-0.27274 2.67435,-0.19274 5.75797,0.21363 l 1.15247,0.15188 -0.85168,-1.07461 c -0.74007,-0.93377 -0.8316,-1.21698 -0.69849,-2.16092 0.18861,-1.33746 1.32814,-3.0917 2.22545,-3.42592 0.66568,-0.24796 0.66101,-0.77913 -0.007,-0.78365 -0.55913,-0.004 -1.24431,-1.7977 -1.22389,-3.20441 0.0233,-1.60692 0.60515,-2.83945 1.98129,-4.1971 1.13221,-1.117 1.55764,-1.26399 2.02077,-0.69821 0.21761,0.26585 0.0313,0.68559 -0.77315,1.74117 -0.58294,0.76498 -1.07661,1.52764 -1.09705,1.6948 -0.15399,1.25908 -0.10256,3.14203 0.0892,3.2623 0.36989,0.23208 2.00957,-1.49299 2.19455,-2.30884 0.19575,-0.86328 1.01893,-1.9678 1.7557,-2.35571 0.87615,-0.46131 1.06517,-0.0218 0.47773,1.11068 -0.30271,0.58355 -0.6058,1.72459 -0.67357,2.53564 -0.0678,0.81105 -0.18403,1.53465 -0.25836,1.608 -0.0744,0.0733 -0.40822,0.006 -0.74192,-0.14808 -0.74583,-0.34592 -1.51106,0.111 -1.51643,0.90546 -0.003,0.38778 0.41098,0.73827 1.51271,1.28192 0.83398,0.41152 1.85084,0.92085 2.25967,1.13186 0.40884,0.211 0.77084,0.34245 0.80444,0.29212 2.47883,-3.71299 3.00714,-4.39404 5.1033,-6.57885 1.47508,-1.53747 4.52178,-3.83834 6.38636,-4.82299 0.29209,-0.15425 1.36641,-0.55897 2.38739,-0.89937 1.02096,-0.34042 1.97007,-0.71426 2.1091,-0.83078 0.13904,-0.11652 0.55641,-0.21162 0.9275,-0.21134 0.75977,1.4e-4 1.51432,-0.37762 1.16994,-0.58642 -0.12417,-0.0752 -1.11812,-0.22981 -2.20879,-0.3434 -1.09065,-0.11359 -2.28373,-0.36309 -2.65129,-0.55444 -0.36753,-0.19136 -1.1398,-0.43677 -1.71614,-0.54535 -0.57633,-0.10859 -1.38519,-0.37118 -1.79747,-0.58354 -0.95596,-0.49239 -1.18465,-0.2627 -0.65136,0.6542 0.46241,0.79503 0.92603,3.10516 0.76932,3.83335 -0.10931,0.50792 -0.85739,0.6141 -1.28352,0.18217 -0.38814,-0.39345 -1.66637,0.6682 -2.13794,1.7757 -0.43567,1.02318 -0.88105,1.01549 -1.21879,-0.0211 -0.32929,-1.01061 0.49412,-2.57963 1.60596,-3.06015 l 0.85473,-0.3694 -0.666,-1.24363 c -0.66553,-1.24275 -0.66565,-1.24436 -0.1727,-2.27188 0.47946,-0.999369 0.53038,-1.027325 1.81334,-0.995446 1.16654,0.02899 4.2902,0.704646 6.99868,1.513866 0.5083,0.15188 1.34076,0.29961 1.8499,0.32832 0.89083,0.0502 0.94074,0.003 1.32453,-1.24546 0.25702,-0.836318 0.85832,-1.793673 1.69132,-2.692809 1.57003,-1.694708 1.64512,-2.54969 0.23659,-2.693961 -0.49111,-0.05032 -1.02153,0.03539 -1.17871,0.190471 -0.15717,0.155061 -0.55496,0.280113 -0.88399,0.277887 -0.32902,-0.0022 -0.84423,0.256455 -1.1449,0.574849 -0.49092,0.519841 -0.58774,0.537286 -0.94911,0.170993 -0.22133,-0.224342 -0.42341,-0.934365 -0.44907,-1.577843 -0.0411,-1.032102 0.0237,-1.179447 0.55039,-1.250606 0.35813,-0.04838 0.65973,0.08597 0.75366,0.335836 0.26782,0.712278 1.32156,0.47019 3.06724,-0.704688 2.01025,-1.352943 3.10315,-2.996568 2.72439,-4.097265 -0.3382,-0.982891 -1.63669,-1.147008 -3.88379,-0.490853 -1.73953,0.507935 -1.77285,0.53464 -1.77888,1.4258 -0.006,0.882169 -0.0231,0.896744 -0.59797,0.509406 -1.32457,-0.89245 -1.12913,-3.082088 0.24347,-2.727695 0.35393,0.0914 0.75727,-0.0068 0.99604,-0.242298 0.27953,-0.275766 1.23705,-0.441322 3.1565,-0.545741 2.68674,-0.146149 2.76606,-0.134242 3.18929,0.478785 0.83612,1.211093 0.44394,3.358829 -0.87505,4.79207 -0.55483,0.602901 -0.60347,0.778666 -0.31351,1.132895 0.40483,0.49456 0.52882,4.260505 0.16408,4.983174 -0.22345,0.442709 -0.28262,0.447869 -0.70391,0.06134 -0.25297,-0.232076 -0.58876,-0.422822 -0.74617,-0.423887 -0.29782,-0.002 -1.67345,2.50221 -1.67717,3.05315 -0.001,0.17306 -0.18229,0.65449 -0.4025,1.06983 -0.58599,1.10529 -0.527,1.31054 0.78529,2.73265 1.43213,1.55198 1.39577,2.20428 -0.19788,3.54981 -0.87981,0.74283 -1.03539,1.03043 -1.04144,1.92523 -0.021,3.10224 -2.8221,7.5257 -6.65655,10.51188 l -1.43349,1.11637 -0.13832,2.33765 c -0.0761,1.28571 -0.15992,2.93283 -0.18634,3.66027 l -0.048,1.32262 1.96229,0.0133 c 1.86362,0.0126 1.97252,-0.02 2.16584,-0.64683 0.11196,-0.36305 0.47352,-1.55126 0.80347,-2.64045 1.58156,-5.22092 3.6827,-9.4501 6.16159,-12.40211 1.87832,-2.23679 2.92374,-3.04101 3.60591,-2.77393 0.76916,0.30114 0.37375,1.38407 -1.03323,2.82971 -0.76934,0.79049 -1.66499,1.80699 -1.99031,2.25888 -0.99757,1.38566 -3.5652,6.88173 -3.83064,8.19954 -0.13787,0.68445 -0.44512,1.83845 -0.6828,2.56446 -1.46579,4.47749 -1.77517,6.16833 -1.82865,9.9941 -0.0291,2.08045 0.0254,4.03525 0.12112,4.34398 0.17076,0.55092 0.28168,0.56129 5.98341,0.55934 3.19518,-0.001 5.80969,-0.0425 5.81003,-0.0921 3.3e-4,-0.0496 -0.18268,-0.27594 -0.4067,-0.50301 -0.49081,-0.49749 -0.40545,-1.11617 0.20637,-1.49569 0.33944,-0.21056 0.79366,-0.13345 1.8551,0.31493 1.40342,0.59284 2.59147,0.77854 2.57982,0.40326 -0.003,-0.10916 -0.68362,-0.61511 -1.51162,-1.12432 -1.33509,-0.82107 -2.45644,-1.8659 -3.00456,-2.79954 -0.30875,-0.52592 0.95151,-2.78276 3.15994,-5.65871 1.15974,-1.51028 2.73957,-3.57023 3.51073,-4.57768 0.77117,-1.00744 1.8517,-2.32965 2.40118,-2.93825 0.54949,-0.6086 1.51692,-1.71768 2.14985,-2.46462 0.63295,-0.74693 1.78156,-1.75557 2.55249,-2.24141 1.81053,-1.141 3.16859,-1.36778 4.6272,-0.77268 0.611,0.24928 1.16147,0.40335 1.22327,0.34238 0.0618,-0.061 -0.0618,-0.7018 -0.27467,-1.42407 -0.3131,-1.06243 -0.33071,-1.66226 -0.0922,-3.14093 0.34244,-2.12255 0.14175,-2.5683 -0.90754,-2.01584 -0.83024,0.43713 -0.86968,0.99067 -0.079,1.10843 0.43563,0.0649 0.59353,0.26551 0.59025,0.75001 -0.004,0.51743 -0.11955,0.63953 -0.53296,0.56077 -0.29068,-0.0554 -1.06416,-0.12014 -1.71886,-0.14393 -1.07694,-0.0391 -1.19759,-0.10937 -1.2661,-0.73737 -0.0544,-0.49915 0.19028,-0.97243 0.87131,-1.68481 0.52087,-0.54486 0.94728,-1.02525 0.94757,-1.06753 2.9e-4,-0.0423 -0.26589,-0.11673 -0.59151,-0.16544 -1.43455,-0.21458 -0.66867,-1.83832 1.55261,-3.29161 0.80191,-0.52466 1.41699,-0.99551 1.36684,-1.04633 -0.0793,-0.0803 -0.94742,-0.21333 -2.2951,-0.35154 -0.21813,-0.0224 -0.62534,-0.21617 -0.90495,-0.43065 -0.49825,-0.38227 -0.49604,-0.40287 0.11239,-1.0418 0.34427,-0.36153 1.28206,-0.83144 2.10565,-1.05514 0.8167,-0.22182 1.90276,-0.56616 2.41344,-0.76519 0.96173,-0.37481 3.13333,-0.72619 4.17185,-0.67501 0.88005,0.0434 0.72611,-0.48076 -0.19734,-0.67196 -0.78262,-0.16204 -1.30171,-1.063257 -0.94232,-1.636049 0.30421,-0.484864 2.27331,-0.554396 4.30658,-0.152063 2.88918,0.571697 3.07421,0.613859 3.56448,0.81225 0.58576,0.237018 0.84897,-0.244473 0.35904,-0.656726 -0.21547,-0.181282 -0.39112,-0.420895 -0.39037,-0.532453 7.6e-4,-0.111567 -0.45196,-0.99083 -1.00606,-1.95392 -0.81093,-1.409488 -1.07086,-2.215784 -1.33248,-4.133348 -0.26626,-1.951496 -0.26236,-2.456771 0.0219,-2.794176 0.26251,-0.311971 0.27278,-0.486676 0.0424,-0.720229 -0.39119,-0.396536 -0.37788,-2.515764 0.0216,-3.640847 0.29115,-0.81735 0.25971,-0.914565 -0.5059,-1.564298 -1.02453,-0.86946 -1.27038,-1.845046 -0.72597,-2.880627 0.56215,-1.069272 1.02137,-1.180748 2.34475,-0.569242 1.33165,0.615302 2.58058,0.702152 2.58412,0.179704 0.004,-0.579777 1.97255,-2.857953 3.23658,-3.745483 0.63799,-0.447974 1.60744,-0.956678 2.15433,-1.130453 0.5469,-0.173784 0.99499,-0.410459 0.99577,-0.525936 7.8e-4,-0.115487 -0.5948,-0.29317 -1.3235,-0.394862 -1.66865,-0.232852 -2.11074,-0.406237 -2.10789,-0.826707 0.004,-0.626016 2.85788,-0.707835 4.68813,-0.134401 1.56057,0.488947 1.64838,0.491271 1.79251,0.04753 0.0948,-0.291675 0.76971,-0.656758 1.80074,-0.974001 1.5474,-0.476134 1.65888,-0.564602 1.80616,-1.433506 0.19694,-1.162014 1.13022,-2.671426 1.99826,-3.231827 0.36482,-0.235527 1.3477,-0.631478 2.18416,-0.879885 1.54669,-0.459339 1.63136,-0.453916 4.64867,0.297752 1.15305,0.287246 3.26679,2.118906 3.48685,3.021535 0.1392,0.570965 0.23137,0.589249 2.37064,0.470307 2.95281,-0.16417 4.2544,0.323425 5.65313,2.117788 1.57668,2.022631 2.12758,3.841239 2.09587,6.918695 -0.0176,1.71677 -0.15627,2.838268 -0.40994,3.318203 -0.48584,0.919085 -2.22245,2.636977 -2.86794,2.837065 -0.68238,0.211509 -0.62697,0.405329 0.41707,1.458585 0.70371,0.709906 0.91186,1.140764 0.91327,1.890271 0.002,0.933823 -0.7231,2.591168 -1.13361,2.591851 -0.10916,5.2e-5 -0.19954,0.161534 -0.20087,0.358559 -0.001,0.197026 -0.30854,0.684099 -0.68269,1.082367 -0.51521,0.548438 -0.96965,0.740388 -1.87296,0.791109 -1.42258,0.07988 -1.53079,0.165519 -1.59209,1.259959 -0.0695,1.240429 -0.57338,2.297354 -1.09359,2.293835 -0.25028,-0.0017 -0.78554,0.309244 -1.1894,0.690971 -0.84324,0.796994 -2.71443,1.182995 -4.34129,0.895534 -0.57663,-0.101903 -1.52466,-0.186337 -2.10674,-0.187665 -0.90759,-0.0021 -1.07146,0.08595 -1.1505,0.618172 -0.052,0.350322 0.13173,0.870102 0.42191,1.193502 0.96822,1.07912 1.08269,1.55865 0.64266,2.6922 -0.54315,1.39914 -0.51795,2.01667 0.14658,3.59062 0.63118,1.49503 0.7666,4.44248 0.28488,6.2004 -0.5333,1.94613 -1.15865,4.68773 -1.08084,4.73846 0.0423,0.0276 1.27623,-1.2133 2.74192,-2.75757 2.78105,-2.93016 3.39783,-3.29742 5.01063,-2.98355 0.88378,0.17199 0.90887,0.20581 0.48082,0.64804 -0.24839,0.25663 -0.71323,0.54499 -1.03304,0.64082 -1.41216,0.42319 -6.29222,5.89815 -7.30763,8.19848 -0.31396,0.71128 -1.26616,2.71731 -2.11597,4.45786 -0.84981,1.74054 -1.63136,3.46169 -1.73677,3.82479 -0.1054,0.3631 -0.41581,1.25399 -0.6898,1.97975 -0.7953,2.1067 -1.47341,5.40371 -1.49445,7.2661 l -0.0196,1.7197 6.61483,-0.0142 c 3.63815,-0.008 10.45458,5.2e-4 15.14762,0.0185 4.69303,0.0179 8.5334,-0.0583 8.53415,-0.16938 7.5e-4,-0.11109 -0.30293,-0.36749 -0.67481,-0.56977 -0.85576,-0.46547 -2.47359,-3.37285 -2.46643,-4.43238 0.0104,-1.53658 1.29937,-1.78992 1.9974,-0.39259 0.1492,0.29864 0.42428,0.72991 0.6113,0.95839 0.45562,0.55659 2.67074,1.86222 2.85352,1.6819 0.0797,-0.0788 -0.22297,-0.707 -0.6728,-1.39619 -0.44982,-0.68919 -0.81638,-1.47139 -0.81458,-1.73823 0.002,-0.26684 0.48616,-1.40403 1.07636,-2.5271 1.27884,-2.43351 2.98358,-6.87571 2.70559,-7.05013 -0.36783,-0.23079 -2.26796,1.378 -3.02509,2.56125 -0.89829,1.40378 -2.35018,2.29329 -3.0411,1.86314 -0.25144,-0.15653 -0.68253,-0.78281 -0.958,-1.39173 -0.55671,-1.23065 -0.93724,-1.43018 -0.94357,-0.49476 -0.005,0.74578 -1.03258,1.75897 -1.77876,1.75392 -0.65732,-0.004 -1.64757,-2.0885 -2.93529,-6.17752 -0.44786,-1.42212 -0.27315,-9.11304 0.22523,-9.91462 0.40585,-0.65274 1.00782,-0.77024 1.31985,-0.25762 0.11054,0.18158 0.20807,1.87892 0.21671,3.77187 0.0112,2.45057 0.14589,3.86168 0.46768,4.90002 0.62121,2.00475 1.68362,4.24482 2.01426,4.24706 0.16111,0.001 0.192,-0.18916 0.075,-0.46252 -1.00059,-2.33962 -1.69032,-4.93248 -1.73358,-6.51706 -0.0462,-1.69001 -1.8e-4,-1.85093 0.69729,-2.44273 0.41064,-0.34845 1.06745,-0.63663 1.45957,-0.6404 0.3921,-0.003 1.30926,-0.15908 2.03813,-0.34512 1.18885,-0.30346 1.33946,-0.42497 1.46323,-1.18074 0.17534,-1.0704 1.48396,-2.40497 3.8632,-3.93982 2.90308,-1.87275 3.59234,-2.18665 4.42359,-2.01454 0.4124,0.0854 0.74927,0.0392 0.75024,-0.10299 9.6e-4,-0.14188 0.23425,-0.25639 0.51843,-0.25447 0.28421,0.002 0.8121,-0.12868 1.17312,-0.29023 0.9599,-0.42955 1.94217,-0.0715 2.42881,0.88544 0.66295,1.30353 0.65675,5.04416 -0.0112,6.77144 -0.29467,0.762 -0.63832,1.38477 -0.76365,1.38393 -0.12534,-8.5e-4 -0.22906,0.17704 -0.23054,0.39531 -0.007,0.97253 0.86776,0.24007 1.87984,-1.57482 0.65246,-1.16995 1.27337,-1.9758 1.5211,-1.97412 0.2302,0.002 1.03335,0.6411 1.78477,1.4212 0.75139,0.78011 1.71314,1.56485 2.13718,1.74387 0.72051,0.30416 0.84184,0.26034 1.85299,-0.66898 0.84091,-0.77286 1.1593,-1.31823 1.42886,-2.44736 0.46234,-1.93668 0.67418,-2.28875 1.46451,-2.4343 0.7907,-0.14561 1.26427,0.33162 1.25794,1.26771 -0.006,0.95044 0.22054,0.98788 1.70945,0.28199 1.31207,-0.62206 1.32287,-0.6373 1.16282,-1.63925 -0.15431,-0.96604 -0.20268,-1.00804 -1.07943,-0.93735 -0.50485,0.0407 -1.31665,0.1969 -1.80404,0.3471 -0.61386,0.18917 -0.97014,0.18791 -1.15959,-0.004 -0.49707,-0.50381 0.0121,-1.05046 1.65081,-1.77261 0.88987,-0.39215 1.58363,-0.78451 1.54168,-0.87191 -0.5929,-1.2349 -1.77078,-2.68986 -2.51124,-3.10201 -0.51323,-0.28565 -1.25472,-0.93827 -1.64774,-1.45026 l -0.71458,-0.93089 0.34199,-2.49324 c 0.18809,-1.371275 0.29027,-3.072633 0.22706,-3.780777 -0.0781,-0.875098 0.0323,-1.608438 0.34495,-2.289259 0.44407,-0.967268 0.44121,-1.032839 -0.0836,-1.906919 -0.6966,-1.160239 -0.68178,-1.589688 0.13597,-3.941721 0.37073,-1.066216 0.64468,-1.962074 0.60879,-1.990807 -0.39975,-0.320101 -1.34099,-0.661716 -1.83237,-0.66504 -0.73809,-0.005 -2.06065,-1.176126 -2.04464,-1.810512 0.006,-0.248737 0.27769,-0.748109 0.60315,-1.109716 0.51738,-0.574883 0.841,-0.664826 2.57623,-0.716019 1.66767,-0.04922 2.04847,-0.147077 2.38514,-0.613081 1.8784,-2.598553 5.00754,-4.9536 6.56882,-4.943039 1.07725,0.0073 0.65467,0.664904 -1.53598,2.390235 -1.17739,0.927317 -2.61596,2.303447 -3.19684,3.058075 -0.80534,1.046247 -1.30908,1.438318 -2.12137,1.651178 -0.58589,0.153521 -1.18782,0.20222 -1.33763,0.108235 -0.34615,-0.217187 -1.56687,0.0709 -1.5689,0.370296 -8.4e-4,0.123997 0.58069,0.306695 1.29229,0.40599 1.53163,0.213736 2.01021,0.677304 1.74739,1.692659 -0.51138,1.975496 -1.0099,5.136556 -0.86913,5.510937 0.12242,0.325616 0.47478,0.406781 1.54702,0.356363 0.76366,-0.03593 1.86418,0.01861 2.44558,0.121525 0.58139,0.102735 1.65197,0.252971 2.37904,0.333811 0.72707,0.08082 2.19031,0.343583 3.25162,0.583858 1.06131,0.240275 2.00229,0.365203 2.09107,0.277611 0.0888,-0.0876 0.021,-0.639672 -0.15059,-1.226857 -0.32786,-1.121813 -0.22156,-1.585305 0.36263,-1.581353 0.8889,0.006 1.7167,2.652773 1.69793,5.42874 -0.009,1.373558 -0.10433,1.777975 -0.44805,1.907223 -0.58631,0.220439 -1.14832,-0.601492 -1.1411,-1.668817 0.007,-1.002867 -0.21342,-1.11878 -2.76833,-1.45738 -1.01776,-0.134877 -2.62358,-0.364645 -3.56851,-0.5106 -0.94491,-0.145955 -2.61045,-0.349096 -3.70119,-0.451426 l -1.98316,-0.186049 0.0461,4.31629 c 0.0622,5.821736 2.3e-4,5.613906 1.62167,5.432986 l 1.31004,-0.14618 -0.008,1.11199 c -0.008,1.23012 0.79815,2.83726 1.42393,2.8415 0.21642,0.001 1.0238,-0.28561 1.79418,-0.63795 1.9624,-0.89753 3.56882,-1.44362 5.11232,-1.73795 1.52649,-0.29108 6.40958,-0.31267 8.31966,-0.0368 1.25399,0.18111 1.31513,0.15936 1.7208,-0.61231 0.23135,-0.44005 0.42214,-1.02167 0.42397,-1.29249 0.007,-1.05132 1.91862,-2.37617 5.18379,-3.592855 4.59408,-1.711873 5.78323,-2.521748 7.04872,-4.80064 1.93269,-3.480356 2.11456,-5.508983 0.75229,-8.390593 -0.48118,-1.017819 -1.43602,-2.480801 -2.1219,-3.251058 -1.27518,-1.432099 -1.41876,-2.189507 -0.41376,-2.182709 0.88134,0.006 3.29975,2.650912 4.1839,4.575826 1.27877,2.784004 1.59161,3.943287 1.58271,5.86463 -0.007,1.535766 -0.14916,2.082499 -0.96086,3.697755 -1.31563,2.618041 -2.7724,4.220404 -3.83044,4.213246 -0.53316,-0.0036 -0.81558,0.126316 -0.81727,0.375941 -0.002,0.273623 -0.18715,0.333801 -0.65553,0.21287 -0.96626,-0.249481 -6.41192,1.759407 -7.47643,2.758027 -0.49746,0.46669 -0.96215,1.25676 -1.13761,1.93423 -0.31879,1.2308 -1.1004,1.96356 -2.08733,1.95689 -0.66684,-0.005 -1.01254,0.62423 -1.30417,2.37197 -0.16814,1.00766 -0.15039,1.03554 1.01374,1.59238 1.4155,0.6771 4.18577,3.26323 4.77061,4.45351 0.2296,0.46728 0.57319,0.94586 0.76353,1.06352 0.19035,0.11767 0.46461,0.63147 0.60949,1.14178 0.14485,0.51032 0.39372,0.90191 0.55306,0.87019 0.40732,-0.081 0.67213,1.38887 0.35518,1.97161 -0.1745,0.32081 -0.17151,0.6498 0.009,0.97728 0.16386,0.29752 0.21518,1.6005 0.12914,3.27902 -0.1383,2.69842 -0.16788,2.80747 -0.94798,3.49506 -0.9774,0.8615 -2.89586,1.14241 -5.27994,0.77312 -2.97948,-0.46152 -3.72129,-1.48635 -2.74478,-3.79197 0.683,-1.61257 0.80377,-3.37236 0.19742,-2.87601 -0.21149,0.17311 -0.59064,0.92929 -0.84255,1.68038 -0.25194,0.7511 -0.86019,2.22708 -1.35169,3.27996 -1.42754,3.05806 -2.97672,7.87411 -3.75729,11.68056 -0.67575,3.29536 -1.40659,2.96237 6.26818,2.85587 3.67482,-0.0511 7.51571,-0.20463 8.53531,-0.34138 2.76281,-0.37058 26.88809,-0.27158 30.69152,0.12591 l 1.85081,0.19343 0.078,0.87354 c 0.0644,0.72118 -0.11146,1.06611 -1.00823,1.9776 l -1.08623,1.10406 -7.96592,-0.0963 c -4.38124,-0.0529 -9.86738,-0.25523 -12.19141,-0.44949 -2.91341,-0.24353 -5.88153,-0.297 -9.55866,-0.17222 -2.93322,0.0995 -7.47836,0.18002 -10.10024,0.17885 -2.62192,-0.001 -4.92494,0.0939 -5.11786,0.21136 -0.19909,0.1212 -0.47715,0.0854 -0.64315,-0.083 -0.35918,-0.36407 -2.29263,-0.40127 -3.2044,-0.0617 -0.36904,0.13747 -0.72817,0.15605 -0.79803,0.0413 -0.19439,-0.31932 -3.96983,-0.37249 -4.78876,-0.0674 -0.50006,0.18626 -0.82541,0.18394 -1.05298,-0.008 -0.31497,-0.26502 -15.25107,-0.28592 -29.89964,-0.0418 -6.914,0.1152 -7.21323,0.11597 -15.61105,0.04 -3.78339,-0.0346 -7.74268,0.0198 -8.7984,0.12005 -1.05573,0.10028 -1.91887,0.0873 -1.91808,-0.0289 7.8e-4,-0.11615 -0.53397,-0.1839 -1.18834,-0.15058 -0.65434,0.0334 -1.19093,0.14989 -1.19241,0.25902 -0.005,0.31543 -1.01049,0.22304 -1.21413,-0.11148 -0.13615,-0.22365 -2.78882,-0.27063 -10.13494,-0.17945 -5.47281,0.0679 -14.41548,0.12297 -19.87263,0.12229 -5.45715,-7.1e-4 -11.64873,0.0273 -13.75907,0.0621 -2.11033,0.0348 -7.40854,0.006 -11.77379,-0.0646 -7.54968,-0.12177 -25.35144,-0.049 -38.234222,0.15629 -3.274647,0.0521 -15.002717,0.0737 -26.062379,0.0478 -13.810979,-0.0323 -20.854891,0.0485 -22.491844,0.25807 -1.310852,0.16783 -6.134142,0.33748 -10.718421,0.377 -4.584278,0.0395 -9.25903,0.12047 -10.388334,0.17986 -1.693162,0.0891 -2.080613,0.0353 -2.209099,-0.30641 -0.22679,-0.6053 -9.121625,-0.68068 -9.625822,-0.0814 -0.18263,0.21705 -0.436536,0.39393 -0.564234,0.39307 -0.127701,-8.6e-4 -0.230975,-0.18017 -0.229498,-0.39844 0.0015,-0.22048 -0.232495,-0.39845 -0.526469,-0.40044 -0.291036,-0.002 -0.529961,0.11548 -0.530945,0.26099 -9.84e-4,0.14552 0.200612,0.26595 0.447992,0.26762 0.360388,0.002 0.383396,0.0683 0.115766,0.33152 -0.267358,0.26293 -0.423449,0.20845 -0.782155,-0.27296 l -0.448141,-0.60144 -13.62350257,0.0904 c -7.49292573,0.0497 -14.03796343,0.0729 -14.54452543,0.0515 -0.506563,-0.0213 -1.117488,0.13654 -1.357606,0.35091 -0.386079,0.34467 -0.569828,0.34284 -1.588435,-0.0157 -0.739433,-0.26036 -1.243814,-0.31485 -1.408698,-0.15218 -0.339871,0.33531 -2.268135,0.31421 -2.265845,-0.0243 9.84e-4,-0.14552 -0.497205,-0.26795 -1.107088,-0.27207 -1.03181,-0.007 -1.073366,0.0197 -0.597926,0.38442 0.405674,0.31117 0.426444,0.39308 0.100799,0.39757 -0.225586,0.003 -0.546405,-0.13247 -0.712936,-0.30127 z m -13.268052,-3.98883 c 0.0016,-0.24331 -2.388149,-1.36859 -2.914089,-1.37215 -0.171415,-0.001 -1.334684,-0.25676 -2.585046,-0.56798 -2.890895,-0.71958 -4.174328,-0.56782 -6.134582,0.7254 l -1.461764,0.96435 1.321992,0.14125 c 2.395429,0.25592 11.771908,0.34284 11.773489,0.10914 z m 48.152352,0.10785 c 0.07451,-0.0813 -0.01522,-0.20265 -0.199419,-0.26979 -0.184198,-0.0672 -0.951368,-0.5918 -1.704824,-1.16596 -1.5601527,-1.18887 -2.5440915,-1.32895 -3.7649631,-0.53601 -0.5770542,0.3748 -1.0514867,0.47218 -1.7403614,0.35724 -0.7358525,-0.12278 -1.3442745,0.0323 -2.728336,0.69564 -0.97970932,0.46951 -1.67104869,0.92309 -1.53630901,1.00795 0.31029815,0.19543 11.49154451,0.11013 11.67421251,-0.0891 z m -64.107623,-2.62657 c 0.627126,-1.23272 1.148801,-2.50323 1.159283,-2.82336 0.01047,-0.32012 0.169675,-0.67624 0.35377,-0.79137 0.505164,-0.31592 1.579416,-3.09711 1.390425,-3.59975 -0.350173,-0.93132 -2.101777,-0.25132 -1.864069,0.72367 0.171531,0.70356 -0.417795,1.33737 -1.483711,1.5957 -0.518588,0.12568 -0.92814,0.006 -1.531945,-0.44642 -0.702993,-0.52714 -0.8618,-0.56083 -1.080407,-0.22918 -0.14095,0.21383 -0.194938,0.6578 -0.119965,0.98658 0.07497,0.32879 -0.06214,1.7163 -0.304696,3.08337 -0.484746,2.73212 -0.342413,3.46124 0.718596,3.68112 1.377828,0.28555 1.595697,0.1136 2.762719,-2.18036 z m 48.6249402,1.98533 c 1.0657686,-1.13391 2.1221404,-3.48645 2.1765153,-4.84711 0.02682,-0.67136 0.1254609,-1.34287 0.2191835,-1.49225 0.1031376,-0.16439 -0.2543093,-0.315 -0.9055163,-0.38155 -0.5917551,-0.0605 -1.1470713,0.003 -1.2340349,0.14206 -0.1966757,0.31347 -0.5361631,1.87894 -0.8944056,4.12435 -0.150749,0.94489 -0.3448475,2.04493 -0.4313249,2.44453 -0.2016058,0.9316 0.1998146,0.93534 1.069581,0.0102 z m 54.9799028,0.37291 c 0.768662,-0.68514 1.697421,-2.63797 2.040238,-4.28986 0.676666,-3.26056 0.866172,-4.30861 0.79256,-4.38323 -0.150462,-0.15251 -4.519926,-0.66403 -4.642159,-0.54344 -0.14851,0.14652 1.149931,0.67497 1.667034,0.67847 0.862778,0.006 0.801252,1.31247 -0.107087,2.27434 -0.281118,0.29767 -0.845305,1.06277 -1.25375,1.70019 -1.341055,2.09287 -1.699401,2.22211 -3.231794,1.1656 -0.523483,-0.36092 -1.051372,-0.59559 -1.173087,-0.52149 -0.296493,0.18047 -0.300676,2.81794 -0.0057,3.6098 0.222971,0.59862 0.364966,0.63403 2.81424,0.70182 2.143983,0.0593 2.667224,-0.007 3.099535,-0.3922 z m 16.068533,0.26776 c 7.4e-4,-0.0922 -0.206515,-0.24208 -0.460566,-0.33315 -0.254052,-0.091 -0.851253,-0.45725 -1.327114,-0.81375 -1.023202,-0.76651 -2.913589,-1.23088 -5.070251,-1.24546 -1.287635,-0.009 -1.926306,0.17092 -3.698265,1.0402 -1.178014,0.57792 -2.142482,1.14491 -2.14326,1.25999 -7.79e-4,0.11509 2.855978,0.22062 6.348348,0.23452 3.492371,0.0136 6.350367,-0.0501 6.351108,-0.14231 z m 47.320733,-1.76534 c 0.7258,-2.00317 1.68285,-6.26562 1.69142,-7.53305 0.007,-0.99375 -0.0894,-1.04564 -2.4684,-1.33301 l -1.55009,-0.18723 0.14853,1.1483 c 0.0817,0.63155 0.21748,2.54396 0.30178,4.24979 0.20712,4.19176 0.0617,4.42532 -2.77833,4.46118 -1.12456,0.0142 -1.72627,0.0767 -1.33715,0.13895 0.38911,0.0622 0.85656,0.29525 1.03874,0.51782 0.25668,0.31357 0.78175,0.38714 2.33231,0.32679 l 2.00106,-0.0779 0.62013,-1.71163 z m 13.25066,1.67146 4.34498,0.0496 -0.49107,-0.55007 c -0.27009,-0.30254 -0.85344,-0.71599 -1.29632,-0.91877 -1.00058,-0.45814 -4.05169,-1.2256 -4.91741,-1.2369 -0.35448,-0.004 -0.80181,-0.10964 -0.99407,-0.23336 -0.39456,-0.2539 -1.75871,0.1541 -4.15767,1.24351 -0.87711,0.39831 -1.86216,0.8071 -2.189,0.90841 -0.32684,0.1013 -0.59551,0.3689 -0.59704,0.59465 -0.002,0.35717 0.38389,0.38988 2.97493,0.25194 1.63773,-0.0872 4.93294,-0.13622 7.32267,-0.10898 z m 31.77148,-0.0494 c -0.85706,-0.20963 -2.42131,-0.36256 -3.04077,-0.2973 -0.14562,0.0153 -0.087,0.14451 0.13037,0.28706 0.21732,0.14253 1.16908,0.25402 2.11503,0.24776 1.5059,-0.01 1.60487,-0.0395 0.79537,-0.23752 z m 11.84026,-0.2412 c 0.14503,-0.18092 0.32786,-0.62619 0.40626,-0.98946 0.0785,-0.36328 0.58637,-1.89547 1.1288,-3.40487 1.06445,-2.96204 1.11749,-3.59156 0.3031,-3.59707 -0.45814,-0.003 -0.54883,0.23377 -0.70736,1.84735 -0.19427,1.97793 -1.12381,5.01459 -1.74408,5.6977 -0.20735,0.22835 -0.37751,0.49509 -0.37817,0.59278 -0.002,0.30481 0.71455,0.19898 0.99145,-0.14643 z m 17.63981,0.18503 c 0.54068,0.005 -0.16829,-0.33276 -2.64772,-1.26013 -2.90586,-1.08688 -5.59804,-1.42628 -7.36323,-0.92829 -1.10677,0.31223 -4.9153,2.03874 -4.91659,2.22881 -4e-4,0.0595 3.30356,0.0742 7.34213,0.0328 4.03858,-0.0414 7.452,-0.0744 7.58541,-0.0732 z M 41.011744,137.10705 c 0.392767,-0.56483 0.831573,-1.18368 0.97512,-1.37522 0.174777,-0.2332 0.157661,-0.453 -0.05181,-0.66532 -0.241891,-0.2452 -0.379691,-0.1428 -0.607803,0.45163 -0.162246,0.42279 -0.751411,1.24188 -1.309258,1.82021 -0.891807,0.92454 -1.910924,2.55184 -1.881632,3.00455 0.01538,0.23752 2.060543,-2.06404 2.875388,-3.23585 z m -47.5321261,0.51181 c 0.2496165,-1.19888 0.5393432,-2.53641 0.6438384,-2.97227 0.3796066,-1.58339 -0.3401155,-0.25673 -1.1831611,2.18092 -0.9862778,2.85178 -1.0007068,2.9638 -0.3822866,2.96798 0.3740224,0.003 0.5587196,-0.43368 0.9216093,-2.17663 z m 244.3288621,3.61015 c 0.65968,-0.42034 2.24042,-4.64032 2.31869,-6.19006 l 0.0552,-1.09277 -1.63792,-0.31065 c -0.90086,-0.17087 -1.93621,-0.509 -2.30076,-0.7514 -0.36458,-0.24242 -0.7744,-0.4415 -0.91074,-0.44242 -0.13637,-9.3e-4 -0.33891,0.74186 -0.4501,1.65064 -0.11122,0.90877 -0.32167,1.94917 -0.46769,2.31199 -0.14599,0.36282 -0.44033,1.36869 -0.65402,2.23526 -0.21373,0.86658 -0.53346,1.66773 -0.71051,1.78036 -0.17706,0.11261 -1.03579,0.12499 -1.90827,0.0275 -1.75721,-0.19638 -1.82725,-0.0552 -0.25739,0.51882 1.06723,0.39022 6.40554,0.59281 6.92354,0.26274 z m 11.75682,-0.24368 c 0.4999,-0.20033 0.99336,-0.19764 1.71977,0.01 0.56033,0.15967 2.08697,0.2982 3.39257,0.30784 l 2.37383,0.0181 -0.52762,-0.53483 c -1.49177,-1.5121 -6.60923,-2.39826 -8.94289,-1.54861 -0.59781,0.21766 -2.01582,0.57658 -3.1511,0.79759 -1.93659,0.377 -3.10366,0.82989 -3.1062,1.20537 -0.002,0.27596 7.49575,0.0447 8.24164,-0.25427 z m -309.199074,-2.6674 c 1.651787,-7.03131 1.615886,-7.77695 -0.136069,-2.82597 -0.573191,1.61982 -0.977777,3.05091 -0.899075,3.1802 0.273655,0.44956 0.89638,0.23646 1.035144,-0.35423 z m 50.2580062,-0.49091 c 0.3521959,-0.78203 0.7285743,-1.8213 0.8363947,-2.30949 0.3878584,-1.75616 2.6546345,-6.79983 3.2650985,-7.26499 0.4676937,-0.35637 1.1480109,-0.17443 1.14476,0.30615 -0.00177,0.26236 1.035146,0.94722 1.4382824,0.94995 0.05327,3.6e-4 -0.010564,-0.3275 -0.1418446,-0.72858 -0.1312856,-0.40107 -0.4670045,-1.48298 -0.746045,-2.40423 -0.6633493,-2.19003 -2.1550436,-3.98772 -3.3443544,-4.03035 -0.389638,-0.0139 -2.1343883,2.27352 -3.4560628,4.53116 -1.428168,2.43954 -2.672618,4.27378 -3.183019,4.69158 -0.515558,0.42202 -1.451936,2.43273 -1.456638,3.12788 -0.0017,0.25539 0.73552,1.27691 1.638328,2.27003 2.485055,2.73367 3.101958,2.86628 4.0051002,0.86089 z M 110.33896,136.75567 c 0.12,-2.18829 -0.32358,-5.73982 -0.98506,-7.88668 -0.25979,-0.84319 -0.40411,-1.70738 -0.32069,-1.92044 0.24404,-0.62332 1.06661,-0.4414 1.72436,0.38135 0.48196,0.60287 1.08046,0.88347 2.863,1.34231 1.23951,0.31907 2.82034,0.58395 3.51296,0.58863 l 1.25929,0.009 -0.0635,-2.03927 -0.0635,-2.03926 -1.31973,-0.47427 c -0.72587,-0.26085 -1.63453,-0.65924 -2.01926,-0.88531 -0.95375,-0.56042 -1.40925,-0.52034 -1.87075,0.16459 -0.37074,0.55024 -0.45282,0.562 -1.55516,0.22265 -1.58106,-0.48671 -5.80779,-0.85424 -6.38722,-0.55539 -0.90617,0.46737 -2.57759,4.51232 -2.61411,6.32635 -0.008,0.38237 -0.19548,1.12143 -0.41729,1.64236 -0.46534,1.09289 -0.5986,5.85862 -0.17132,6.1267 0.7207,0.45219 3.82058,0.91221 5.94487,0.88223 l 2.38153,-0.0336 z M -2.0354844,131.91221 c 0.00218,-0.32152 -0.9717118,-0.63571 -1.3177033,-0.42509 -0.5258512,0.3201 -0.2585473,0.66119 0.5223023,0.66648 0.4365525,0.003 0.794483,-0.10567 0.795401,-0.24139 z M 261.36924,130.48093 c 0.48163,-1.39033 1.30722,-3.46839 1.83462,-4.61791 0.5274,-1.14953 1.09504,-2.44632 1.2614,-2.88176 0.16635,-0.43544 0.79053,-1.53236 1.38706,-2.43757 1.05011,-1.59359 1.07093,-1.66697 0.65532,-2.31073 -0.41117,-0.63688 -0.94465,-0.89654 -0.9476,-0.46122 -0.004,0.56891 -2.13491,2.73683 -3.72991,3.79442 -0.89979,0.59661 -0.93268,0.67689 -1.00502,2.45178 -0.10301,2.52892 -1.2962,5.94187 -2.83926,8.1215 -0.45513,0.6429 0.13451,1.0132 1.48315,0.93145 l 1.02452,-0.0621 z M 18.225403,130.37776 c 0.104263,-0.47226 0.612783,-1.60863 1.130047,-2.5253 1.045738,-1.85318 0.948662,-2.40105 -0.35043,-1.97777 -0.820917,0.26748 -0.99313,0.77514 -1.25721,3.70607 -0.156741,1.73962 0.154726,2.25939 0.477593,0.797 z m 175.206527,-1.6282 c 0.65514,-1.39507 1.42363,-2.98142 1.70775,-3.52521 0.28408,-0.5438 0.40405,-0.98948 0.26653,-0.99041 -0.28337,-0.002 -1.20051,0.89988 -1.7809,1.75113 -0.21372,0.31345 -0.80163,0.7625 -1.30646,0.99789 l -0.91791,0.42799 0.10514,2.03677 c 0.0578,1.12021 0.11286,2.0736 0.12238,2.11863 0.0888,0.42064 0.81792,-0.71818 1.80347,-2.81679 z m -242.685715,0.19235 c -0.760326,-0.3142 -1.260905,-1.00256 -1.074776,-1.47797 0.245407,-0.62682 0.93684,-0.76165 1.457309,-0.28419 0.664935,0.60999 2.060914,0.57142 2.407904,-0.0665 0.152541,-0.28045 0.281427,-1.11304 0.286413,-1.85019 l 0.0091,-1.34028 -1.11097,-0.008 c -0.994474,-0.007 -1.245126,0.13345 -2.390348,1.33685 -0.995161,1.04571 -1.280691,1.53859 -1.285291,2.21867 -0.0096,1.42452 0.207249,1.71458 1.273587,1.70324 0.773312,-0.008 0.857785,-0.0541 0.427106,-0.2321 z m 7.036658,-2.34353 c 0.207098,-1.37852 0.959326,-1.38162 1.319928,-0.005 l 0.283535,1.08207 2.172266,-0.14898 c 1.194747,-0.0819 2.615873,-0.25688 3.158062,-0.38878 1.161721,-0.2826 1.356022,-0.77902 1.818807,-4.64692 0.160726,-1.34333 0.424906,-3.35123 0.587065,-4.46199 0.408634,-2.79907 0.298308,-2.85112 -2.351771,-1.10938 -0.602691,0.39612 -1.222626,0.71936 -1.377628,0.71831 -0.180719,-0.001 -0.219506,0.34312 -0.108122,0.95986 0.09553,0.52898 0.01849,1.80841 -0.171218,2.84318 -0.733038,3.99841 -0.922983,4.33629 -1.922364,3.41948 -0.366137,-0.33588 -1.096655,-0.4564 -3.112091,-0.51346 -2.927447,-0.0828 -2.990486,-0.0459 -2.769086,1.62172 0.219827,1.65583 0.264029,1.70956 1.339237,1.62794 0.913958,-0.0693 1.006111,-0.15048 1.13338,-0.99763 z m 225.951577,1.14796 c 4.2e-4,-0.0621 -0.62233,-0.40943 -1.38387,-0.77186 -0.76156,-0.36243 -2.02789,-1.15365 -2.81408,-1.75827 -0.78619,-0.60461 -1.55118,-1.10011 -1.69995,-1.10112 -0.61139,-0.004 1.91819,2.21038 3.36439,2.94531 1.37964,0.70112 2.5313,1.01292 2.53351,0.68594 z M 44.903795,122.8378 c 0.709013,-0.80381 0.725869,-0.80768 3.434987,-0.78936 l 2.722479,0.0184 0.244944,-1.00496 c 0.134721,-0.55273 0.191951,-1.05867 0.127179,-1.12433 -0.06477,-0.0656 -2.309751,-0.19211 -4.988843,-0.28101 -2.67909,-0.0889 -5.330153,-0.17719 -5.891252,-0.19618 -0.561098,-0.019 -1.137139,0.0808 -1.280091,0.22189 -0.30674,0.30262 -0.786035,3.666 -0.594868,4.17442 0.07257,0.193 0.686443,0.42669 1.364165,0.51931 0.677725,0.0926 1.648277,0.26858 2.156783,0.39103 0.810923,0.19527 0.990154,0.14003 1.458282,-0.44943 0.293549,-0.36962 0.854355,-1.03554 1.246235,-1.4798 z m 199.709865,2.45662 c 0.20019,-0.61712 0.70395,-1.86688 1.11951,-2.77724 0.41556,-0.91036 0.75597,-1.72018 0.75651,-1.7996 0.003,-0.40753 2.72607,-3.83744 4.00194,-5.04029 1.73896,-1.63943 1.40692,-1.77505 -0.8679,-0.35449 -2.83605,1.77107 -4.44185,3.15708 -4.44646,3.8379 -0.002,0.33882 0.10922,0.68719 0.2478,0.77414 0.45104,0.28297 -0.0199,0.8966 -0.81837,1.06631 -0.4288,0.0911 -1.58074,0.23946 -2.55986,0.3296 l -1.78026,0.16387 0.0764,1.85264 c 0.042,1.01895 0.18988,1.97248 0.32866,2.11894 0.24108,0.25446 2.27293,0.84386 3.15767,0.91599 0.27421,0.0224 0.54707,-0.35604 0.78441,-1.08777 z m -68.90593,-3.32937 c 0.21845,-0.96342 0.0354,-1.2396 -0.52029,-0.78477 -0.58971,0.4827 -1.59677,-0.26707 -1.98801,-1.48011 -0.26224,-0.81299 -0.24578,-1.02928 0.1047,-1.37503 0.33751,-0.33299 0.4908,-0.34725 0.81354,-0.0757 0.2187,0.18402 0.46828,0.56245 0.5546,0.84094 0.28318,0.91366 0.91442,0.59988 0.92157,-0.45812 0.004,-0.63819 0.38387,-1.64619 1.11048,-2.94914 1.04197,-1.86845 1.07715,-1.9994 0.6267,-2.33349 -0.93382,-0.69257 -2.0247,-0.43997 -2.97497,0.68888 -1.20694,1.43371 -1.63248,2.55293 -1.70335,4.48015 -0.0603,1.63958 -0.0586,1.64364 1.22811,2.92174 0.70867,0.70394 1.36824,1.29253 1.46571,1.30799 0.0975,0.0155 0.26004,-0.33704 0.36122,-0.78334 z M 62.824681,120.01564 c 0.04844,-0.0398 -0.05216,-0.33865 -0.223567,-0.66419 -0.488909,-0.92858 -0.17182,-3.3083 0.540488,-4.05631 0.746784,-0.78423 0.531291,-0.90688 -1.26684,-0.72102 -1.12661,0.11644 -1.538597,0.2925 -1.945312,0.83135 -0.635789,0.84232 -0.959814,3.59334 -0.521326,4.42615 0.27524,0.52276 0.443711,0.56137 1.815935,0.41626 0.831903,-0.088 1.552182,-0.19249 1.600622,-0.23224 z m 121.221769,0.7221 c 0.002,-0.34111 -1.30483,-1.88126 -1.59832,-1.88325 -0.51177,-0.003 -0.21456,1.04492 0.44547,1.57135 0.74472,0.594 1.15019,0.70371 1.15285,0.3119 z M 50.367745,118.07728 c 0.845361,-0.2214 2.526392,-0.49162 3.735622,-0.6005 1.896398,-0.17074 2.30642,-0.29986 2.982985,-0.93933 0.936266,-0.88493 1.008858,-1.29239 0.191306,-1.07377 -0.328022,0.0877 -1.430653,0.27653 -2.45029,0.41959 -1.019637,0.14307 -2.450302,0.42132 -3.179255,0.61834 -0.728954,0.19703 -2.48797,0.6115 -3.908924,0.92105 -1.420955,0.30956 -2.584269,0.66846 -2.585142,0.79755 -0.0026,0.38697 3.563709,0.2892 5.213698,-0.14293 z M 170.71218,117.6506 c 0.27021,-1.89441 0.89145,-2.96866 2.74315,-4.74359 1.62363,-1.55632 2.15467,-1.75514 3.70668,-1.38781 0.74575,0.17651 0.88824,0.12286 1.09597,-0.41255 0.34294,-0.88395 3.4242,-4.93013 4.54914,-5.97378 2.11946,-1.96626 5.20123,-3.43584 8.78172,-4.18767 2.95686,-0.62087 2.89825,-0.59308 1.72536,-0.81808 -2.5615,-0.491395 -9.53658,0.78001 -13.87882,2.52979 -4.09886,1.65172 -8.49487,4.75828 -9.75744,6.89538 -1.30693,2.21218 -1.71324,3.32483 -1.72515,4.72426 -0.0178,2.04311 0.63693,4.185 1.37053,4.48623 1.03563,0.42527 1.18682,0.30421 1.38886,-1.11218 z m 64.54016,-4.90984 c -0.16698,-2.83528 0.0304,-2.61245 -2.59068,-2.9253 -1.23399,-0.14729 -1.45974,-0.0781 -3.0491,0.9352 -2.74271,1.74858 -5.62895,4.69696 -4.58502,4.68377 1.0256,-0.013 2.6297,-0.97878 4.10775,-2.47326 1.56037,-1.57772 2.60437,-2.14696 2.59944,-1.41732 -0.001,0.16149 -0.60169,0.94095 -1.33466,1.73213 -2.24319,2.42131 -1.54152,3.08104 0.92925,0.87372 1.5241,-1.36156 1.98515,-1.45315 1.97797,-0.39296 -0.002,0.33688 0.3131,1.18924 0.70085,1.89413 l 0.70497,1.28163 0.34431,-0.82775 c 0.24357,-0.58559 0.30061,-1.56978 0.19492,-3.36399 z m 19.73442,-0.89109 c 1.98931,-1.34867 6.13344,-2.56101 8.85757,-2.59123 l 2.24121,-0.0248 0.40877,-1.24486 c 0.50333,-1.53287 0.40191,-1.59036 -2.44841,-1.3879 -1.09076,0.0774 -2.87106,0.19363 -3.95621,0.25814 -1.08518,0.0645 -2.21451,0.28399 -2.50963,0.48775 -0.29515,0.20376 -0.80906,0.36862 -1.14207,0.36637 -0.65831,-0.004 -2.90212,0.9512 -3.146,1.33989 -0.16078,0.25626 0.11874,3.66683 0.3006,3.66806 0.0593,4e-4 0.6867,-0.39171 1.39417,-0.87135 z M 15.740699,110.15859 c 0.565037,-0.22955 1.528343,-0.63975 2.140677,-0.91158 0.612332,-0.27184 1.350955,-0.49264 1.641387,-0.49067 0.290429,0.002 0.592836,-0.0997 0.672011,-0.22587 0.07918,-0.1262 0.507958,-0.29968 0.952848,-0.38553 0.44489,-0.0859 1.461147,-0.34094 2.258351,-0.56686 1.335782,-0.37854 1.449875,-0.47236 1.454772,-1.19626 0.0029,-0.43202 0.24659,-1.25063 0.541484,-1.81914 0.294894,-0.5685 0.536585,-1.09494 0.537092,-1.16986 0.0015,-0.22383 -1.679568,0.14279 -2.252332,0.49119 -0.4835,0.2941 -1.382886,0.43947 -4.900262,0.79205 -1.944299,0.19489 -2.383616,0.34167 -2.386699,0.79744 -0.0026,0.39002 -0.971138,2.68177 -1.623834,3.84246 -0.253544,0.45088 -0.357897,1.25797 -0.162819,1.25929 0.05499,3.7e-4 0.562283,-0.18712 1.127324,-0.41666 z m 153.723221,-3.05556 c 1.57443,-1.5907 5.63095,-4.38631 7.74212,-5.33562 1.64796,-0.74102 1.63969,-1.05556 -0.0341,-1.29549 -0.58154,-0.0833 -1.46272,-0.23689 -1.95817,-0.34116 -0.70864,-0.149151 -0.87189,-0.11111 -0.76516,0.17827 0.64128,1.73834 0.49314,1.90226 -2.07957,2.30117 -0.85984,0.13333 -2.19452,0.48702 -2.96592,0.78598 -0.77142,0.29897 -1.63628,0.54199 -1.92192,0.54006 -0.28567,-0.002 -0.52017,0.11554 -0.52115,0.26106 -9.8e-4,0.14552 0.30368,0.26664 0.67703,0.26917 0.86125,0.006 1.69937,0.45514 1.6963,0.90938 -0.001,0.19256 -0.66014,0.78045 -1.46408,1.30644 -1.47728,0.96654 -1.73586,1.32455 -1.13514,1.57168 0.87619,0.36046 1.48996,0.10168 2.72978,-1.15094 z m 23.14302,0.57181 c 0.9109,-0.56645 1.38494,-1.17796 0.91563,-1.18114 -0.43274,-0.003 -1.73548,0.85979 -1.9816,1.31228 -0.3712,0.68246 -0.21063,0.66271 1.06597,-0.13114 z m 4.53947,-8.283151 c 0.39093,-0.718692 0.3479,-1.073401 -0.13056,-1.076638 -0.23509,-0.0016 -0.63987,-0.528 -0.94336,-1.226849 -0.72886,-1.678349 -0.49517,-3.212173 0.59992,-3.937272 1.07413,-0.71124 1.12775,-0.987964 0.38835,-2.004479 -0.99012,-1.361198 -0.78238,-2.590631 0.64188,-3.799055 l 0.67421,-0.572042 -1.32717,-0.829037 c -1.87293,-1.169976 -2.76295,-2.446305 -2.88718,-4.140344 -0.11572,-1.577809 0.61307,-3.549915 1.74427,-4.720129 l 0.6877,-0.711385 -1.28696,-1.221023 -1.28693,-1.221023 -1.69218,0.124486 c -0.9307,0.06851 -1.76279,0.19413 -1.84907,0.279239 -0.0863,0.08512 0.0468,0.515288 0.2958,0.955942 0.50266,0.889721 0.59511,2.485073 0.15942,2.750302 -0.15469,0.09416 -0.85875,-0.439379 -1.56463,-1.185621 -1.38855,-1.467996 -1.59482,-1.555834 -2.30494,-0.981564 -0.25775,0.208431 -1.2156,0.925778 -2.12858,1.594118 -1.46961,1.075784 -1.62768,1.276529 -1.37823,1.750287 0.24158,0.458855 0.21266,0.51311 -0.20295,0.380576 -0.62597,-0.199629 -0.91039,0.0092 -1.65429,1.214968 -0.831,1.346929 -1.6232,1.485684 -4.46748,0.782508 -0.90815,-0.224518 -0.73721,0.476954 0.27891,1.144523 l 0.87155,0.572618 -0.32236,2.286152 c -0.17732,1.257389 -0.24759,2.333099 -0.15617,2.390458 0.0914,0.05732 1.41258,-0.06835 2.9359,-0.279327 1.52334,-0.21099 4.45384,-0.373531 6.51224,-0.361217 l 3.74252,0.02232 0.14657,-0.699834 c 0.19282,-0.920627 1.22445,-2.014744 1.5697,-1.66479 0.41468,0.420314 0.39901,5.835102 -0.018,6.176339 -0.48727,0.398844 -1.05858,-0.135133 -1.27735,-1.193817 -0.31531,-1.525888 -0.40699,-1.557459 -4.059,-1.397949 -7.52731,0.32879 -9.81259,0.538567 -9.81504,0.900989 -8.6e-4,0.127697 0.23789,1.37467 0.53055,2.771052 0.36986,1.764772 0.79623,2.956203 1.39838,3.907538 1.90542,3.010508 2.66054,3.356604 6.26845,2.872928 4.11797,-0.552057 7.43398,-0.402113 9.69945,0.4386 1.30013,0.482476 1.29352,0.482851 1.60653,-0.09262 z M 184.72825,81.411607 c -0.48979,-0.496474 -0.50954,-0.760584 -0.11157,-1.492279 0.82964,-1.525303 2.79637,-2.585353 3.29053,-1.773562 0.21329,0.350411 -1.98308,3.68972 -2.42487,3.686732 -0.18762,-0.0013 -0.52697,-0.190669 -0.75409,-0.420891 z m 22.87999,-6.296736 c 0.52713,-0.135347 1.29116,-0.312263 1.69785,-0.393154 1.27037,-0.252683 0.53107,-0.733324 -0.82874,-0.538798 -1.14462,0.163731 -2.68942,0.764515 -2.69132,1.046689 -0.001,0.200755 0.78666,0.151144 1.82221,-0.114737 z M -69.977027,138.69162 c -0.207212,-0.84989 0.2193,-1.35106 0.675503,-0.79374 0.341144,0.41675 0.148577,1.48016 -0.26753,1.47734 -0.132937,-9e-4 -0.316526,-0.30852 -0.407973,-0.6836 z M 264.99782,135.9313 c -0.60219,-0.61039 -0.66198,-0.84707 -0.55238,-2.1866 0.12923,-1.57911 1.53648,-4.89395 2.18046,-5.13608 0.19043,-0.0716 0.87375,0.1217 1.51846,0.42957 0.68377,0.3265 1.91276,0.61101 2.94939,0.68276 1.77411,0.12279 2.55364,0.53494 2.1696,1.14706 -0.25969,0.4139 -4.44671,0.0498 -5.44149,-0.47318 -0.98142,-0.51596 -0.96502,-0.52382 -1.26163,0.60442 -0.74651,2.83961 -0.61198,4.75633 0.22576,3.21618 0.24521,-0.45083 0.45637,-0.52081 1.13634,-0.37665 2.59513,0.55023 2.41123,0.6033 3.06297,-0.88389 0.48716,-1.11171 0.70094,-1.34359 1.17328,-1.2728 1.01291,0.1518 0.90695,2.1446 -0.18557,3.49066 l -0.61621,0.75921 -1.78249,-0.32284 c -1.73704,-0.31462 -1.80299,-0.30585 -2.58554,0.34364 -0.99864,0.82881 -1.15376,0.82714 -1.99095,-0.0215 z M 69.792451,130.17497 c -0.07322,-0.19474 0.295896,-1.14973 0.820263,-2.1222 0.524367,-0.97247 1.201169,-2.68425 1.504003,-3.80394 0.912266,-3.37299 2.348984,-6.06712 3.798098,-7.12219 0.258773,-0.18841 0.471646,-0.5128 0.473054,-0.72087 0.0014,-0.20808 0.393789,-0.53868 0.871961,-0.73469 1.030215,-0.42228 3.450221,-2.73153 3.312037,-3.16046 -0.05663,-0.17578 -1.015006,-0.35996 -2.32345,-0.44653 -2.218087,-0.14677 -2.224312,-0.14921 -1.543758,-0.60514 0.802509,-0.53764 4.212878,-0.84662 5.40866,-0.49004 0.535064,0.15957 0.819511,0.43327 0.876412,0.84331 0.06679,0.48129 -0.657562,1.32239 -3.496176,4.05967 -1.969229,1.89893 -3.776692,3.80847 -4.016588,4.24342 -0.239894,0.43495 -0.788392,1.80049 -1.218878,3.03454 -1.466521,4.20395 -2.08571,5.55847 -2.958023,6.47084 -0.93732,0.98037 -1.297605,1.11282 -1.507615,0.55428 z m -70.33886889,-1.24714 c -0.054897,-0.18228 -0.15598918,-1.01651 -0.2246482,-1.85385 -0.13106844,-1.59839 0.26441973,-2.43951 1.00981272,-2.14768 0.6654843,0.26055 0.93295567,3.43617 0.338792,4.02236 -0.41586814,0.41028 -0.99736805,0.3995 -1.12395672,-0.0208 z M 107.79253,120.21458 c -0.88249,-0.70388 -1.61589,-2.72927 -1.41599,-3.91048 0.29601,-1.7492 0.99026,-2.39483 3.03866,-2.82585 0.75551,-0.15897 0.86068,-0.11372 0.85742,0.36897 -0.002,0.3026 -0.12819,0.54933 -0.28033,0.5483 -0.15212,-0.001 -0.57081,0.2884 -0.93041,0.64317 -0.8769,0.8651 -0.87454,2.24735 0.006,3.77422 0.53729,0.93119 0.6089,1.24411 0.35402,1.54703 -0.43112,0.51238 -0.85227,0.47482 -1.62981,-0.14536 z m 10.42621,-7.61553 c -0.67862,-0.68787 -0.65947,-1.07354 0.12927,-2.60428 0.83137,-1.61348 1.35052,-2.06415 1.87218,-1.62523 0.46523,0.39146 0.93662,0.15227 0.94088,-0.4774 0.004,-0.63255 1.21101,-2.19539 2.01513,-2.6098 0.55359,-0.2853 0.68207,-0.27874 0.80231,0.0411 0.19866,0.52836 -0.35486,2.40601 -1.15064,3.90315 -0.60769,1.14328 -0.723,1.23201 -1.30668,1.00557 -0.56488,-0.21916 -0.71413,-0.13292 -1.26898,0.73329 -0.34584,0.53991 -0.71556,1.24897 -0.8216,1.57568 -0.23776,0.73254 -0.53243,0.74664 -1.21187,0.0579 z m -8.77226,-1.57429 c -1.15697,-1.34393 -1.29746,-3.02307 -0.41959,-5.01454 0.48086,-1.09083 0.51777,-1.40199 0.25557,-2.15481 -0.27675,-0.79463 -0.23706,-0.97852 0.40962,-1.89835 1.6653,-2.368643 4.09857,-3.915039 7.28178,-4.627743 0.96124,-0.215213 1.90728,-0.437948 2.10231,-0.49495 0.26388,-0.07712 0.30829,-0.391474 0.17361,-1.228794 -0.35888,-2.231129 -0.42693,-2.300801 -2.09072,-2.140451 -1.36703,0.131756 -1.54119,0.08458 -2.25817,-0.611699 -1.32272,-1.284517 -1.10375,-1.862999 1.70952,-4.51631 1.36222,-1.284775 2.56026,-2.469008 2.66229,-2.631632 0.10204,-0.162623 0.0103,-0.636684 -0.20321,-1.053468 -0.53218,-1.037444 -0.49352,-1.404611 0.30502,-2.896553 0.78809,-1.472453 2.3068,-3.130588 3.37023,-3.679637 0.66432,-0.342984 0.70883,-0.335543 0.54805,0.09161 -0.0962,0.255735 -0.45021,0.826424 -0.78656,1.268189 -0.98234,1.290214 -2.00984,3.817972 -1.97052,4.847651 0.0973,2.546306 0.2771,2.247606 -3.32079,5.515843 -1.58134,1.436437 -1.55978,2.034516 0.071,1.969146 1.3556,-0.05433 2.0532,-0.526154 1.14058,-0.771423 -0.72506,-0.194859 -0.75213,-0.520169 -0.0731,-0.877724 0.72717,-0.38286 1.52538,-0.329139 1.69196,0.113898 0.0834,0.221809 0.35439,0.323264 0.65755,0.246173 1.42604,-0.362632 6.88802,3.116684 6.89097,4.389594 0.001,0.396218 -0.15597,0.594268 -0.4691,0.59215 -0.46274,-0.0031 -0.71644,-0.1676 -3.46103,-2.243843 -1.34872,-1.020297 -3.09257,-2.033916 -3.50396,-2.036699 -0.33613,-0.0023 -0.25013,1.491452 0.14827,2.575392 0.20217,0.55003 0.43046,1.298142 0.50733,1.66247 l 0.13977,0.662421 3.57659,0.05189 c 3.26435,0.04728 3.59048,0.0091 3.73564,-0.437771 0.19426,-0.597989 1.06567,-0.641116 1.28286,-0.06352 0.2033,0.540718 0.193,2.064583 -0.0176,2.602501 -0.23468,0.599396 -0.80653,0.512216 -1.82927,-0.27886 -0.82917,-0.641364 -1.10816,-0.695572 -3.87994,-0.753863 l -2.98653,-0.0628 0.0773,0.860442 c 0.0848,0.944786 -0.42441,1.174286 -1.01222,0.456184 -0.17968,-0.219501 -0.6085,-0.400995 -0.95295,-0.403325 -0.94627,-0.0064 -4.08433,1.284541 -5.19808,2.138381 -1.17725,0.90254 -2.74266,2.79168 -2.50928,3.02823 0.0913,0.0925 0.62912,-0.0879 1.19514,-0.401 2.11756,-1.17136 2.48756,-0.54921 0.65258,1.09732 -2.09955,1.88393 -2.35263,2.39022 -2.51906,5.03935 -0.15271,2.43072 -0.40841,2.90192 -1.12383,2.0709 z m -142.799807,-3.94793 c -0.200569,-0.76546 -0.195132,-1.21061 0.01966,-1.60543 0.2777,-0.51055 0.338369,-0.51886 0.927516,-0.12711 0.802801,0.53381 0.86311,0.53091 2.661811,-0.12824 1.820597,-0.66717 3.301835,-1.93199 3.971958,-3.39162 0.672458,-1.46473 0.376643,-1.62325 -2.670855,-1.43131 -3.508196,0.22096 -3.675979,-0.544279 -0.307707,-1.403398 2.244487,-0.57249 4.109221,-0.27028 4.673563,0.757414 0.330594,0.602024 0.316473,0.860024 -0.121508,2.220264 -0.436758,1.35643 -0.711979,1.71364 -2.319108,3.00992 -1.729838,1.39525 -3.645802,2.31887 -4.886643,2.35567 -0.309671,0.009 -0.712463,0.19428 -0.895094,0.41133 -0.521659,0.61998 -0.754911,0.4722 -1.053546,-0.66749 z m 2.231662,-4.37794 c -0.243684,-0.6481 0.614344,-1.1603 1.928843,-1.15141 0.793685,0.005 1.159294,0.13405 1.278007,0.44978 0.240453,0.63951 -0.07735,0.8329 -1.644493,1.00073 -1.157637,0.12396 -1.422341,0.0733 -1.562357,-0.2991 z m -11.788249,-4.066482 c -0.278981,-0.282784 -0.19392,-1.590078 0.151987,-2.335845 0.217613,-0.469169 0.488873,-0.658159 0.863987,-0.60193 0.473006,0.0709 0.535349,0.240607 0.462046,1.257744 -0.110152,1.52846 -0.825435,2.341503 -1.47802,1.680031 z m 189.228034,1.022567 c -2.62395,-0.817938 -3.49849,-4.027167 -1.98339,-7.278303 0.64912,-1.392871 1.58273,-2.48086 3.76468,-4.387165 0.6612,-0.57767 0.98553,-1.086498 0.98867,-1.551087 l 0.005,-0.691415 -2.31642,0.187786 c -5.40162,0.437881 -9.23404,-0.173747 -10.75618,-1.716618 -0.70608,-0.715693 -0.75953,-1.307858 -0.10982,-1.216481 0.48649,0.06839 2.87402,0.905612 3.50778,1.230016 0.27504,0.140784 2.14531,0.332239 4.15615,0.425474 l 3.65609,0.169514 0.25635,-0.660791 c 0.44837,-1.155703 -0.0697,-3.865229 -1.11506,-5.832226 -0.5219,-0.981982 -1.0612,-1.85588 -1.19844,-1.941991 -0.553,-0.346958 -0.2298,-0.918965 0.51637,-0.913918 0.56506,0.0038 0.99783,0.287716 1.68241,1.103686 1.99884,2.382405 2.47155,4.316237 1.91899,7.85057 -0.19972,1.277508 -0.17526,1.387906 0.30819,1.391177 0.65063,0.0044 1.03156,0.650432 0.86856,1.472959 -0.0678,0.342119 -0.92235,1.322581 -1.89898,2.178814 -2.36436,2.072854 -3.34723,3.963899 -3.16167,6.082983 0.11102,1.26785 0.25522,1.589142 0.9947,2.216289 1.22183,1.036228 2.18532,0.976065 3.28184,-0.204905 0.89182,-0.96051 1.45265,-0.998707 1.44656,-0.09854 -0.005,0.719654 -1.2198,2.027886 -2.06483,2.223414 -0.40126,0.09289 -0.90841,0.20775 -1.12701,0.255352 -0.21862,0.04762 -0.9477,-0.08501 -1.62021,-0.294596 z M 2.8911307,97.994117 C 2.7280556,97.542844 3.4578706,92.818113 3.8314729,91.906439 3.9969264,91.502699 4.0690362,91.108248 3.9917214,91.029883 3.9144041,90.951458 3.7100302,91.305454 3.5375541,91.816419 3.1898776,92.84642 2.3911858,93.257437 1.7635459,92.72933 1.2286221,92.279241 1.4807098,90.69978 2.2985479,89.377282 2.6299811,88.841322 3.0780364,88.061044 3.2942243,87.643317 3.5104151,87.22558 4.1543328,86.360406 4.7251566,85.720693 L 5.763018,84.557576 5.1864778,84.013114 C 4.2755475,83.152873 4.0587486,82.287226 4.529823,81.391182 c 0.5261779,-1.000863 1.5437962,-1.256606 2.5642671,-0.644449 0.4263834,0.25577 0.8052733,0.423877 0.8419735,0.373574 0.036704,-0.05035 0.271622,-0.831542 0.5220413,-1.736068 0.9755482,-3.523682 4.6856701,-7.684481 6.3471401,-7.118139 0.188008,0.06407 -0.223962,0.700591 -1.002034,1.548167 -1.513627,1.648849 -3.08461,4.286613 -4.1458751,6.961165 -0.827863,2.086338 -1.1627767,2.269647 -2.6915688,1.473267 -1.6709314,-0.870432 -1.008541,0.52183 0.8847567,1.859658 l 0.621084,0.438861 -0.7114163,1.41265 C 6.8415192,87.784066 5.1728512,93.173351 4.7895329,95.554183 4.625231,96.574665 4.3790268,97.617223 4.2424095,97.870965 3.9560181,98.40289 3.0680855,98.483816 2.8911307,97.994117 Z M 268.75756,98.843569 c -0.0843,-0.138443 -0.20762,-0.70068 -0.2741,-1.249423 -0.0665,-0.548732 -0.42986,-1.45004 -0.80747,-2.002897 -1.14592,-1.67769 -0.2362,-2.167808 1.2206,-0.657589 0.77482,0.80325 0.98611,0.887061 1.95019,0.7736 1.05885,-0.124601 2.48891,-0.812763 3.3969,-1.63461 0.82565,-0.747332 1.30222,-2.232112 1.00044,-3.116994 -0.30098,-0.882546 -0.76207,-1.08792 -2.87578,-1.280822 -1.57123,-0.143392 -2.54933,-0.754162 -1.87011,-1.167777 0.60321,-0.367308 2.43224,-0.54713 3.8615,-0.379658 1.8635,0.21836 2.76989,1.227195 2.75743,3.069092 -0.0178,2.62406 -1.01189,3.828143 -4.54283,5.502187 -1.40828,0.667669 -2.36249,1.293369 -2.52481,1.655589 -0.27785,0.620035 -1.03729,0.907664 -1.29196,0.489302 z M 24.732097,96.584305 c -0.187814,-0.190375 -0.238203,-0.785669 -0.135728,-1.603495 0.136505,-1.089441 0.06538,-1.43462 -0.437869,-2.12502 -0.446722,-0.612856 -0.53204,-0.931961 -0.332598,-1.244009 0.476793,-0.745991 1.007578,-0.586747 1.668345,0.500547 0.355563,0.585079 0.765526,1.066623 0.911026,1.070097 0.145504,0.003 0.862592,-0.267261 1.593533,-0.601644 2.970774,-1.359046 4.434842,-4.612197 2.715803,-6.034498 -0.392004,-0.324339 -1.042434,-0.465942 -2.195029,-0.477879 -1.853036,-0.01954 -2.320527,-0.389425 -1.409944,-1.116633 0.918169,-0.733256 3.925548,-0.659381 4.903257,0.12047 2.870418,2.289479 1.051893,7.552589 -3.213733,9.301084 -0.557777,0.228633 -1.247295,0.414123 -1.532265,0.412195 -0.358812,-0.0024 -0.648153,0.321043 -0.941004,1.051999 -0.427504,1.067053 -1.009029,1.339545 -1.593794,0.746816 z M 133.5929,92.663767 c -0.31107,-0.315321 -0.13541,-2.39202 0.22747,-2.689052 0.29178,-0.238842 0.51257,-0.129116 1.05481,0.524217 0.37718,0.454461 0.68191,0.965954 0.67717,1.136666 -0.0104,0.361688 -1.72775,1.263022 -1.95945,1.028169 z m -2.8826,-1.222136 c -0.45505,-0.975931 -0.26258,-2.371971 0.48125,-3.490605 0.76021,-1.143284 2.29331,-1.573263 1.58177,-0.44363 -0.15558,0.246993 -0.44843,1.430249 -0.65077,2.629458 -0.40192,2.382005 -0.757,2.710071 -1.41225,1.304777 z m 142.69187,1.341827 c 0.003,-0.465619 -0.99165,-0.610372 -2.13526,-0.31071 -0.75978,0.199085 -1.19191,0.203982 -1.37776,0.01558 -0.59645,-0.604558 0.64501,-1.293466 3.06231,-1.699384 0.91989,-0.154461 1.57543,0.473467 1.46131,1.399767 -0.08,0.649583 -1.01469,1.199613 -1.0106,0.594717 z M 138.85154,91.485052 c -0.10201,-0.266506 -0.46617,-0.593457 -0.80923,-0.726551 -1.04297,-0.404624 -0.72801,-0.965976 0.80641,-1.437228 1.78072,-0.546897 2.39661,-0.443329 2.48019,0.417086 0.0902,0.928702 -0.34765,1.552444 -0.78128,1.112921 -0.26228,-0.26586 -0.44671,-0.187046 -0.91936,0.39287 -0.53538,0.656914 -0.60878,0.679668 -0.77673,0.240902 z M 27.641218,89.523722 c -2.524723,-0.298475 -1.855268,-1.429033 0.859764,-1.451938 l 1.643208,-0.01388 -0.0054,0.793732 c -0.0061,0.899899 -0.17835,0.946255 -2.497603,0.672061 z m -47.231369,-0.677715 c -0.05481,-0.182275 -0.164193,-0.638865 -0.243078,-1.014647 -0.08018,-0.381912 -0.437029,-0.819405 -0.809156,-0.992007 -0.380263,-0.176376 -0.664235,-0.529855 -0.662243,-0.824338 0.0028,-0.416141 0.152972,-0.495617 0.778622,-0.412133 0.426324,0.05689 1.280153,0.351658 1.897393,0.65504 0.617243,0.303382 1.508853,0.554229 1.981358,0.557425 1.128044,0.0076 2.213551,0.441514 2.210561,0.883584 -0.0016,0.243264 -0.391922,0.351916 -1.259171,0.35055 -0.777937,-0.0013 -1.659999,0.213816 -2.315057,0.564403 -1.223023,0.654552 -1.44251,0.686818 -1.579229,0.232123 z m -21.471067,-0.656773 c -0.248746,-0.408632 1.672977,-2.096061 3.179398,-2.791767 2.926035,-1.351308 4.833225,-1.618213 4.632641,-0.648328 -0.07564,0.365737 -3.517862,2.0349 -5.395188,2.616185 -0.29166,0.09033 -0.815732,0.384021 -1.164603,0.652687 -0.738931,0.569055 -0.989242,0.603282 -1.252248,0.171223 z m 169.878398,0.553409 c -0.0904,-0.500453 -0.0228,-1.329335 0.15026,-1.841956 0.40164,-1.18986 2.39934,-3.389807 3.57665,-3.938756 1.85835,-0.866489 1.97297,-0.381163 0.30436,1.288678 -1.01214,1.012877 -2.40163,3.360202 -2.92734,4.945292 -0.26413,0.796351 -0.92743,0.524008 -1.10393,-0.453258 z M -24.707241,87.210996 c -0.143406,-0.175804 -0.298628,-0.676776 -0.344932,-1.113259 -0.07966,-0.750906 -0.174138,-0.810266 -1.755254,-1.102938 -0.919084,-0.170111 -1.799729,-0.439724 -1.956991,-0.599132 -0.206052,-0.208858 -0.536739,-0.07263 -1.183689,0.487725 -0.493767,0.427649 -0.993563,0.776897 -1.110659,0.776104 -0.117097,-7.92e-4 -0.350533,0.295296 -0.518752,0.657966 -0.336636,0.72579 -1.377277,0.914845 -1.372776,0.24939 0.0015,-0.221525 0.469018,-0.902988 1.038933,-1.514357 0.569915,-0.611369 1.224504,-1.527042 1.454642,-2.034817 1.546201,-3.411549 7.620926,-5.985736 12.164791,-5.154881 0.91888,0.16802 1.848143,0.475263 2.065026,0.682755 0.341081,0.326314 0.07293,0.351051 -1.98566,0.183132 -2.071499,-0.168956 -2.603424,-0.118613 -4.103763,0.38843 -0.948074,0.320404 -2.02297,0.809504 -2.388657,1.086877 -1.046076,0.793472 -3.460819,3.127811 -3.462302,3.347026 -7.38e-4,0.109028 0.603021,0.144283 1.341681,0.07838 1.068838,-0.0954 1.48994,-0.0097 2.062646,0.419722 l 0.719624,0.53961 1.577257,-0.685737 c 1.40477,-0.610741 1.909999,-0.683616 4.619905,-0.666414 3.093153,0.01992 4.496434,0.23448 4.493366,0.68792 -9.77e-4,0.144507 -1.100888,0.229648 -2.581098,0.199815 -3.094856,-0.06234 -4.12796,0.262383 -6.698744,2.105756 -1.352042,0.969476 -1.880236,1.219229 -2.074595,0.980969 z m 89.686991,0.354952 c -0.181195,-0.18313 -0.6956,-0.335443 -1.143125,-0.338471 -1.118411,-0.0076 -1.628172,-0.831952 -0.840929,-1.359959 0.499485,-0.334999 0.530682,-0.485421 0.291609,-1.40606 -0.195155,-0.751517 -0.177962,-1.323284 0.06343,-2.109609 0.420115,-1.368469 1.027647,-1.408031 1.234145,-0.08035 0.218734,1.406361 0.898581,3.257622 1.50279,4.092199 0.283513,0.391606 0.442381,0.898703 0.353042,1.126893 -0.194648,0.497165 -1.002393,0.538832 -1.460964,0.07532 z m 57.27784,-2.078891 c -0.52471,-0.531851 -0.51725,-1.155995 0.0298,-2.496865 0.51306,-1.257509 1.31885,-1.813951 1.83601,-1.26784 0.27797,0.293537 0.27528,0.655337 -0.0144,1.987628 -0.19503,0.895821 -0.43534,1.757415 -0.53399,1.914661 -0.25676,0.409233 -0.83741,0.348574 -1.31704,-0.137582 z m 132.14132,0.322207 c -0.95716,-0.182679 -1.38956,-0.602373 -1.04391,-1.013184 0.74254,-0.882468 2.6423,-0.590641 2.63556,0.404857 -0.003,0.383491 -0.66119,0.955909 -0.88677,0.770739 -0.0242,-0.01996 -0.34154,-0.09311 -0.70488,-0.162412 z M 12.235693,81.764246 c -0.636168,-0.71259 -0.526877,-1.639592 0.354779,-3.009249 0.759035,-1.179163 1.604519,-1.725566 2.145178,-1.386341 0.381946,0.239639 0.301945,1.479526 -0.145144,2.24949 -0.210424,0.362385 -0.388863,0.962461 -0.396527,1.333498 -0.02612,1.263802 -1.142065,1.726874 -1.958286,0.812602 z m 242.714477,1.203082 c -0.17813,-0.2176 -0.25123,-0.664595 -0.16244,-0.993311 0.22705,-0.840574 2.27951,-2.875387 2.79722,-2.773153 0.6288,0.124157 0.67904,1.233012 0.0856,1.889053 -0.28159,0.311282 -0.66735,0.951877 -0.8573,1.423543 -0.38022,0.94428 -1.28181,1.163926 -1.86305,0.453868 z m 30.83416,-0.179431 c -0.62892,-0.704471 -3.88839,-2.684504 -4.42512,-2.688135 -0.23732,-0.0016 -0.49602,-0.108928 -0.57487,-0.238484 -0.20819,-0.341986 -1.76685,-0.610075 -4.77273,-0.820923 -2.30149,-0.161432 -2.65354,-0.249445 -2.73345,-0.683386 -0.11282,-0.612867 0.37958,-0.945814 1.39651,-0.944275 l 0.77165,0.0012 -1.1392,-1.06606 c -1.27569,-1.193797 -1.43737,-1.226661 -3.30282,-0.671497 -1.30889,0.389525 -1.33224,0.386307 -1.85041,-0.254883 -0.28863,-0.35716 -1.05953,-0.803425 -1.71312,-0.991711 -0.65359,-0.188275 -1.30077,-0.442069 -1.4382,-0.563991 -0.42108,-0.373597 -1.3006,-0.243543 -1.99965,0.29566 -0.36571,0.282103 -1.04217,0.513013 -1.50321,0.513134 -1.76223,4.8e-4 -2.15654,0.524454 -0.89407,1.188169 1.47982,0.777978 2.02699,3.058802 0.73169,3.05004 -0.29664,-0.002 -0.75657,-0.283645 -1.02203,-0.625858 -0.68966,-0.889086 -3.5411,-2.115642 -5.36362,-2.307174 -1.20097,-0.126217 -1.64134,-0.29527 -1.93265,-0.74194 -0.33988,-0.521181 -0.32116,-0.633847 0.1892,-1.137327 0.48367,-0.477189 0.74783,-0.530603 1.80785,-0.365619 0.68277,0.106271 1.65711,0.341477 2.16523,0.522678 0.79505,0.283525 1.05338,0.261962 1.85317,-0.154738 0.51113,-0.266298 1.40707,-0.701488 1.99096,-0.967094 0.5839,-0.265597 2.19334,-1.094259 3.57652,-1.84148 2.31659,-1.251418 3.84203,-1.740161 6.93715,-2.222625 1.12572,-0.17548 5.80394,0.338557 6.13498,0.674104 0.34412,0.348796 -0.0594,1.291728 -0.62831,1.468044 -0.27691,0.08583 -0.83568,-0.01565 -1.24173,-0.225425 -0.64714,-0.334385 -1.11426,-0.324805 -3.78415,0.07765 -2.83068,0.426682 -3.76598,0.606029 -4.76138,0.913003 -0.34359,0.105978 -0.34389,0.150127 -0.002,0.369291 0.21329,0.136916 0.61939,0.252316 0.90245,0.256461 0.28306,0.0039 0.84095,0.324416 1.23976,0.711712 0.68513,0.66533 0.78798,0.687366 1.86393,0.399318 3.48007,-0.931671 10.00484,-1.075709 11.51519,-0.254203 0.49566,0.269608 0.64896,0.308866 1.22137,0.312738 0.19537,0.0013 0.57196,0.411459 0.83685,0.911422 0.40157,0.757914 0.42363,0.977988 0.13262,1.323847 -0.47601,0.565703 -0.81267,0.523145 -2.23059,-0.281975 -1.24582,-0.707423 -1.88171,-0.769356 -7.27964,-0.709038 -1.11199,0.01238 -1.14562,0.03545 -0.731,0.499837 0.23905,0.267743 0.43245,0.804844 0.42982,1.193555 -0.004,0.623885 0.0981,0.70745 0.87264,0.712689 1.16038,0.0078 3.72139,0.496574 5.20138,0.992597 1.6425,0.550482 5.23754,2.783032 5.41776,3.364474 0.41994,1.354772 -0.91149,2.073432 -1.86423,1.006253 z M 127.12721,79.176873 c -3.36476,-2.504648 -4.79314,-2.9441 -6.94832,-2.13769 -1.35746,0.507929 -1.593,0.417344 -1.3511,-0.519591 0.22905,-0.887111 1.56639,-1.281614 3.92166,-1.156839 1.69767,0.08998 1.89954,0.04695 2.08477,-0.443498 0.36851,-0.97586 3.0105,-3.053616 5.04359,-3.966475 2.36121,-1.060192 5.95475,-1.632777 7.05231,-1.123701 0.80292,0.37241 0.69599,0.938849 -0.19303,1.022428 -2.95492,0.277798 -4.50952,0.702102 -6.59822,1.800848 -1.23697,0.650708 -2.69439,1.599431 -3.23872,2.108281 l -0.98966,0.925176 1.42921,1.369949 c 1.42414,1.365095 1.80972,2.338406 1.04089,2.627482 -0.20943,0.07878 -0.77345,-0.149126 -1.25338,-0.50637 z M 42.50507,77.809938 C 42.159297,77.436861 40.951503,76.684533 39.821087,76.138104 38.205838,75.35732 37.78139,75.035222 37.838668,74.63373 c 0.168658,-1.182276 2.396527,-0.92884 4.617214,0.525255 1.035925,0.678323 1.359313,1.352085 1.186887,2.472825 -0.159291,1.035366 -0.319911,1.06051 -1.137699,0.178128 z M 18.509908,76.691401 c -0.178979,-0.181415 -0.324337,-0.489375 -0.323018,-0.684341 0.0048,-0.707634 -1.027647,-2.382326 -2.04055,-3.309949 -0.985017,-0.902073 -3.507648,-2.083544 -4.481374,-2.098841 -0.249184,-0.0037 -0.62326,-0.116439 -0.831287,-0.250049 -0.744481,-0.478167 0.19079,-1.073184 1.671147,-1.06317 1.399964,0.0095 4.093973,0.942375 4.473405,1.549095 0.115128,0.184093 0.326107,0.335504 0.468838,0.336469 0.386757,0.0026 1.900792,1.83163 2.287534,2.763427 0.185643,0.447286 0.298992,1.292182 0.251889,1.877547 -0.067,0.832616 -0.201621,1.080111 -0.618408,1.136973 -0.293018,0.04002 -0.679197,-0.0757 -0.858176,-0.257161 z M 141.09647,76.523335 c -0.0828,-0.136023 -0.0242,-0.324231 0.13023,-0.418239 0.15444,-0.09406 0.57749,-0.633958 0.94012,-1.199898 1.40213,-2.188176 4.41556,-3.249176 7.95058,-2.799324 1.21843,0.155056 1.9886,0.400411 2.324,0.740378 0.49365,0.50038 0.49226,0.511371 -0.0876,0.691103 -0.32408,0.10045 -1.09771,0.03658 -1.7192,-0.141992 -0.8294,-0.238276 -1.27482,-0.248379 -1.67447,-0.03793 -0.29946,0.157678 -0.72765,0.285445 -0.95151,0.28393 -0.72685,-0.0049 -3.44787,1.374659 -4.4726,2.267628 -0.96108,0.837508 -2.12525,1.13069 -2.43955,0.614372 z M 33.219809,74.836771 c -0.244211,-0.247537 0.482712,-2.279937 1.033727,-2.890193 0.287045,-0.317906 1.471929,-0.885874 2.633077,-1.262168 3.785254,-1.226673 8.065669,-0.865871 8.055219,0.678984 -0.0042,0.622865 0.106428,0.614104 -1.688109,0.133694 -0.7952,-0.212874 -1.723015,-0.323893 -2.061809,-0.246703 -0.960707,0.218897 -3.344851,1.389616 -3.707414,1.820524 -0.299497,0.355932 -3.509857,1.915752 -3.937001,1.912862 -0.101138,-6.84e-4 -0.248598,-0.06678 -0.32769,-0.147 z m 103.646721,0.05824 c -0.25135,-0.41291 0.40203,-2.442417 1.06448,-3.306455 1.13046,-1.474447 2.67352,-2.81844 3.87183,-3.372347 0.98731,-0.456362 1.69896,-0.54953 4.10477,-0.537376 3.99485,0.02002 5.14593,0.263215 6.37654,1.346284 1.30228,1.146145 0.9967,1.458975 -0.62498,0.639837 -1.10234,-0.55681 -1.63219,-0.639476 -4.17305,-0.651073 -2.68103,-0.01214 -3.01958,0.04467 -4.29585,0.721798 -1.2949,0.687016 -4.05749,3.308229 -5.03321,4.775623 -0.44473,0.668827 -1.01395,0.83807 -1.29053,0.383709 z M 28.274947,71.031175 c 0.0089,-1.320229 1.098574,-2.372953 3.587992,-3.466418 2.792366,-1.22655 9.14949,-2.031647 9.14358,-1.157987 -0.0031,0.45841 -0.579367,0.685857 -1.718187,0.678154 -1.864151,-0.01261 -5.951753,1.588756 -7.330115,2.871652 -1.537741,1.431251 -2.511079,2.088982 -3.085598,2.085095 -0.523646,-0.0035 -0.60357,-0.138675 -0.597672,-1.010496 z m -4.644346,-0.159589 c -0.07067,-0.187952 -0.09368,-0.634598 -0.05113,-0.992559 0.07558,-0.635913 0.03766,-0.65024 -1.655109,-0.62516 -1.24596,0.01847 -1.990067,0.180323 -2.649793,0.576409 -1.443329,0.866547 -2.95897,0.612289 -1.897419,-0.318292 1.579333,-1.384498 5.176738,-2.538721 6.191767,-1.986622 0.45501,0.247484 0.677062,0.119823 1.609877,-0.925571 1.246668,-1.397119 2.315115,-1.986776 4.731328,-2.611116 2.764174,-0.714258 4.290114,-0.918471 5.561412,-0.744277 1.738159,0.238162 2.114136,0.381339 2.111276,0.804039 -0.002,0.293794 -0.433979,0.376993 -1.920775,0.369916 -2.73644,-0.01351 -6.48083,1.425154 -7.89204,3.031225 -0.366633,0.417269 -1.245954,1.435975 -1.954044,2.263794 -1.266085,1.480179 -1.931664,1.832925 -2.18535,1.158214 z"
       id="path48" />
  </g>
</svg>
