<?xml version="1.0" encoding="UTF-8" standalone="no"?>
<!-- Created with Inkscape (http://www.inkscape.org/) -->

<svg
   id="svg4155"
   version="1.1"
   xml:space="preserve"
   width="192"
   height="192"
   viewBox="0 0 192 192"
   sodipodi:docname="datencafe.svg"
   inkscape:version="1.2.2 (b0a8486541, 2022-12-01)"
   inkscape:export-filename="datencafe.png"
   inkscape:export-xdpi="256"
   inkscape:export-ydpi="256"
   xmlns:inkscape="http://www.inkscape.org/namespaces/inkscape"
   xmlns:sodipodi="http://sodipodi.sourceforge.net/DTD/sodipodi-0.dtd"
   xmlns="http://www.w3.org/2000/svg"
   xmlns:svg="http://www.w3.org/2000/svg"
   xmlns:rdf="http://www.w3.org/1999/02/22-rdf-syntax-ns#"
   xmlns:cc="http://creativecommons.org/ns#"
   xmlns:dc="http://purl.org/dc/elements/1.1/"><sodipodi:namedview
     id="namedview33"
     pagecolor="#ffffff"
     bordercolor="#666666"
     borderopacity="1.0"
     inkscape:showpageshadow="2"
     inkscape:pageopacity="0.0"
     inkscape:pagecheckerboard="0"
     inkscape:deskcolor="#d1d1d1"
     showgrid="false"
     inkscape:zoom="2.4583333"
     inkscape:cx="-13.220339"
     inkscape:cy="98.0339"
     inkscape:window-width="1920"
     inkscape:window-height="1141"
     inkscape:window-x="0"
     inkscape:window-y="0"
     inkscape:window-maximized="1"
     inkscape:current-layer="svg4155" /><metadata
     id="metadata4161"><rdf:RDF><cc:Work
         rdf:about=""><dc:format>image/svg+xml</dc:format><dc:type
           rdf:resource="http://purl.org/dc/dcmitype/StillImage" /></cc:Work></rdf:RDF></metadata><defs
     id="defs4159"><rect
   x="36.05867"
   y="135.48264"
   width="87.799278"
   height="16.841948"
   id="rect1174" /><rect
   x="66.443604"
   y="48.806522"
   width="44.259373"
   height="17.384611"
   id="rect1326" /><rect
   x="72.909431"
   y="39.494274"
   width="47.428661"
   height="19.56949"
   id="rect716" /><rect
   x="-68.255234"
   y="134.90244"
   width="46.66608"
   height="15.397176"
   id="rect710" /><clipPath
   clipPathUnits="userSpaceOnUse"
   id="clipPath4177"><path
     d="M 30,21 H 168.001 V 177.001 H 30 Z"
     id="path4179" /></clipPath><rect
   x="66.443604"
   y="48.806522"
   width="54.253048"
   height="15.855855"
   id="rect1326-3" />



 <rect
   x="18.374847"
   y="21.728897"
   width="159.5278"
   height="113.81846"
   id="rect457" /><rect
   x="18.374847"
   y="21.728897"
   width="137.69366"
   height="57.450951"
   id="rect457-3" /></defs><g
     id="g4165"
     transform="matrix(1.25,0,0,-1.0854171,174.25,133.07618)"><path
       d="M 0,0 -62.5,-36 -125,0 v 72.001 l 62.5,36 62.5,-36 z"
       style="fill:#0c0c0b;fill-opacity:1;fill-rule:nonzero;stroke:none"
       id="path4167" /></g><g
     id="g4169"
     transform="matrix(1.25,0,0,-1.0843062,169.25,130.68658)"><path
       d="M 0,0 -58.5,-33.834 -117,0 V 67.667 L -58.5,101.5 0,67.667 Z"
       style="fill:none;stroke:#ffffff;stroke-width:3.75;stroke-linecap:butt;stroke-linejoin:miter;stroke-miterlimit:10;stroke-dasharray:none;stroke-opacity:1"
       id="path4171" /></g><path
     d="M 133.00651,149.95843 H 59.243986 v -16.19712 h 73.762524 z"
     style="fill:#0c0c0b;fill-opacity:1;fill-rule:nonzero;stroke:#ffffff;stroke-width:2.01941;stroke-linecap:butt;stroke-linejoin:miter;stroke-miterlimit:10;stroke-dasharray:none;stroke-opacity:1"
     id="path4185" /><g
     id="g4231"
     transform="matrix(1.25,0,0,-1.25,111.75,74.36012)"><path
       d="m 0,0 c 0,-1.932 -1.567,-3.5 -3.5,-3.5 h -18 c -1.933,0 -3.5,1.568 -3.5,3.5 0,1.934 1.567,3.5 3.5,3.5 h 18 C -1.567,3.5 0,1.934 0,0"
       style="fill:#0c0c0b;fill-opacity:1;fill-rule:nonzero;stroke:none"
       id="path4233" /></g><g
     id="g4239"
     transform="matrix(1.25,0,0,-1.25,111.75,113.11012)"><path
       d="m 0,0 c 0,-1.932 -1.567,-3.5 -3.5,-3.5 h -18 c -1.933,0 -3.5,1.568 -3.5,3.5 0,1.934 1.567,3.5 3.5,3.5 h 18 C -1.567,3.5 0,1.934 0,0"
       style="fill:#0c0c0b;fill-opacity:1;fill-rule:nonzero;stroke:none"
       id="path4241" /></g><g
     aria-label="Karlsruhe"
     id="text4777"
     style="font-weight:bold;font-size:15px;line-height:1.25;-inkscape-font-specification:'sans-serif, Bold';letter-spacing:0px;word-spacing:0px;fill:#ffffff;stroke-width:0.9375"><path
       d="m 67.746075,143.16016 -1.142578,1.23046 v 3.04688 h -2.197266 v -10.66406 h 2.197266 v 4.83398 l 0.966796,-1.32568 2.717286,-3.5083 h 2.702636 l -3.786621,4.73877 3.896485,5.92529 h -2.614747 z"
       style="font-family:RobotoBold;-inkscape-font-specification:'RobotoBold Bold'"
       id="path527" /><path
       d="m 78.38084,147.4375 q -0.146484,-0.28564 -0.212402,-0.71045 -0.769043,0.85693 -1.999512,0.85693 -1.164551,0 -1.933594,-0.67382 -0.761718,-0.67383 -0.761718,-1.69922 0,-1.25977 0.930176,-1.9336 0.9375,-0.67382 2.702636,-0.68115 h 0.974121 v -0.4541 q 0,-0.54932 -0.285644,-0.87891 -0.278321,-0.32959 -0.886231,-0.32959 -0.534668,0 -0.842285,0.25635 -0.300293,0.25635 -0.300293,0.70313 h -2.116699 q 0,-0.68848 0.424805,-1.27442 0.424804,-0.58594 1.201172,-0.91553 0.776367,-0.33691 1.743164,-0.33691 1.464843,0 2.321777,0.73975 0.864258,0.73242 0.864258,2.06543 v 3.43506 q 0.0073,1.12792 0.314941,1.70654 v 0.12451 z m -1.750488,-1.47217 q 0.46875,0 0.864258,-0.20508 0.395508,-0.2124 0.585937,-0.56396 v -1.36231 h -0.791015 q -1.589356,0 -1.691895,1.09864 l -0.0073,0.12451 q 0,0.39551 0.27832,0.65185 0.278321,0.25635 0.761719,0.25635 z"
       style="font-family:RobotoBold;-inkscape-font-specification:'RobotoBold Bold'"
       id="path524" /><path
       d="m 86.283672,141.49756 q -0.432129,-0.0586 -0.761718,-0.0586 -1.201172,0 -1.574707,0.81299 v 5.18555 h -2.1167 v -7.9248 h 1.999512 l 0.05859,0.94482 q 0.637207,-1.09131 1.765137,-1.09131 0.351562,0 0.659179,0.0952 z"
       style="font-family:RobotoBold;-inkscape-font-specification:'RobotoBold Bold'"
       id="path521" /><path
       d="m 89.535625,147.4375 h -2.124023 v -11.25 h 2.124023 z"
       style="font-family:RobotoBold;-inkscape-font-specification:'RobotoBold Bold'"
       id="path518" /><path
       d="m 95.570782,145.24756 q 0,-0.38819 -0.388184,-0.60791 -0.380859,-0.22705 -1.230469,-0.40283 -2.827148,-0.59327 -2.827148,-2.40235 0,-1.05468 0.871582,-1.75781 0.878906,-0.71045 2.29248,-0.71045 1.508789,0 2.409668,0.71045 0.908204,0.71045 0.908204,1.8457 h -2.1167 q 0,-0.4541 -0.292968,-0.74707 -0.292969,-0.30029 -0.915528,-0.30029 -0.534668,0 -0.827637,0.2417 -0.292968,0.2417 -0.292968,0.61523 0,0.35157 0.32959,0.57129 0.336914,0.2124 1.127929,0.37354 0.791016,0.15381 1.333008,0.35156 1.677246,0.61523 1.677246,2.13135 0,1.08398 -0.930176,1.75781 -0.930175,0.6665 -2.402343,0.6665 -0.996094,0 -1.772461,-0.35156 -0.769043,-0.35888 -1.208496,-0.97412 -0.439454,-0.62256 -0.439454,-1.34033 h 2.006836 q 0.0293,0.56396 0.417481,0.86426 0.388183,0.30029 1.040039,0.30029 0.60791,0 0.915527,-0.22705 0.314942,-0.23438 0.314942,-0.60791 z"
       style="font-family:RobotoBold;-inkscape-font-specification:'RobotoBold Bold'"
       id="path515" /><path
       d="m 103.44432,141.49756 q -0.43213,-0.0586 -0.76172,-0.0586 -1.20117,0 -1.57471,0.81299 v 5.18555 h -2.116698 v -7.9248 h 1.999508 l 0.0586,0.94482 q 0.6372,-1.09131 1.76513,-1.09131 0.35157,0 0.65918,0.0952 z"
       style="font-family:RobotoBold;-inkscape-font-specification:'RobotoBold Bold'"
       id="path512" /><path
       d="m 109.20848,146.63184 q -0.78369,0.95214 -2.16797,0.95214 -1.27442,0 -1.94824,-0.73242 -0.66651,-0.73242 -0.68116,-2.14599 v -5.19287 h 2.1167 v 5.11962 q 0,1.2378 1.12793,1.2378 1.07666,0 1.47949,-0.74707 v -5.61035 h 2.12403 v 7.9248 h -1.99219 z"
       style="font-family:RobotoBold;-inkscape-font-specification:'RobotoBold Bold'"
       id="path509" /><path
       d="m 114.92137,140.37695 q 0.84228,-1.01074 2.1167,-1.01074 2.57812,0 2.61474,2.99561 v 5.07568 h -2.1167 v -5.01709 q 0,-0.68115 -0.29297,-1.00342 -0.29296,-0.32959 -0.97412,-0.32959 -0.93017,0 -1.34765,0.71778 v 5.63232 h -2.1167 v -11.25 h 2.1167 z"
       style="font-family:RobotoBold;-inkscape-font-specification:'RobotoBold Bold'"
       id="path506" /><path
       d="m 124.89695,147.58398 q -1.74316,0 -2.84179,-1.06933 -1.09131,-1.06934 -1.09131,-2.84912 v -0.20508 q 0,-1.19385 0.46142,-2.13135 0.46143,-0.94482 1.30371,-1.45019 0.84961,-0.5127 1.9336,-0.5127 1.62598,0 2.55615,1.02539 0.9375,1.02539 0.9375,2.90772 v 0.86425 h -5.04639 q 0.10254,0.77637 0.61524,1.24512 0.52002,0.46875 1.31103,0.46875 1.22315,0 1.91162,-0.88623 l 1.04004,1.16455 q -0.47607,0.67383 -1.28906,1.05469 -0.81299,0.37353 -1.80176,0.37353 z m -0.2417,-6.5039 q -0.62988,0 -1.02539,0.4248 -0.38818,0.42481 -0.49804,1.21582 h 2.94433 v -0.16845 q -0.0147,-0.70313 -0.38086,-1.08399 -0.36621,-0.38818 -1.04004,-0.38818 z"
       style="font-family:RobotoBold;-inkscape-font-specification:'RobotoBold Bold'"
       id="path503" /></g><text
     xml:space="preserve"
     transform="matrix(0.9375,0,0,0.9375,0,-5e-6)"
     id="text714"
     style="font-size:14.6667px;line-height:1.25;font-family:'Exo 2';-inkscape-font-specification:'Exo 2, ';white-space:pre;shape-inside:url(#rect716);display:inline;fill:#ffffff;fill-opacity:0" /><g
     aria-label="OK Lab"
     transform="matrix(1.5363353,0,0,1.8009326,-39.815105,-50.998317)"
     id="text1324"
     style="font-size:13.5267px;line-height:1.25;font-family:'Exo 2';-inkscape-font-specification:'Exo 2, ';white-space:pre;shape-inside:url(#rect1326);shape-padding:0.145532;display:inline;fill:#ffffff"><path
       d="m 75.347854,57.312628 q 0,1.420039 -0.501968,2.490022 -0.501967,1.069983 -1.439854,1.651208 -0.931281,0.581226 -2.139966,0.581226 -1.195475,0 -2.133361,-0.574621 -0.937887,-0.57462 -1.453064,-1.637999 -0.515177,-1.069983 -0.521782,-2.456998 v -0.475548 q 0,-1.420039 0.508573,-2.496627 0.515177,-1.083193 1.446458,-1.657813 0.937887,-0.581226 2.139967,-0.581226 1.202079,0 2.133361,0.581226 0.937886,0.57462 1.446459,1.657813 0.515177,1.076588 0.515177,2.490022 z m -2.00787,-0.43592 q 0,-1.512507 -0.541596,-2.298482 -0.541597,-0.785975 -1.545531,-0.785975 -0.99733,0 -1.538927,0.77937 -0.541596,0.772766 -0.548201,2.272063 v 0.468944 q 0,1.472877 0.541596,2.285272 0.541597,0.812395 1.558741,0.812395 0.99733,0 1.532322,-0.779371 0.534991,-0.785975 0.541596,-2.285272 z"
       style="font-family:RobotoBold;-inkscape-font-specification:RobotoBold"
       id="path602" /><path
       d="m 79.799512,58.045764 -1.030354,1.109612 v 2.747611 h -1.981451 v -9.616638 h 1.981451 v 4.35919 l 0.871838,-1.195475 2.450393,-3.163715 h 2.437184 l -3.414699,4.273327 3.513771,5.343311 H 82.26972 Z"
       style="font-family:RobotoBold;-inkscape-font-specification:RobotoBold"
       id="path599" /><path
       d="m 90.723908,60.311222 h 4.207279 v 1.591765 h -6.188729 v -9.616638 h 1.98145 z"
       style="font-family:RobotoBold;-inkscape-font-specification:RobotoBold"
       id="path596" /><path
       d="m 100.08296,61.902987 q -0.1321,-0.257588 -0.191543,-0.640669 -0.693508,0.772766 -1.80312,0.772766 -1.050168,0 -1.743676,-0.607645 -0.686903,-0.607645 -0.686903,-1.532321 0,-1.136032 0.838814,-1.743677 0.845419,-0.607644 2.437184,-0.614249 h 0.878443 v -0.4095 q 0,-0.495362 -0.257589,-0.79258 -0.250983,-0.297217 -0.799185,-0.297217 -0.482152,0 -0.759556,0.231169 -0.270798,0.231169 -0.270798,0.634064 h -1.908797 q 0,-0.620855 0.383081,-1.149241 0.38308,-0.528387 1.083192,-0.825605 0.700113,-0.303822 1.571951,-0.303822 1.320962,0 2.093732,0.667088 0.77937,0.660484 0.77937,1.862564 v 3.097667 q 0.007,1.017144 0.28401,1.538926 v 0.112282 z m -1.578558,-1.327571 q 0.422709,0 0.77937,-0.184936 0.356661,-0.19154 0.528387,-0.508572 v -1.228499 h -0.713322 q -1.433249,0 -1.525717,0.990725 l -0.0066,0.112282 q 0,0.356661 0.250984,0.58783 0.250984,0.23117 0.686903,0.23117 z"
       style="font-family:RobotoBold;-inkscape-font-specification:RobotoBold"
       id="path593" /><path
       d="m 109.63355,58.39582 q 0,1.717257 -0.73314,2.681563 -0.73314,0.957701 -2.0475,0.957701 -1.16245,0 -1.85596,-0.891653 l -0.0859,0.759556 h -1.71726 V 51.757962 h 1.9088 v 3.639264 q 0.66048,-0.772766 1.73707,-0.772766 1.30776,0 2.0475,0.964306 0.74635,0.957701 0.74635,2.701377 z m -1.9088,-0.138701 q 0,-1.083193 -0.34345,-1.578556 -0.34345,-0.501967 -1.02375,-0.501967 -0.91147,0 -1.25492,0.746346 v 2.820264 q 0.35006,0.752952 1.26813,0.752952 0.92468,0 1.21529,-0.911468 0.1387,-0.435919 0.1387,-1.327571 z"
       style="font-family:RobotoBold;-inkscape-font-specification:RobotoBold"
       id="path590" /></g><g
     aria-label="Daten.Cafe"
     transform="matrix(1.5363353,0,0,1.8009326,-46.531957,17.455057)"
     id="text1324-6"
     style="font-size:13.5267px;line-height:1.25;font-family:'Exo 2';-inkscape-font-specification:'Exo 2, ';white-space:pre;shape-inside:url(#rect1326-3);shape-padding:0.198995;display:inline;fill:#ffffff"><path
       d="m 67.310396,61.957675 v -7.479561 h 2.301403 q 0.986316,0 1.762012,0.446924 0.780833,0.441788 1.217483,1.263717 0.436651,0.816793 0.436651,1.859616 v 0.344183 q 0,1.042824 -0.431513,1.854479 -0.426376,0.811656 -1.20721,1.25858 -0.780833,0.446925 -1.762012,0.452062 z m 1.541118,-6.231255 v 4.993223 h 0.744874 q 0.904123,0 1.381869,-0.590762 0.477747,-0.590762 0.488021,-1.690093 v -0.395554 q 0,-1.140427 -0.472609,-1.726052 -0.47261,-0.590762 -1.38187,-0.590762 z"
       style="font-size:10.5207px;font-family:RobotoBold;-inkscape-font-specification:'RobotoBold, Normal'"
       id="path577" /><path
       d="m 77.271157,61.957675 q -0.102741,-0.200346 -0.148975,-0.498295 -0.539391,0.601036 -1.402417,0.601036 -0.816793,0 -1.356184,-0.47261 -0.534255,-0.472609 -0.534255,-1.191798 0,-0.883574 0.652407,-1.356184 0.657544,-0.472609 1.895575,-0.477747 h 0.68323 V 58.24358 q 0,-0.38528 -0.200346,-0.616448 -0.195208,-0.231167 -0.621584,-0.231167 -0.375006,0 -0.590762,0.179797 -0.21062,0.179797 -0.21062,0.493158 h -1.48461 q 0,-0.482884 0.297949,-0.893849 0.29795,-0.410965 0.842478,-0.642133 0.544529,-0.236304 1.222621,-0.236304 1.027412,0 1.628448,0.518843 0.606173,0.513706 0.606173,1.448651 v 2.409281 q 0.0051,0.791108 0.220894,1.196936 v 0.08733 z M 76.0434,60.925125 q 0.328771,0 0.606173,-0.143837 0.277401,-0.148975 0.410965,-0.395554 v -0.955493 h -0.554803 q -1.114742,0 -1.186661,0.770559 l -0.0051,0.08733 q 0,0.277401 0.195208,0.457198 0.195209,0.179797 0.534255,0.179797 z"
       style="font-size:10.5207px;font-family:RobotoBold;-inkscape-font-specification:'RobotoBold, Normal'"
       id="path574" /><path
       d="m 81.468135,55.032917 v 1.366458 h 0.950357 v 1.089057 h -0.950357 v 2.774013 q 0,0.308223 0.118153,0.441787 0.118152,0.133563 0.452061,0.133563 0.246579,0 0.43665,-0.03596 v 1.125016 q -0.43665,0.133564 -0.898985,0.133564 -1.561667,0 -1.592489,-1.577078 v -2.994906 h -0.811656 v -1.089057 h 0.811656 v -1.366458 z"
       style="font-size:10.5207px;font-family:RobotoBold;-inkscape-font-specification:'RobotoBold, Normal'"
       id="path571" /><path
       d="m 85.803814,62.060416 q -1.22262,0 -1.993179,-0.750011 -0.765422,-0.750011 -0.765422,-1.998317 v -0.143837 q 0,-0.837341 0.323635,-1.494885 0.323634,-0.662681 0.914396,-1.017138 0.5959,-0.359594 1.356185,-0.359594 1.140427,0 1.792834,0.719188 0.657544,0.719189 0.657544,2.039413 v 0.606173 h -3.539435 q 0.07192,0.544529 0.431513,0.873301 0.364731,0.328772 0.919534,0.328772 0.857889,0 1.340772,-0.621585 l 0.729463,0.816793 q -0.333909,0.47261 -0.904123,0.739737 -0.570213,0.26199 -1.263717,0.26199 z m -0.169523,-4.56171 q -0.441787,0 -0.719188,0.297949 -0.272264,0.29795 -0.34932,0.852753 h 2.065098 v -0.118153 q -0.01027,-0.493158 -0.267127,-0.760285 -0.256853,-0.272264 -0.729463,-0.272264 z"
       style="font-size:10.5207px;font-family:RobotoBold;-inkscape-font-specification:'RobotoBold, Normal'"
       id="path568" /><path
       d="m 90.298744,56.399375 0.04623,0.642132 q 0.595899,-0.744873 1.597626,-0.744873 0.883575,0 1.315088,0.518843 0.431513,0.518843 0.441787,1.551392 v 3.590806 h -1.48461 v -3.554846 q 0,-0.47261 -0.205483,-0.683229 -0.205482,-0.215757 -0.683229,-0.215757 -0.626721,0 -0.940082,0.534254 v 3.919578 H 88.90146 v -5.5583 z"
       style="font-size:10.5207px;font-family:RobotoBold;-inkscape-font-specification:'RobotoBold, Normal'"
       id="path565" /><path
       d="m 94.90155,61.228212 q 0,-0.354457 0.236305,-0.575351 0.241441,-0.220893 0.601036,-0.220893 0.364731,0 0.601036,0.220893 0.241442,0.220894 0.241442,0.575351 0,0.34932 -0.236305,0.570214 -0.236305,0.215756 -0.606173,0.215756 -0.364732,0 -0.601036,-0.215756 -0.236305,-0.220894 -0.236305,-0.570214 z"
       style="font-size:10.5207px;font-family:RobotoBold;-inkscape-font-specification:'RobotoBold, Normal'"
       id="path562" /><path
       d="m 103.85031,59.4662 q -0.0873,1.207209 -0.89385,1.900713 -0.80138,0.693503 -2.11647,0.693503 -1.438375,0 -2.265442,-0.965768 -0.82193,-0.970904 -0.82193,-2.660997 v -0.457198 q 0,-1.078783 0.380143,-1.900713 0.380142,-0.82193 1.08392,-1.25858 0.708914,-0.441787 1.643859,-0.441787 1.29454,0 2.08565,0.693503 0.7911,0.693503 0.91439,1.946946 h -1.54111 q -0.0565,-0.724325 -0.40583,-1.04796 -0.34419,-0.328772 -1.0531,-0.328772 -0.77056,0 -1.155839,0.554802 -0.380142,0.549666 -0.390416,1.710642 v 0.565076 q 0,1.212347 0.364731,1.772286 0.369864,0.55994 1.160974,0.55994 0.71405,0 1.06337,-0.323635 0.35446,-0.328772 0.40583,-1.012001 z"
       style="font-size:10.5207px;font-family:RobotoBold;-inkscape-font-specification:'RobotoBold, Normal'"
       id="path559" /><path
       d="m 107.98564,61.957675 q -0.10274,-0.200346 -0.14897,-0.498295 -0.53939,0.601036 -1.40242,0.601036 -0.81679,0 -1.35618,-0.47261 -0.53426,-0.472609 -0.53426,-1.191798 0,-0.883574 0.65241,-1.356184 0.65754,-0.472609 1.89557,-0.477747 h 0.68323 V 58.24358 q 0,-0.38528 -0.20034,-0.616448 -0.19521,-0.231167 -0.62159,-0.231167 -0.375,0 -0.59076,0.179797 -0.21062,0.179797 -0.21062,0.493158 h -1.48461 q 0,-0.482884 0.29795,-0.893849 0.29795,-0.410965 0.84248,-0.642133 0.54453,-0.236304 1.22262,-0.236304 1.02741,0 1.62845,0.518843 0.60617,0.513706 0.60617,1.448651 v 2.409281 q 0.005,0.791108 0.22089,1.196936 v 0.08733 z m -1.22775,-1.03255 q 0.32877,0 0.60617,-0.143837 0.2774,-0.148975 0.41096,-0.395554 v -0.955493 h -0.5548 q -1.11474,0 -1.18666,0.770559 l -0.005,0.08733 q 0,0.277401 0.19521,0.457198 0.19521,0.179797 0.53426,0.179797 z"
       style="font-size:10.5207px;font-family:RobotoBold;-inkscape-font-specification:'RobotoBold, Normal'"
       id="path556" /><path
       d="m 110.81103,61.957675 v -4.469243 h -0.82707 v -1.089057 h 0.82707 v -0.47261 q 0,-0.934945 0.53425,-1.448651 0.53939,-0.518843 1.50516,-0.518843 0.30822,0 0.75515,0.102741 l -0.0154,1.150702 q -0.18494,-0.04623 -0.45207,-0.04623 -0.83734,0 -0.83734,0.785971 v 0.446924 h 1.10447 v 1.089057 h -1.10447 v 4.469243 z"
       style="font-size:10.5207px;font-family:RobotoBold;-inkscape-font-specification:'RobotoBold, Normal'"
       id="path553" /><path
       d="m 116.61077,62.060416 q -1.22262,0 -1.99318,-0.750011 -0.76542,-0.750011 -0.76542,-1.998317 v -0.143837 q 0,-0.837341 0.32363,-1.494885 0.32364,-0.662681 0.9144,-1.017138 0.5959,-0.359594 1.35618,-0.359594 1.14043,0 1.79284,0.719188 0.65754,0.719189 0.65754,2.039413 v 0.606173 h -3.53943 q 0.0719,0.544529 0.43151,0.873301 0.36473,0.328772 0.91953,0.328772 0.85789,0 1.34078,-0.621585 l 0.72946,0.816793 q -0.33391,0.47261 -0.90412,0.739737 -0.57022,0.26199 -1.26372,0.26199 z m -0.16952,-4.56171 q -0.44179,0 -0.71919,0.297949 -0.27227,0.29795 -0.34932,0.852753 h 2.0651 v -0.118153 q -0.0103,-0.493158 -0.26713,-0.760285 -0.25685,-0.272264 -0.72946,-0.272264 z"
       style="font-size:10.5207px;font-family:RobotoBold;-inkscape-font-specification:'RobotoBold, Normal'"
       id="path550" /></g><text
     xml:space="preserve"
     transform="matrix(0.9375,0,0,0.9375,0,-5e-6)"
     id="text1172"
     style="font-size:14.6667px;line-height:1.25;font-family:'Exo 2';-inkscape-font-specification:'Exo 2, ';white-space:pre;shape-inside:url(#rect1174);display:inline" /><g
     aria-label="001011010101010010100101010111110100100101010100010"
     transform="translate(9.3439805,41.078175)"
     id="text455"
     style="font-size:14.6667px;line-height:1.25;font-family:'Exo 2';-inkscape-font-specification:'Exo 2, ';white-space:pre;shape-inside:url(#rect457-3);fill:#ffffff;fill-opacity:0.2"><path
       d="m 25.458315,32.145588 v -2.220046 q 0,-0.904946 -0.208332,-1.601559 -0.208333,-0.703123 -0.598957,-1.184892 -0.397135,-0.48177 -0.97005,-0.729165 -0.566405,-0.253906 -1.295569,-0.253906 -0.722655,0 -1.29557,0.253906 -0.566405,0.247395 -0.957029,0.729165 -0.397134,0.481769 -0.605467,1.184892 -0.208333,0.696613 -0.208333,1.601559 v 2.220046 q 0,0.904946 0.208333,1.608069 0.208333,0.696613 0.605467,1.171872 0.397134,0.48828 0.97005,0.735675 0.572915,0.240885 1.295569,0.240885 0.729165,0 1.29557,-0.247395 0.566405,-0.247395 0.957029,-0.729165 0.390624,-0.475259 0.598957,-1.171872 0.208332,-0.703123 0.208332,-1.608069 z m -4.928373,-0.240885 q 0,-0.16927 0,-0.33203 0,-0.16276 0,-0.32552 v -1.588538 q 0,-0.66406 0.130208,-1.165361 0.136719,-0.507811 0.410156,-0.826821 0.227864,-0.253906 0.553384,-0.384114 0.33203,-0.136718 0.761717,-0.136718 0.423176,0 0.742185,0.123698 0.32552,0.123697 0.546874,0.371092 0.227864,0.240885 0.358072,0.605468 0.136718,0.358072 0.188801,0.82682 z m 3.717439,0.494791 q 0,0.696613 -0.143229,1.210934 -0.136718,0.514322 -0.436197,0.833332 -0.221353,0.234374 -0.540363,0.358072 -0.319009,0.123697 -0.729165,0.123697 -0.390624,0 -0.703123,-0.110677 -0.312499,-0.117187 -0.533853,-0.33854 -0.240885,-0.234375 -0.390624,-0.592447 -0.149739,-0.364582 -0.208333,-0.839841 l 3.684887,-2.819004 q 0,0.182291 0,0.462239 0,0.273436 0,0.371092 z"
       style="font-size:13.3333px;font-family:'Roboto Mono';-inkscape-font-specification:'Roboto Mono, Normal';fill:#ffffff;fill-opacity:0.2"
       id="path1084" /><path
       d="m 33.459597,32.145588 v -2.220046 q 0,-0.904946 -0.208333,-1.601559 -0.208332,-0.703123 -0.598956,-1.184892 -0.397135,-0.48177 -0.97005,-0.729165 -0.566405,-0.253906 -1.29557,-0.253906 -0.722654,0 -1.295569,0.253906 -0.566405,0.247395 -0.957029,0.729165 -0.397135,0.481769 -0.605467,1.184892 -0.208333,0.696613 -0.208333,1.601559 v 2.220046 q 0,0.904946 0.208333,1.608069 0.208332,0.696613 0.605467,1.171872 0.397134,0.48828 0.970049,0.735675 0.572916,0.240885 1.29557,0.240885 0.729165,0 1.29557,-0.247395 0.566405,-0.247395 0.957029,-0.729165 0.390624,-0.475259 0.598956,-1.171872 0.208333,-0.703123 0.208333,-1.608069 z m -4.928373,-0.240885 q 0,-0.16927 0,-0.33203 0,-0.16276 0,-0.32552 v -1.588538 q 0,-0.66406 0.130208,-1.165361 0.136719,-0.507811 0.410155,-0.826821 0.227864,-0.253906 0.553384,-0.384114 0.332031,-0.136718 0.761717,-0.136718 0.423176,0 0.742186,0.123698 0.32552,0.123697 0.546874,0.371092 0.227864,0.240885 0.358072,0.605468 0.136718,0.358072 0.188801,0.82682 z m 3.717439,0.494791 q 0,0.696613 -0.143229,1.210934 -0.136718,0.514322 -0.436197,0.833332 -0.221353,0.234374 -0.540363,0.358072 -0.31901,0.123697 -0.729165,0.123697 -0.390624,0 -0.703123,-0.110677 -0.312499,-0.117187 -0.533853,-0.33854 -0.240885,-0.234375 -0.390624,-0.592447 -0.149739,-0.364582 -0.208333,-0.839841 l 3.684887,-2.819004 q 0,0.182291 0,0.462239 0,0.273436 0,0.371092 z"
       style="font-size:13.3333px;font-family:'Roboto Mono';-inkscape-font-specification:'Roboto Mono, Normal';fill:#ffffff;fill-opacity:0.2"
       id="path1081" /><path
       d="m 39.416613,35.771881 v -9.479142 h -0.09766 l -3.58723,1.380204 v 1.100258 l 2.480462,-0.944008 v 7.942688 z"
       style="font-size:13.3333px;font-family:'Roboto Mono';-inkscape-font-specification:'Roboto Mono, Normal';fill:#ffffff;fill-opacity:0.2"
       id="path1078" /><path
       d="m 49.462161,32.145588 v -2.220046 q 0,-0.904946 -0.208333,-1.601559 -0.208333,-0.703123 -0.598957,-1.184892 -0.397134,-0.48177 -0.97005,-0.729165 -0.566404,-0.253906 -1.295569,-0.253906 -0.722655,0 -1.29557,0.253906 -0.566405,0.247395 -0.957029,0.729165 -0.397134,0.481769 -0.605467,1.184892 -0.208333,0.696613 -0.208333,1.601559 v 2.220046 q 0,0.904946 0.208333,1.608069 0.208333,0.696613 0.605467,1.171872 0.397135,0.48828 0.97005,0.735675 0.572915,0.240885 1.29557,0.240885 0.729164,0 1.295569,-0.247395 0.566405,-0.247395 0.957029,-0.729165 0.390624,-0.475259 0.598957,-1.171872 0.208333,-0.703123 0.208333,-1.608069 z m -4.928373,-0.240885 q 0,-0.16927 0,-0.33203 0,-0.16276 0,-0.32552 v -1.588538 q 0,-0.66406 0.130208,-1.165361 0.136718,-0.507811 0.410155,-0.826821 0.227864,-0.253906 0.553384,-0.384114 0.33203,-0.136718 0.761717,-0.136718 0.423176,0 0.742185,0.123698 0.32552,0.123697 0.546874,0.371092 0.227864,0.240885 0.358072,0.605468 0.136718,0.358072 0.188802,0.82682 z m 3.717438,0.494791 q 0,0.696613 -0.143229,1.210934 -0.136718,0.514322 -0.436196,0.833332 -0.221354,0.234374 -0.540364,0.358072 -0.319009,0.123697 -0.729164,0.123697 -0.390624,0 -0.703124,-0.110677 -0.312499,-0.117187 -0.533852,-0.33854 -0.240885,-0.234375 -0.390625,-0.592447 -0.149739,-0.364582 -0.208332,-0.839841 l 3.684886,-2.819004 q 0,0.182291 0,0.462239 0,0.273436 0,0.371092 z"
       style="font-size:13.3333px;font-family:'Roboto Mono';-inkscape-font-specification:'Roboto Mono, Normal';fill:#ffffff;fill-opacity:0.2"
       id="path1075" /><path
       d="m 55.419177,35.771881 v -9.479142 h -0.09766 l -3.587231,1.380204 v 1.100258 l 2.480463,-0.944008 v 7.942688 z"
       style="font-size:13.3333px;font-family:'Roboto Mono';-inkscape-font-specification:'Roboto Mono, Normal';fill:#ffffff;fill-opacity:0.2"
       id="path1072" /><path
       d="m 63.420458,35.771881 v -9.479142 h -0.09766 l -3.58723,1.380204 v 1.100258 l 2.480462,-0.944008 v 7.942688 z"
       style="font-size:13.3333px;font-family:'Roboto Mono';-inkscape-font-specification:'Roboto Mono, Normal';fill:#ffffff;fill-opacity:0.2"
       id="path1069" /><path
       d="m 73.466006,32.145588 v -2.220046 q 0,-0.904946 -0.208333,-1.601559 -0.208333,-0.703123 -0.598957,-1.184892 -0.397134,-0.48177 -0.970049,-0.729165 -0.566405,-0.253906 -1.29557,-0.253906 -0.722654,0 -1.29557,0.253906 -0.566404,0.247395 -0.957029,0.729165 -0.397134,0.481769 -0.605467,1.184892 -0.208333,0.696613 -0.208333,1.601559 v 2.220046 q 0,0.904946 0.208333,1.608069 0.208333,0.696613 0.605467,1.171872 0.397135,0.48828 0.97005,0.735675 0.572915,0.240885 1.29557,0.240885 0.729165,0 1.295569,-0.247395 0.566405,-0.247395 0.957029,-0.729165 0.390624,-0.475259 0.598957,-1.171872 0.208333,-0.703123 0.208333,-1.608069 z m -4.928373,-0.240885 q 0,-0.16927 0,-0.33203 0,-0.16276 0,-0.32552 v -1.588538 q 0,-0.66406 0.130208,-1.165361 0.136718,-0.507811 0.410155,-0.826821 0.227864,-0.253906 0.553384,-0.384114 0.332031,-0.136718 0.761717,-0.136718 0.423176,0 0.742186,0.123698 0.32552,0.123697 0.546873,0.371092 0.227864,0.240885 0.358072,0.605468 0.136719,0.358072 0.188802,0.82682 z m 3.717438,0.494791 q 0,0.696613 -0.143228,1.210934 -0.136719,0.514322 -0.436197,0.833332 -0.221354,0.234374 -0.540363,0.358072 -0.31901,0.123697 -0.729165,0.123697 -0.390624,0 -0.703123,-0.110677 -0.3125,-0.117187 -0.533853,-0.33854 -0.240885,-0.234375 -0.390624,-0.592447 -0.149739,-0.364582 -0.208333,-0.839841 l 3.684886,-2.819004 q 0,0.182291 0,0.462239 0,0.273436 0,0.371092 z"
       style="font-size:13.3333px;font-family:'Roboto Mono';-inkscape-font-specification:'Roboto Mono, Normal';fill:#ffffff;fill-opacity:0.2"
       id="path1066" /><path
       d="m 79.423022,35.771881 v -9.479142 h -0.09766 l -3.587231,1.380204 v 1.100258 l 2.480463,-0.944008 v 7.942688 z"
       style="font-size:13.3333px;font-family:'Roboto Mono';-inkscape-font-specification:'Roboto Mono, Normal';fill:#ffffff;fill-opacity:0.2"
       id="path1063" /><path
       d="m 89.468569,32.145588 v -2.220046 q 0,-0.904946 -0.208332,-1.601559 -0.208333,-0.703123 -0.598957,-1.184892 -0.397135,-0.48177 -0.97005,-0.729165 -0.566405,-0.253906 -1.29557,-0.253906 -0.722654,0 -1.295569,0.253906 -0.566405,0.247395 -0.957029,0.729165 -0.397134,0.481769 -0.605467,1.184892 -0.208333,0.696613 -0.208333,1.601559 v 2.220046 q 0,0.904946 0.208333,1.608069 0.208333,0.696613 0.605467,1.171872 0.397134,0.48828 0.97005,0.735675 0.572915,0.240885 1.295569,0.240885 0.729165,0 1.29557,-0.247395 0.566405,-0.247395 0.957029,-0.729165 0.390624,-0.475259 0.598957,-1.171872 0.208332,-0.703123 0.208332,-1.608069 z m -4.928373,-0.240885 q 0,-0.16927 0,-0.33203 0,-0.16276 0,-0.32552 v -1.588538 q 0,-0.66406 0.130208,-1.165361 0.136719,-0.507811 0.410156,-0.826821 0.227864,-0.253906 0.553384,-0.384114 0.33203,-0.136718 0.761716,-0.136718 0.423176,0 0.742186,0.123698 0.32552,0.123697 0.546874,0.371092 0.227864,0.240885 0.358072,0.605468 0.136718,0.358072 0.188801,0.82682 z m 3.717439,0.494791 q 0,0.696613 -0.143229,1.210934 -0.136718,0.514322 -0.436197,0.833332 -0.221353,0.234374 -0.540363,0.358072 -0.31901,0.123697 -0.729165,0.123697 -0.390624,0 -0.703123,-0.110677 -0.312499,-0.117187 -0.533853,-0.33854 -0.240885,-0.234375 -0.390624,-0.592447 -0.149739,-0.364582 -0.208333,-0.839841 l 3.684887,-2.819004 q 0,0.182291 0,0.462239 0,0.273436 0,0.371092 z"
       style="font-size:13.3333px;font-family:'Roboto Mono';-inkscape-font-specification:'Roboto Mono, Normal';fill:#ffffff;fill-opacity:0.2"
       id="path1060" /><path
       d="m 95.425585,35.771881 v -9.479142 h -0.09766 l -3.58723,1.380204 v 1.100258 l 2.480462,-0.944008 v 7.942688 z"
       style="font-size:13.3333px;font-family:'Roboto Mono';-inkscape-font-specification:'Roboto Mono, Normal';fill:#ffffff;fill-opacity:0.2"
       id="path1057" /><path
       d="m 105.47113,32.145588 v -2.220046 q 0,-0.904946 -0.20833,-1.601559 -0.20833,-0.703123 -0.59896,-1.184892 -0.39713,-0.48177 -0.97005,-0.729165 -0.5664,-0.253906 -1.29557,-0.253906 -0.72265,0 -1.29557,0.253906 -0.5664,0.247395 -0.95702,0.729165 -0.397139,0.481769 -0.605472,1.184892 -0.208333,0.696613 -0.208333,1.601559 v 2.220046 q 0,0.904946 0.208333,1.608069 0.208333,0.696613 0.605472,1.171872 0.39713,0.48828 0.97005,0.735675 0.57291,0.240885 1.29556,0.240885 0.72917,0 1.29557,-0.247395 0.56641,-0.247395 0.95703,-0.729165 0.39063,-0.475259 0.59896,-1.171872 0.20833,-0.703123 0.20833,-1.608069 z m -4.92837,-0.240885 q 0,-0.16927 0,-0.33203 0,-0.16276 0,-0.32552 v -1.588538 q 0,-0.66406 0.13021,-1.165361 0.13672,-0.507811 0.41015,-0.826821 0.22787,-0.253906 0.55339,-0.384114 0.33203,-0.136718 0.76171,-0.136718 0.42318,0 0.74219,0.123698 0.32552,0.123697 0.54687,0.371092 0.22787,0.240885 0.35808,0.605468 0.13671,0.358072 0.1888,0.82682 z m 3.71744,0.494791 q 0,0.696613 -0.14323,1.210934 -0.13672,0.514322 -0.4362,0.833332 -0.22135,0.234374 -0.54036,0.358072 -0.31901,0.123697 -0.72917,0.123697 -0.39062,0 -0.70312,-0.110677 -0.3125,-0.117187 -0.53385,-0.33854 -0.24089,-0.234375 -0.39063,-0.592447 -0.14973,-0.364582 -0.20833,-0.839841 l 3.68489,-2.819004 q 0,0.182291 0,0.462239 0,0.273436 0,0.371092 z"
       style="font-size:13.3333px;font-family:'Roboto Mono';-inkscape-font-specification:'Roboto Mono, Normal';fill:#ffffff;fill-opacity:0.2"
       id="path1054" /><path
       d="m 111.42815,35.771881 v -9.479142 h -0.0977 l -3.58723,1.380204 v 1.100258 l 2.48046,-0.944008 v 7.942688 z"
       style="font-size:13.3333px;font-family:'Roboto Mono';-inkscape-font-specification:'Roboto Mono, Normal';fill:#ffffff;fill-opacity:0.2"
       id="path1051" /><path
       d="m 121.4737,32.145588 v -2.220046 q 0,-0.904946 -0.20834,-1.601559 -0.20833,-0.703123 -0.59895,-1.184892 -0.39714,-0.48177 -0.97005,-0.729165 -0.56641,-0.253906 -1.29557,-0.253906 -0.72266,0 -1.29557,0.253906 -0.56641,0.247395 -0.95703,0.729165 -0.39714,0.481769 -0.60547,1.184892 -0.20833,0.696613 -0.20833,1.601559 v 2.220046 q 0,0.904946 0.20833,1.608069 0.20833,0.696613 0.60547,1.171872 0.39713,0.48828 0.97005,0.735675 0.57291,0.240885 1.29557,0.240885 0.72916,0 1.29557,-0.247395 0.5664,-0.247395 0.95703,-0.729165 0.39062,-0.475259 0.59895,-1.171872 0.20834,-0.703123 0.20834,-1.608069 z m -4.92838,-0.240885 q 0,-0.16927 0,-0.33203 0,-0.16276 0,-0.32552 v -1.588538 q 0,-0.66406 0.13021,-1.165361 0.13672,-0.507811 0.41016,-0.826821 0.22786,-0.253906 0.55338,-0.384114 0.33203,-0.136718 0.76172,-0.136718 0.42317,0 0.74218,0.123698 0.32552,0.123697 0.54688,0.371092 0.22786,0.240885 0.35807,0.605468 0.13672,0.358072 0.1888,0.82682 z m 3.71744,0.494791 q 0,0.696613 -0.14323,1.210934 -0.13672,0.514322 -0.43619,0.833332 -0.22136,0.234374 -0.54037,0.358072 -0.31901,0.123697 -0.72916,0.123697 -0.39063,0 -0.70313,-0.110677 -0.31249,-0.117187 -0.53385,-0.33854 -0.24088,-0.234375 -0.39062,-0.592447 -0.14974,-0.364582 -0.20833,-0.839841 l 3.68488,-2.819004 q 0,0.182291 0,0.462239 0,0.273436 0,0.371092 z"
       style="font-size:13.3333px;font-family:'Roboto Mono';-inkscape-font-specification:'Roboto Mono, Normal';fill:#ffffff;fill-opacity:0.2"
       id="path1048" /><path
       d="m 127.43071,35.771881 v -9.479142 h -0.0977 l -3.58723,1.380204 v 1.100258 l 2.48046,-0.944008 v 7.942688 z"
       style="font-size:13.3333px;font-family:'Roboto Mono';-inkscape-font-specification:'Roboto Mono, Normal';fill:#ffffff;fill-opacity:0.2"
       id="path1045" /><path
       d="m 137.47626,32.145588 v -2.220046 q 0,-0.904946 -0.20833,-1.601559 -0.20834,-0.703123 -0.59896,-1.184892 -0.39713,-0.48177 -0.97005,-0.729165 -0.5664,-0.253906 -1.29557,-0.253906 -0.72265,0 -1.29557,0.253906 -0.5664,0.247395 -0.95703,0.729165 -0.39713,0.481769 -0.60546,1.184892 -0.20834,0.696613 -0.20834,1.601559 v 2.220046 q 0,0.904946 0.20834,1.608069 0.20833,0.696613 0.60546,1.171872 0.39714,0.48828 0.97005,0.735675 0.57292,0.240885 1.29557,0.240885 0.72917,0 1.29557,-0.247395 0.56641,-0.247395 0.95703,-0.729165 0.39062,-0.475259 0.59896,-1.171872 0.20833,-0.703123 0.20833,-1.608069 z m -4.92837,-0.240885 q 0,-0.16927 0,-0.33203 0,-0.16276 0,-0.32552 v -1.588538 q 0,-0.66406 0.1302,-1.165361 0.13672,-0.507811 0.41016,-0.826821 0.22786,-0.253906 0.55338,-0.384114 0.33203,-0.136718 0.76172,-0.136718 0.42318,0 0.74219,0.123698 0.32552,0.123697 0.54687,0.371092 0.22786,0.240885 0.35807,0.605468 0.13672,0.358072 0.1888,0.82682 z m 3.71744,0.494791 q 0,0.696613 -0.14323,1.210934 -0.13672,0.514322 -0.4362,0.833332 -0.22135,0.234374 -0.54036,0.358072 -0.31901,0.123697 -0.72917,0.123697 -0.39062,0 -0.70312,-0.110677 -0.3125,-0.117187 -0.53385,-0.33854 -0.24089,-0.234375 -0.39063,-0.592447 -0.14974,-0.364582 -0.20833,-0.839841 l 3.68489,-2.819004 q 0,0.182291 0,0.462239 0,0.273436 0,0.371092 z"
       style="font-size:13.3333px;font-family:'Roboto Mono';-inkscape-font-specification:'Roboto Mono, Normal';fill:#ffffff;fill-opacity:0.2"
       id="path1042" /><path
       d="m 145.47754,32.145588 v -2.220046 q 0,-0.904946 -0.20833,-1.601559 -0.20833,-0.703123 -0.59896,-1.184892 -0.39713,-0.48177 -0.97005,-0.729165 -0.5664,-0.253906 -1.29557,-0.253906 -0.72265,0 -1.29557,0.253906 -0.5664,0.247395 -0.95703,0.729165 -0.39713,0.481769 -0.60546,1.184892 -0.20834,0.696613 -0.20834,1.601559 v 2.220046 q 0,0.904946 0.20834,1.608069 0.20833,0.696613 0.60546,1.171872 0.39714,0.48828 0.97005,0.735675 0.57292,0.240885 1.29557,0.240885 0.72917,0 1.29557,-0.247395 0.56641,-0.247395 0.95703,-0.729165 0.39063,-0.475259 0.59896,-1.171872 0.20833,-0.703123 0.20833,-1.608069 z m -4.92837,-0.240885 q 0,-0.16927 0,-0.33203 0,-0.16276 0,-0.32552 v -1.588538 q 0,-0.66406 0.13021,-1.165361 0.13671,-0.507811 0.41015,-0.826821 0.22787,-0.253906 0.55339,-0.384114 0.33203,-0.136718 0.76171,-0.136718 0.42318,0 0.74219,0.123698 0.32552,0.123697 0.54687,0.371092 0.22787,0.240885 0.35807,0.605468 0.13672,0.358072 0.18881,0.82682 z m 3.71744,0.494791 q 0,0.696613 -0.14323,1.210934 -0.13672,0.514322 -0.4362,0.833332 -0.22135,0.234374 -0.54036,0.358072 -0.31901,0.123697 -0.72917,0.123697 -0.39062,0 -0.70312,-0.110677 -0.3125,-0.117187 -0.53385,-0.33854 -0.24089,-0.234375 -0.39063,-0.592447 -0.14974,-0.364582 -0.20833,-0.839841 l 3.68489,-2.819004 q 0,0.182291 0,0.462239 0,0.273436 0,0.371092 z"
       style="font-size:13.3333px;font-family:'Roboto Mono';-inkscape-font-specification:'Roboto Mono, Normal';fill:#ffffff;fill-opacity:0.2"
       id="path1039" /><path
       d="m 151.43456,35.771881 v -9.479142 h -0.0977 l -3.58723,1.380204 v 1.100258 l 2.48046,-0.944008 v 7.942688 z"
       style="font-size:13.3333px;font-family:'Roboto Mono';-inkscape-font-specification:'Roboto Mono, Normal';fill:#ffffff;fill-opacity:0.2"
       id="path1036" /><path
       d="m 25.458315,50.595333 v -2.220046 q 0,-0.904946 -0.208332,-1.601558 -0.208333,-0.703124 -0.598957,-1.184893 -0.397135,-0.48177 -0.97005,-0.729165 -0.566405,-0.253906 -1.295569,-0.253906 -0.722655,0 -1.29557,0.253906 -0.566405,0.247395 -0.957029,0.729165 -0.397134,0.481769 -0.605467,1.184893 -0.208333,0.696612 -0.208333,1.601558 v 2.220046 q 0,0.904946 0.208333,1.608069 0.208333,0.696613 0.605467,1.171872 0.397134,0.48828 0.97005,0.735676 0.572915,0.240884 1.295569,0.240884 0.729165,0 1.29557,-0.247395 0.566405,-0.247395 0.957029,-0.729165 0.390624,-0.475259 0.598957,-1.171872 0.208332,-0.703123 0.208332,-1.608069 z m -4.928373,-0.240884 q 0,-0.169271 0,-0.332031 0,-0.16276 0,-0.32552 v -1.588537 q 0,-0.664061 0.130208,-1.165362 0.136719,-0.507811 0.410156,-0.826821 0.227864,-0.253905 0.553384,-0.384113 0.33203,-0.136719 0.761717,-0.136719 0.423176,0 0.742185,0.123698 0.32552,0.123697 0.546874,0.371093 0.227864,0.240884 0.358072,0.605467 0.136718,0.358072 0.188801,0.826821 z m 3.717439,0.49479 q 0,0.696613 -0.143229,1.210935 -0.136718,0.514321 -0.436197,0.833331 -0.221353,0.234374 -0.540363,0.358072 -0.319009,0.123697 -0.729165,0.123697 -0.390624,0 -0.703123,-0.110676 -0.312499,-0.117188 -0.533853,-0.338541 -0.240885,-0.234375 -0.390624,-0.592447 -0.149739,-0.364582 -0.208333,-0.839841 l 3.684887,-2.819004 q 0,0.182292 0,0.462239 0,0.273437 0,0.371093 z"
       style="font-size:13.3333px;font-family:'Roboto Mono';-inkscape-font-specification:'Roboto Mono, Normal';fill:#ffffff;fill-opacity:0.2"
       id="path1033" /><path
       d="m 31.415332,54.221626 v -9.479142 h -0.09766 l -3.587231,1.380205 v 1.100257 l 2.480462,-0.944008 v 7.942688 z"
       style="font-size:13.3333px;font-family:'Roboto Mono';-inkscape-font-specification:'Roboto Mono, Normal';fill:#ffffff;fill-opacity:0.2"
       id="path1030" /><path
       d="m 41.460879,50.595333 v -2.220046 q 0,-0.904946 -0.208333,-1.601558 -0.208333,-0.703124 -0.598957,-1.184893 -0.397134,-0.48177 -0.970049,-0.729165 -0.566405,-0.253906 -1.29557,-0.253906 -0.722654,0 -1.29557,0.253906 -0.566404,0.247395 -0.957028,0.729165 -0.397135,0.481769 -0.605468,1.184893 -0.208332,0.696612 -0.208332,1.601558 v 2.220046 q 0,0.904946 0.208332,1.608069 0.208333,0.696613 0.605468,1.171872 0.397134,0.48828 0.970049,0.735676 0.572915,0.240884 1.29557,0.240884 0.729165,0 1.295569,-0.247395 0.566405,-0.247395 0.957029,-0.729165 0.390624,-0.475259 0.598957,-1.171872 0.208333,-0.703123 0.208333,-1.608069 z m -4.928373,-0.240884 q 0,-0.169271 0,-0.332031 0,-0.16276 0,-0.32552 v -1.588537 q 0,-0.664061 0.130208,-1.165362 0.136718,-0.507811 0.410155,-0.826821 0.227864,-0.253905 0.553384,-0.384113 0.332031,-0.136719 0.761717,-0.136719 0.423176,0 0.742186,0.123698 0.32552,0.123697 0.546873,0.371093 0.227864,0.240884 0.358072,0.605467 0.136719,0.358072 0.188802,0.826821 z m 3.717438,0.49479 q 0,0.696613 -0.143228,1.210935 -0.136719,0.514321 -0.436197,0.833331 -0.221354,0.234374 -0.540363,0.358072 -0.31901,0.123697 -0.729165,0.123697 -0.390624,0 -0.703123,-0.110676 -0.3125,-0.117188 -0.533853,-0.338541 -0.240885,-0.234375 -0.390624,-0.592447 -0.149739,-0.364582 -0.208333,-0.839841 l 3.684886,-2.819004 q 0,0.182292 0,0.462239 0,0.273437 0,0.371093 z"
       style="font-size:13.3333px;font-family:'Roboto Mono';-inkscape-font-specification:'Roboto Mono, Normal';fill:#ffffff;fill-opacity:0.2"
       id="path1027" /><path
       d="m 49.462161,50.595333 v -2.220046 q 0,-0.904946 -0.208333,-1.601558 -0.208333,-0.703124 -0.598957,-1.184893 -0.397134,-0.48177 -0.97005,-0.729165 -0.566404,-0.253906 -1.295569,-0.253906 -0.722655,0 -1.29557,0.253906 -0.566405,0.247395 -0.957029,0.729165 -0.397134,0.481769 -0.605467,1.184893 -0.208333,0.696612 -0.208333,1.601558 v 2.220046 q 0,0.904946 0.208333,1.608069 0.208333,0.696613 0.605467,1.171872 0.397135,0.48828 0.97005,0.735676 0.572915,0.240884 1.29557,0.240884 0.729164,0 1.295569,-0.247395 0.566405,-0.247395 0.957029,-0.729165 0.390624,-0.475259 0.598957,-1.171872 0.208333,-0.703123 0.208333,-1.608069 z m -4.928373,-0.240884 q 0,-0.169271 0,-0.332031 0,-0.16276 0,-0.32552 v -1.588537 q 0,-0.664061 0.130208,-1.165362 0.136718,-0.507811 0.410155,-0.826821 0.227864,-0.253905 0.553384,-0.384113 0.33203,-0.136719 0.761717,-0.136719 0.423176,0 0.742185,0.123698 0.32552,0.123697 0.546874,0.371093 0.227864,0.240884 0.358072,0.605467 0.136718,0.358072 0.188802,0.826821 z m 3.717438,0.49479 q 0,0.696613 -0.143229,1.210935 -0.136718,0.514321 -0.436196,0.833331 -0.221354,0.234374 -0.540364,0.358072 -0.319009,0.123697 -0.729164,0.123697 -0.390624,0 -0.703124,-0.110676 Q 45.38665,53.14741 45.165297,52.926057 44.924412,52.691682 44.774672,52.33361 44.624933,51.969028 44.56634,51.493769 l 3.684886,-2.819004 q 0,0.182292 0,0.462239 0,0.273437 0,0.371093 z"
       style="font-size:13.3333px;font-family:'Roboto Mono';-inkscape-font-specification:'Roboto Mono, Normal';fill:#ffffff;fill-opacity:0.2"
       id="path1024" /><path
       d="m 55.419177,54.221626 v -9.479142 h -0.09766 l -3.587231,1.380205 v 1.100257 l 2.480463,-0.944008 v 7.942688 z"
       style="font-size:13.3333px;font-family:'Roboto Mono';-inkscape-font-specification:'Roboto Mono, Normal';fill:#ffffff;fill-opacity:0.2"
       id="path1021" /><path
       d="m 65.464724,50.595333 v -2.220046 q 0,-0.904946 -0.208333,-1.601558 -0.208332,-0.703124 -0.598957,-1.184893 -0.397134,-0.48177 -0.970049,-0.729165 -0.566405,-0.253906 -1.29557,-0.253906 -0.722654,0 -1.295569,0.253906 -0.566405,0.247395 -0.957029,0.729165 -0.397135,0.481769 -0.605467,1.184893 -0.208333,0.696612 -0.208333,1.601558 v 2.220046 q 0,0.904946 0.208333,1.608069 0.208332,0.696613 0.605467,1.171872 0.397134,0.48828 0.970049,0.735676 0.572916,0.240884 1.29557,0.240884 0.729165,0 1.29557,-0.247395 0.566404,-0.247395 0.957028,-0.729165 0.390625,-0.475259 0.598957,-1.171872 0.208333,-0.703123 0.208333,-1.608069 z m -4.928373,-0.240884 q 0,-0.169271 0,-0.332031 0,-0.16276 0,-0.32552 v -1.588537 q 0,-0.664061 0.130208,-1.165362 0.136719,-0.507811 0.410155,-0.826821 0.227864,-0.253905 0.553384,-0.384113 0.332031,-0.136719 0.761717,-0.136719 0.423176,0 0.742186,0.123698 0.32552,0.123697 0.546873,0.371093 0.227864,0.240884 0.358072,0.605467 0.136719,0.358072 0.188802,0.826821 z m 3.717439,0.49479 q 0,0.696613 -0.143229,1.210935 -0.136719,0.514321 -0.436197,0.833331 -0.221354,0.234374 -0.540363,0.358072 -0.31901,0.123697 -0.729165,0.123697 -0.390624,0 -0.703123,-0.110676 Q 61.389214,53.14741 61.16786,52.926057 60.926975,52.691682 60.777236,52.33361 60.627497,51.969028 60.568903,51.493769 l 3.684887,-2.819004 q 0,0.182292 0,0.462239 0,0.273437 0,0.371093 z"
       style="font-size:13.3333px;font-family:'Roboto Mono';-inkscape-font-specification:'Roboto Mono, Normal';fill:#ffffff;fill-opacity:0.2"
       id="path1018" /><path
       d="m 71.42174,54.221626 v -9.479142 h -0.09766 l -3.58723,1.380205 v 1.100257 l 2.480462,-0.944008 v 7.942688 z"
       style="font-size:13.3333px;font-family:'Roboto Mono';-inkscape-font-specification:'Roboto Mono, Normal';fill:#ffffff;fill-opacity:0.2"
       id="path1015" /><path
       d="m 81.467288,50.595333 v -2.220046 q 0,-0.904946 -0.208333,-1.601558 -0.208333,-0.703124 -0.598957,-1.184893 -0.397134,-0.48177 -0.97005,-0.729165 -0.566404,-0.253906 -1.295569,-0.253906 -0.722655,0 -1.29557,0.253906 -0.566405,0.247395 -0.957029,0.729165 -0.397134,0.481769 -0.605467,1.184893 -0.208333,0.696612 -0.208333,1.601558 v 2.220046 q 0,0.904946 0.208333,1.608069 0.208333,0.696613 0.605467,1.171872 0.397135,0.48828 0.97005,0.735676 0.572915,0.240884 1.295569,0.240884 0.729165,0 1.29557,-0.247395 0.566405,-0.247395 0.957029,-0.729165 0.390624,-0.475259 0.598957,-1.171872 0.208333,-0.703123 0.208333,-1.608069 z m -4.928373,-0.240884 q 0,-0.169271 0,-0.332031 0,-0.16276 0,-0.32552 v -1.588537 q 0,-0.664061 0.130208,-1.165362 0.136718,-0.507811 0.410155,-0.826821 0.227864,-0.253905 0.553384,-0.384113 0.33203,-0.136719 0.761717,-0.136719 0.423176,0 0.742185,0.123698 0.32552,0.123697 0.546874,0.371093 0.227864,0.240884 0.358072,0.605467 0.136718,0.358072 0.188802,0.826821 z m 3.717438,0.49479 q 0,0.696613 -0.143229,1.210935 -0.136718,0.514321 -0.436196,0.833331 -0.221354,0.234374 -0.540364,0.358072 -0.319009,0.123697 -0.729165,0.123697 -0.390624,0 -0.703123,-0.110676 Q 77.391777,53.14741 77.170423,52.926057 76.929539,52.691682 76.779799,52.33361 76.63006,51.969028 76.571467,51.493769 l 3.684886,-2.819004 q 0,0.182292 0,0.462239 0,0.273437 0,0.371093 z"
       style="font-size:13.3333px;font-family:'Roboto Mono';-inkscape-font-specification:'Roboto Mono, Normal';fill:#ffffff;fill-opacity:0.2"
       id="path1012" /><path
       d="m 87.424304,54.221626 v -9.479142 h -0.09766 l -3.587231,1.380205 v 1.100257 l 2.480463,-0.944008 v 7.942688 z"
       style="font-size:13.3333px;font-family:'Roboto Mono';-inkscape-font-specification:'Roboto Mono, Normal';fill:#ffffff;fill-opacity:0.2"
       id="path1009" /><path
       d="m 97.469851,50.595333 v -2.220046 q 0,-0.904946 -0.208333,-1.601558 -0.208333,-0.703124 -0.598957,-1.184893 -0.397134,-0.48177 -0.970049,-0.729165 -0.566405,-0.253906 -1.29557,-0.253906 -0.722654,0 -1.295569,0.253906 -0.566405,0.247395 -0.957029,0.729165 -0.397135,0.481769 -0.605468,1.184893 -0.208332,0.696612 -0.208332,1.601558 v 2.220046 q 0,0.904946 0.208332,1.608069 0.208333,0.696613 0.605468,1.171872 0.397134,0.48828 0.970049,0.735676 0.572916,0.240884 1.29557,0.240884 0.729165,0 1.29557,-0.247395 0.566404,-0.247395 0.957028,-0.729165 0.390624,-0.475259 0.598957,-1.171872 0.208333,-0.703123 0.208333,-1.608069 z m -4.928373,-0.240884 q 0,-0.169271 0,-0.332031 0,-0.16276 0,-0.32552 v -1.588537 q 0,-0.664061 0.130208,-1.165362 0.136719,-0.507811 0.410155,-0.826821 0.227864,-0.253905 0.553384,-0.384113 0.332031,-0.136719 0.761717,-0.136719 0.423176,0 0.742186,0.123698 0.32552,0.123697 0.546873,0.371093 0.227864,0.240884 0.358072,0.605467 0.136719,0.358072 0.188802,0.826821 z m 3.717439,0.49479 q 0,0.696613 -0.143229,1.210935 -0.136719,0.514321 -0.436197,0.833331 -0.221354,0.234374 -0.540363,0.358072 -0.31901,0.123697 -0.729165,0.123697 -0.390624,0 -0.703123,-0.110676 Q 93.394341,53.14741 93.172987,52.926057 92.932102,52.691682 92.782363,52.33361 92.632624,51.969028 92.57403,51.493769 l 3.684887,-2.819004 q 0,0.182292 0,0.462239 0,0.273437 0,0.371093 z"
       style="font-size:13.3333px;font-family:'Roboto Mono';-inkscape-font-specification:'Roboto Mono, Normal';fill:#ffffff;fill-opacity:0.2"
       id="path1006" /><path
       d="m 103.42687,54.221626 v -9.479142 h -0.0977 l -3.587229,1.380205 v 1.100257 l 2.480459,-0.944008 v 7.942688 z"
       style="font-size:13.3333px;font-family:'Roboto Mono';-inkscape-font-specification:'Roboto Mono, Normal';fill:#ffffff;fill-opacity:0.2"
       id="path1003" /><path
       d="m 111.42815,54.221626 v -9.479142 h -0.0977 l -3.58723,1.380205 v 1.100257 l 2.48046,-0.944008 v 7.942688 z"
       style="font-size:13.3333px;font-family:'Roboto Mono';-inkscape-font-specification:'Roboto Mono, Normal';fill:#ffffff;fill-opacity:0.2"
       id="path1000" /><path
       d="m 119.42943,54.221626 v -9.479142 h -0.0977 l -3.58723,1.380205 v 1.100257 l 2.48047,-0.944008 v 7.942688 z"
       style="font-size:13.3333px;font-family:'Roboto Mono';-inkscape-font-specification:'Roboto Mono, Normal';fill:#ffffff;fill-opacity:0.2"
       id="path997" /><path
       d="m 127.43071,54.221626 v -9.479142 h -0.0977 l -3.58723,1.380205 v 1.100257 l 2.48046,-0.944008 v 7.942688 z"
       style="font-size:13.3333px;font-family:'Roboto Mono';-inkscape-font-specification:'Roboto Mono, Normal';fill:#ffffff;fill-opacity:0.2"
       id="path994" /><path
       d="m 135.43199,54.221626 v -9.479142 h -0.0977 l -3.58723,1.380205 v 1.100257 l 2.48046,-0.944008 v 7.942688 z"
       style="font-size:13.3333px;font-family:'Roboto Mono';-inkscape-font-specification:'Roboto Mono, Normal';fill:#ffffff;fill-opacity:0.2"
       id="path991" /><path
       d="m 145.47754,50.595333 v -2.220046 q 0,-0.904946 -0.20833,-1.601558 -0.20833,-0.703124 -0.59896,-1.184893 -0.39713,-0.48177 -0.97005,-0.729165 -0.5664,-0.253906 -1.29557,-0.253906 -0.72265,0 -1.29557,0.253906 -0.5664,0.247395 -0.95703,0.729165 -0.39713,0.481769 -0.60546,1.184893 -0.20834,0.696612 -0.20834,1.601558 v 2.220046 q 0,0.904946 0.20834,1.608069 0.20833,0.696613 0.60546,1.171872 0.39714,0.48828 0.97005,0.735676 0.57292,0.240884 1.29557,0.240884 0.72917,0 1.29557,-0.247395 0.56641,-0.247395 0.95703,-0.729165 0.39063,-0.475259 0.59896,-1.171872 0.20833,-0.703123 0.20833,-1.608069 z m -4.92837,-0.240884 q 0,-0.169271 0,-0.332031 0,-0.16276 0,-0.32552 v -1.588537 q 0,-0.664061 0.13021,-1.165362 0.13671,-0.507811 0.41015,-0.826821 0.22787,-0.253905 0.55339,-0.384113 0.33203,-0.136719 0.76171,-0.136719 0.42318,0 0.74219,0.123698 0.32552,0.123697 0.54687,0.371093 0.22787,0.240884 0.35807,0.605467 0.13672,0.358072 0.18881,0.826821 z m 3.71744,0.49479 q 0,0.696613 -0.14323,1.210935 -0.13672,0.514321 -0.4362,0.833331 -0.22135,0.234374 -0.54036,0.358072 -0.31901,0.123697 -0.72917,0.123697 -0.39062,0 -0.70312,-0.110676 -0.3125,-0.117188 -0.53385,-0.338541 -0.24089,-0.234375 -0.39063,-0.592447 -0.14974,-0.364582 -0.20833,-0.839841 l 3.68489,-2.819004 q 0,0.182292 0,0.462239 0,0.273437 0,0.371093 z"
       style="font-size:13.3333px;font-family:'Roboto Mono';-inkscape-font-specification:'Roboto Mono, Normal';fill:#ffffff;fill-opacity:0.2"
       id="path988" /><path
       d="m 151.43456,54.221626 v -9.479142 h -0.0977 l -3.58723,1.380205 v 1.100257 l 2.48046,-0.944008 v 7.942688 z"
       style="font-size:13.3333px;font-family:'Roboto Mono';-inkscape-font-specification:'Roboto Mono, Normal';fill:#ffffff;fill-opacity:0.2"
       id="path985" /><path
       d="m 25.458315,69.045079 v -2.220047 q 0,-0.904945 -0.208332,-1.601558 -0.208333,-0.703123 -0.598957,-1.184893 -0.397135,-0.48177 -0.97005,-0.729165 -0.566405,-0.253906 -1.295569,-0.253906 -0.722655,0 -1.29557,0.253906 -0.566405,0.247395 -0.957029,0.729165 -0.397134,0.48177 -0.605467,1.184893 -0.208333,0.696613 -0.208333,1.601558 v 2.220047 q 0,0.904945 0.208333,1.608069 0.208333,0.696612 0.605467,1.171872 0.397134,0.48828 0.97005,0.735675 0.572915,0.240885 1.295569,0.240885 0.729165,0 1.29557,-0.247396 0.566405,-0.247395 0.957029,-0.729164 0.390624,-0.47526 0.598957,-1.171872 0.208332,-0.703124 0.208332,-1.608069 z m -4.928373,-0.240885 q 0,-0.169271 0,-0.332031 0,-0.16276 0,-0.32552 v -1.588537 q 0,-0.664061 0.130208,-1.165362 0.136719,-0.507811 0.410156,-0.826821 0.227864,-0.253905 0.553384,-0.384113 0.33203,-0.136719 0.761717,-0.136719 0.423176,0 0.742185,0.123698 0.32552,0.123698 0.546874,0.371093 0.227864,0.240885 0.358072,0.605467 0.136718,0.358072 0.188801,0.826821 z m 3.717439,0.49479 q 0,0.696613 -0.143229,1.210935 -0.136718,0.514321 -0.436197,0.833331 -0.221353,0.234374 -0.540363,0.358072 -0.319009,0.123698 -0.729165,0.123698 -0.390624,0 -0.703123,-0.110677 -0.312499,-0.117187 -0.533853,-0.338541 -0.240885,-0.234374 -0.390624,-0.592446 -0.149739,-0.364583 -0.208333,-0.839842 l 3.684887,-2.819003 q 0,0.182291 0,0.462238 0,0.273437 0,0.371093 z"
       style="font-size:13.3333px;font-family:'Roboto Mono';-inkscape-font-specification:'Roboto Mono, Normal';fill:#ffffff;fill-opacity:0.2"
       id="path982" /><path
       d="m 33.459597,69.045079 v -2.220047 q 0,-0.904945 -0.208333,-1.601558 -0.208332,-0.703123 -0.598956,-1.184893 -0.397135,-0.48177 -0.97005,-0.729165 -0.566405,-0.253906 -1.29557,-0.253906 -0.722654,0 -1.295569,0.253906 -0.566405,0.247395 -0.957029,0.729165 -0.397135,0.48177 -0.605467,1.184893 -0.208333,0.696613 -0.208333,1.601558 v 2.220047 q 0,0.904945 0.208333,1.608069 0.208332,0.696612 0.605467,1.171872 0.397134,0.48828 0.970049,0.735675 0.572916,0.240885 1.29557,0.240885 0.729165,0 1.29557,-0.247396 0.566405,-0.247395 0.957029,-0.729164 0.390624,-0.47526 0.598956,-1.171872 0.208333,-0.703124 0.208333,-1.608069 z m -4.928373,-0.240885 q 0,-0.169271 0,-0.332031 0,-0.16276 0,-0.32552 v -1.588537 q 0,-0.664061 0.130208,-1.165362 0.136719,-0.507811 0.410155,-0.826821 0.227864,-0.253905 0.553384,-0.384113 0.332031,-0.136719 0.761717,-0.136719 0.423176,0 0.742186,0.123698 0.32552,0.123698 0.546874,0.371093 0.227864,0.240885 0.358072,0.605467 0.136718,0.358072 0.188801,0.826821 z m 3.717439,0.49479 q 0,0.696613 -0.143229,1.210935 -0.136718,0.514321 -0.436197,0.833331 -0.221353,0.234374 -0.540363,0.358072 -0.31901,0.123698 -0.729165,0.123698 -0.390624,0 -0.703123,-0.110677 -0.312499,-0.117187 -0.533853,-0.338541 -0.240885,-0.234374 -0.390624,-0.592446 -0.149739,-0.364583 -0.208333,-0.839842 l 3.684887,-2.819003 q 0,0.182291 0,0.462238 0,0.273437 0,0.371093 z"
       style="font-size:13.3333px;font-family:'Roboto Mono';-inkscape-font-specification:'Roboto Mono, Normal';fill:#ffffff;fill-opacity:0.2"
       id="path979" /><path
       d="m 39.416613,72.671372 v -9.479143 h -0.09766 l -3.58723,1.380205 v 1.100257 l 2.480462,-0.944008 v 7.942689 z"
       style="font-size:13.3333px;font-family:'Roboto Mono';-inkscape-font-specification:'Roboto Mono, Normal';fill:#ffffff;fill-opacity:0.2"
       id="path976" /><path
       d="m 49.462161,69.045079 v -2.220047 q 0,-0.904945 -0.208333,-1.601558 -0.208333,-0.703123 -0.598957,-1.184893 -0.397134,-0.48177 -0.97005,-0.729165 -0.566404,-0.253906 -1.295569,-0.253906 -0.722655,0 -1.29557,0.253906 -0.566405,0.247395 -0.957029,0.729165 -0.397134,0.48177 -0.605467,1.184893 -0.208333,0.696613 -0.208333,1.601558 v 2.220047 q 0,0.904945 0.208333,1.608069 0.208333,0.696612 0.605467,1.171872 0.397135,0.48828 0.97005,0.735675 0.572915,0.240885 1.29557,0.240885 0.729164,0 1.295569,-0.247396 0.566405,-0.247395 0.957029,-0.729164 0.390624,-0.47526 0.598957,-1.171872 0.208333,-0.703124 0.208333,-1.608069 z m -4.928373,-0.240885 q 0,-0.169271 0,-0.332031 0,-0.16276 0,-0.32552 v -1.588537 q 0,-0.664061 0.130208,-1.165362 0.136718,-0.507811 0.410155,-0.826821 0.227864,-0.253905 0.553384,-0.384113 0.33203,-0.136719 0.761717,-0.136719 0.423176,0 0.742185,0.123698 0.32552,0.123698 0.546874,0.371093 0.227864,0.240885 0.358072,0.605467 0.136718,0.358072 0.188802,0.826821 z m 3.717438,0.49479 q 0,0.696613 -0.143229,1.210935 -0.136718,0.514321 -0.436196,0.833331 -0.221354,0.234374 -0.540364,0.358072 -0.319009,0.123698 -0.729164,0.123698 -0.390624,0 -0.703124,-0.110677 -0.312499,-0.117187 -0.533852,-0.338541 -0.240885,-0.234374 -0.390625,-0.592446 -0.149739,-0.364583 -0.208332,-0.839842 l 3.684886,-2.819003 q 0,0.182291 0,0.462238 0,0.273437 0,0.371093 z"
       style="font-size:13.3333px;font-family:'Roboto Mono';-inkscape-font-specification:'Roboto Mono, Normal';fill:#ffffff;fill-opacity:0.2"
       id="path973" /><path
       d="m 57.463442,69.045079 v -2.220047 q 0,-0.904945 -0.208332,-1.601558 -0.208333,-0.703123 -0.598957,-1.184893 -0.397135,-0.48177 -0.97005,-0.729165 -0.566405,-0.253906 -1.29557,-0.253906 -0.722654,0 -1.295569,0.253906 -0.566405,0.247395 -0.957029,0.729165 -0.397134,0.48177 -0.605467,1.184893 -0.208333,0.696613 -0.208333,1.601558 v 2.220047 q 0,0.904945 0.208333,1.608069 0.208333,0.696612 0.605467,1.171872 0.397134,0.48828 0.97005,0.735675 0.572915,0.240885 1.295569,0.240885 0.729165,0 1.29557,-0.247396 0.566405,-0.247395 0.957029,-0.729164 0.390624,-0.47526 0.598957,-1.171872 0.208332,-0.703124 0.208332,-1.608069 z m -4.928373,-0.240885 q 0,-0.169271 0,-0.332031 0,-0.16276 0,-0.32552 v -1.588537 q 0,-0.664061 0.130208,-1.165362 0.136719,-0.507811 0.410156,-0.826821 0.227864,-0.253905 0.553384,-0.384113 0.33203,-0.136719 0.761716,-0.136719 0.423176,0 0.742186,0.123698 0.32552,0.123698 0.546874,0.371093 0.227864,0.240885 0.358072,0.605467 0.136718,0.358072 0.188801,0.826821 z m 3.717439,0.49479 q 0,0.696613 -0.143229,1.210935 -0.136718,0.514321 -0.436197,0.833331 -0.221353,0.234374 -0.540363,0.358072 -0.31901,0.123698 -0.729165,0.123698 -0.390624,0 -0.703123,-0.110677 -0.312499,-0.117187 -0.533853,-0.338541 -0.240885,-0.234374 -0.390624,-0.592446 -0.149739,-0.364583 -0.208333,-0.839842 l 3.684887,-2.819003 q 0,0.182291 0,0.462238 0,0.273437 0,0.371093 z"
       style="font-size:13.3333px;font-family:'Roboto Mono';-inkscape-font-specification:'Roboto Mono, Normal';fill:#ffffff;fill-opacity:0.2"
       id="path970" /><path
       d="m 63.420458,72.671372 v -9.479143 h -0.09766 l -3.58723,1.380205 v 1.100257 l 2.480462,-0.944008 v 7.942689 z"
       style="font-size:13.3333px;font-family:'Roboto Mono';-inkscape-font-specification:'Roboto Mono, Normal';fill:#ffffff;fill-opacity:0.2"
       id="path967" /><path
       d="m 73.466006,69.045079 v -2.220047 q 0,-0.904945 -0.208333,-1.601558 -0.208333,-0.703123 -0.598957,-1.184893 -0.397134,-0.48177 -0.970049,-0.729165 -0.566405,-0.253906 -1.29557,-0.253906 -0.722654,0 -1.29557,0.253906 -0.566404,0.247395 -0.957029,0.729165 -0.397134,0.48177 -0.605467,1.184893 -0.208333,0.696613 -0.208333,1.601558 v 2.220047 q 0,0.904945 0.208333,1.608069 0.208333,0.696612 0.605467,1.171872 0.397135,0.48828 0.97005,0.735675 0.572915,0.240885 1.29557,0.240885 0.729165,0 1.295569,-0.247396 0.566405,-0.247395 0.957029,-0.729164 0.390624,-0.47526 0.598957,-1.171872 0.208333,-0.703124 0.208333,-1.608069 z m -4.928373,-0.240885 q 0,-0.169271 0,-0.332031 0,-0.16276 0,-0.32552 v -1.588537 q 0,-0.664061 0.130208,-1.165362 0.136718,-0.507811 0.410155,-0.826821 0.227864,-0.253905 0.553384,-0.384113 0.332031,-0.136719 0.761717,-0.136719 0.423176,0 0.742186,0.123698 0.32552,0.123698 0.546873,0.371093 0.227864,0.240885 0.358072,0.605467 0.136719,0.358072 0.188802,0.826821 z m 3.717438,0.49479 q 0,0.696613 -0.143228,1.210935 -0.136719,0.514321 -0.436197,0.833331 -0.221354,0.234374 -0.540363,0.358072 -0.31901,0.123698 -0.729165,0.123698 -0.390624,0 -0.703123,-0.110677 -0.3125,-0.117187 -0.533853,-0.338541 -0.240885,-0.234374 -0.390624,-0.592446 -0.149739,-0.364583 -0.208333,-0.839842 l 3.684886,-2.819003 q 0,0.182291 0,0.462238 0,0.273437 0,0.371093 z"
       style="font-size:13.3333px;font-family:'Roboto Mono';-inkscape-font-specification:'Roboto Mono, Normal';fill:#ffffff;fill-opacity:0.2"
       id="path964" /><path
       d="m 79.423022,72.671372 v -9.479143 h -0.09766 l -3.587231,1.380205 v 1.100257 l 2.480463,-0.944008 v 7.942689 z"
       style="font-size:13.3333px;font-family:'Roboto Mono';-inkscape-font-specification:'Roboto Mono, Normal';fill:#ffffff;fill-opacity:0.2"
       id="path961" /><path
       d="m 89.468569,69.045079 v -2.220047 q 0,-0.904945 -0.208332,-1.601558 -0.208333,-0.703123 -0.598957,-1.184893 -0.397135,-0.48177 -0.97005,-0.729165 -0.566405,-0.253906 -1.29557,-0.253906 -0.722654,0 -1.295569,0.253906 -0.566405,0.247395 -0.957029,0.729165 -0.397134,0.48177 -0.605467,1.184893 -0.208333,0.696613 -0.208333,1.601558 v 2.220047 q 0,0.904945 0.208333,1.608069 0.208333,0.696612 0.605467,1.171872 0.397134,0.48828 0.97005,0.735675 0.572915,0.240885 1.295569,0.240885 0.729165,0 1.29557,-0.247396 0.566405,-0.247395 0.957029,-0.729164 0.390624,-0.47526 0.598957,-1.171872 0.208332,-0.703124 0.208332,-1.608069 z m -4.928373,-0.240885 q 0,-0.169271 0,-0.332031 0,-0.16276 0,-0.32552 v -1.588537 q 0,-0.664061 0.130208,-1.165362 0.136719,-0.507811 0.410156,-0.826821 0.227864,-0.253905 0.553384,-0.384113 0.33203,-0.136719 0.761716,-0.136719 0.423176,0 0.742186,0.123698 0.32552,0.123698 0.546874,0.371093 0.227864,0.240885 0.358072,0.605467 0.136718,0.358072 0.188801,0.826821 z m 3.717439,0.49479 q 0,0.696613 -0.143229,1.210935 -0.136718,0.514321 -0.436197,0.833331 -0.221353,0.234374 -0.540363,0.358072 -0.31901,0.123698 -0.729165,0.123698 -0.390624,0 -0.703123,-0.110677 -0.312499,-0.117187 -0.533853,-0.338541 -0.240885,-0.234374 -0.390624,-0.592446 -0.149739,-0.364583 -0.208333,-0.839842 l 3.684887,-2.819003 q 0,0.182291 0,0.462238 0,0.273437 0,0.371093 z"
       style="font-size:13.3333px;font-family:'Roboto Mono';-inkscape-font-specification:'Roboto Mono, Normal';fill:#ffffff;fill-opacity:0.2"
       id="path958" /><path
       d="m 95.425585,72.671372 v -9.479143 h -0.09766 l -3.58723,1.380205 v 1.100257 l 2.480462,-0.944008 v 7.942689 z"
       style="font-size:13.3333px;font-family:'Roboto Mono';-inkscape-font-specification:'Roboto Mono, Normal';fill:#ffffff;fill-opacity:0.2"
       id="path955" /><path
       d="m 105.47113,69.045079 v -2.220047 q 0,-0.904945 -0.20833,-1.601558 -0.20833,-0.703123 -0.59896,-1.184893 -0.39713,-0.48177 -0.97005,-0.729165 -0.5664,-0.253906 -1.29557,-0.253906 -0.72265,0 -1.29557,0.253906 -0.5664,0.247395 -0.95702,0.729165 -0.397139,0.48177 -0.605472,1.184893 -0.208333,0.696613 -0.208333,1.601558 v 2.220047 q 0,0.904945 0.208333,1.608069 0.208333,0.696612 0.605472,1.171872 0.39713,0.48828 0.97005,0.735675 0.57291,0.240885 1.29556,0.240885 0.72917,0 1.29557,-0.247396 0.56641,-0.247395 0.95703,-0.729164 0.39063,-0.47526 0.59896,-1.171872 0.20833,-0.703124 0.20833,-1.608069 z m -4.92837,-0.240885 q 0,-0.169271 0,-0.332031 0,-0.16276 0,-0.32552 v -1.588537 q 0,-0.664061 0.13021,-1.165362 0.13672,-0.507811 0.41015,-0.826821 0.22787,-0.253905 0.55339,-0.384113 0.33203,-0.136719 0.76171,-0.136719 0.42318,0 0.74219,0.123698 0.32552,0.123698 0.54687,0.371093 0.22787,0.240885 0.35808,0.605467 0.13671,0.358072 0.1888,0.826821 z m 3.71744,0.49479 q 0,0.696613 -0.14323,1.210935 -0.13672,0.514321 -0.4362,0.833331 -0.22135,0.234374 -0.54036,0.358072 -0.31901,0.123698 -0.72917,0.123698 -0.39062,0 -0.70312,-0.110677 -0.3125,-0.117187 -0.53385,-0.338541 -0.24089,-0.234374 -0.39063,-0.592446 -0.14973,-0.364583 -0.20833,-0.839842 l 3.68489,-2.819003 q 0,0.182291 0,0.462238 0,0.273437 0,0.371093 z"
       style="font-size:13.3333px;font-family:'Roboto Mono';-inkscape-font-specification:'Roboto Mono, Normal';fill:#ffffff;fill-opacity:0.2"
       id="path952" /><path
       d="m 111.42815,72.671372 v -9.479143 h -0.0977 l -3.58723,1.380205 v 1.100257 l 2.48046,-0.944008 v 7.942689 z"
       style="font-size:13.3333px;font-family:'Roboto Mono';-inkscape-font-specification:'Roboto Mono, Normal';fill:#ffffff;fill-opacity:0.2"
       id="path949" /><path
       d="m 121.4737,69.045079 v -2.220047 q 0,-0.904945 -0.20834,-1.601558 -0.20833,-0.703123 -0.59895,-1.184893 -0.39714,-0.48177 -0.97005,-0.729165 -0.56641,-0.253906 -1.29557,-0.253906 -0.72266,0 -1.29557,0.253906 -0.56641,0.247395 -0.95703,0.729165 -0.39714,0.48177 -0.60547,1.184893 -0.20833,0.696613 -0.20833,1.601558 v 2.220047 q 0,0.904945 0.20833,1.608069 0.20833,0.696612 0.60547,1.171872 0.39713,0.48828 0.97005,0.735675 0.57291,0.240885 1.29557,0.240885 0.72916,0 1.29557,-0.247396 0.5664,-0.247395 0.95703,-0.729164 0.39062,-0.47526 0.59895,-1.171872 0.20834,-0.703124 0.20834,-1.608069 z m -4.92838,-0.240885 q 0,-0.169271 0,-0.332031 0,-0.16276 0,-0.32552 v -1.588537 q 0,-0.664061 0.13021,-1.165362 0.13672,-0.507811 0.41016,-0.826821 0.22786,-0.253905 0.55338,-0.384113 0.33203,-0.136719 0.76172,-0.136719 0.42317,0 0.74218,0.123698 0.32552,0.123698 0.54688,0.371093 0.22786,0.240885 0.35807,0.605467 0.13672,0.358072 0.1888,0.826821 z m 3.71744,0.49479 q 0,0.696613 -0.14323,1.210935 -0.13672,0.514321 -0.43619,0.833331 -0.22136,0.234374 -0.54037,0.358072 -0.31901,0.123698 -0.72916,0.123698 -0.39063,0 -0.70313,-0.110677 -0.31249,-0.117187 -0.53385,-0.338541 -0.24088,-0.234374 -0.39062,-0.592446 -0.14974,-0.364583 -0.20833,-0.839842 l 3.68488,-2.819003 q 0,0.182291 0,0.462238 0,0.273437 0,0.371093 z"
       style="font-size:13.3333px;font-family:'Roboto Mono';-inkscape-font-specification:'Roboto Mono, Normal';fill:#ffffff;fill-opacity:0.2"
       id="path946" /><path
       d="m 129.47498,69.045079 v -2.220047 q 0,-0.904945 -0.20833,-1.601558 -0.20834,-0.703123 -0.59896,-1.184893 -0.39714,-0.48177 -0.97005,-0.729165 -0.56641,-0.253906 -1.29557,-0.253906 -0.72266,0 -1.29557,0.253906 -0.56641,0.247395 -0.95703,0.729165 -0.39713,0.48177 -0.60547,1.184893 -0.20833,0.696613 -0.20833,1.601558 v 2.220047 q 0,0.904945 0.20833,1.608069 0.20834,0.696612 0.60547,1.171872 0.39714,0.48828 0.97005,0.735675 0.57292,0.240885 1.29557,0.240885 0.72916,0 1.29557,-0.247396 0.5664,-0.247395 0.95703,-0.729164 0.39062,-0.47526 0.59896,-1.171872 0.20833,-0.703124 0.20833,-1.608069 z m -4.92837,-0.240885 q 0,-0.169271 0,-0.332031 0,-0.16276 0,-0.32552 v -1.588537 q 0,-0.664061 0.1302,-1.165362 0.13672,-0.507811 0.41016,-0.826821 0.22786,-0.253905 0.55338,-0.384113 0.33203,-0.136719 0.76172,-0.136719 0.42318,0 0.74218,0.123698 0.32552,0.123698 0.54688,0.371093 0.22786,0.240885 0.35807,0.605467 0.13672,0.358072 0.1888,0.826821 z m 3.71743,0.49479 q 0,0.696613 -0.14323,1.210935 -0.13671,0.514321 -0.43619,0.833331 -0.22136,0.234374 -0.54037,0.358072 -0.319,0.123698 -0.72916,0.123698 -0.39062,0 -0.70312,-0.110677 -0.3125,-0.117187 -0.53386,-0.338541 -0.24088,-0.234374 -0.39062,-0.592446 -0.14974,-0.364583 -0.20833,-0.839842 l 3.68488,-2.819003 q 0,0.182291 0,0.462238 0,0.273437 0,0.371093 z"
       style="font-size:13.3333px;font-family:'Roboto Mono';-inkscape-font-specification:'Roboto Mono, Normal';fill:#ffffff;fill-opacity:0.2"
       id="path943" /><path
       d="m 137.47626,69.045079 v -2.220047 q 0,-0.904945 -0.20833,-1.601558 -0.20834,-0.703123 -0.59896,-1.184893 -0.39713,-0.48177 -0.97005,-0.729165 -0.5664,-0.253906 -1.29557,-0.253906 -0.72265,0 -1.29557,0.253906 -0.5664,0.247395 -0.95703,0.729165 -0.39713,0.48177 -0.60546,1.184893 -0.20834,0.696613 -0.20834,1.601558 v 2.220047 q 0,0.904945 0.20834,1.608069 0.20833,0.696612 0.60546,1.171872 0.39714,0.48828 0.97005,0.735675 0.57292,0.240885 1.29557,0.240885 0.72917,0 1.29557,-0.247396 0.56641,-0.247395 0.95703,-0.729164 0.39062,-0.47526 0.59896,-1.171872 0.20833,-0.703124 0.20833,-1.608069 z m -4.92837,-0.240885 q 0,-0.169271 0,-0.332031 0,-0.16276 0,-0.32552 v -1.588537 q 0,-0.664061 0.1302,-1.165362 0.13672,-0.507811 0.41016,-0.826821 0.22786,-0.253905 0.55338,-0.384113 0.33203,-0.136719 0.76172,-0.136719 0.42318,0 0.74219,0.123698 0.32552,0.123698 0.54687,0.371093 0.22786,0.240885 0.35807,0.605467 0.13672,0.358072 0.1888,0.826821 z m 3.71744,0.49479 q 0,0.696613 -0.14323,1.210935 -0.13672,0.514321 -0.4362,0.833331 -0.22135,0.234374 -0.54036,0.358072 -0.31901,0.123698 -0.72917,0.123698 -0.39062,0 -0.70312,-0.110677 -0.3125,-0.117187 -0.53385,-0.338541 -0.24089,-0.234374 -0.39063,-0.592446 -0.14974,-0.364583 -0.20833,-0.839842 l 3.68489,-2.819003 q 0,0.182291 0,0.462238 0,0.273437 0,0.371093 z"
       style="font-size:13.3333px;font-family:'Roboto Mono';-inkscape-font-specification:'Roboto Mono, Normal';fill:#ffffff;fill-opacity:0.2"
       id="path940" /><path
       d="m 143.43328,72.671372 v -9.479143 h -0.0977 l -3.58723,1.380205 v 1.100257 l 2.48046,-0.944008 v 7.942689 z"
       style="font-size:13.3333px;font-family:'Roboto Mono';-inkscape-font-specification:'Roboto Mono, Normal';fill:#ffffff;fill-opacity:0.2"
       id="path937" /><path
       d="m 153.47882,69.045079 v -2.220047 q 0,-0.904945 -0.20833,-1.601558 -0.20833,-0.703123 -0.59896,-1.184893 -0.39713,-0.48177 -0.97005,-0.729165 -0.5664,-0.253906 -1.29557,-0.253906 -0.72265,0 -1.29557,0.253906 -0.5664,0.247395 -0.95702,0.729165 -0.39714,0.48177 -0.60547,1.184893 -0.20833,0.696613 -0.20833,1.601558 v 2.220047 q 0,0.904945 0.20833,1.608069 0.20833,0.696612 0.60547,1.171872 0.39713,0.48828 0.97005,0.735675 0.57291,0.240885 1.29557,0.240885 0.72916,0 1.29556,-0.247396 0.56641,-0.247395 0.95703,-0.729164 0.39063,-0.47526 0.59896,-1.171872 0.20833,-0.703124 0.20833,-1.608069 z m -4.92837,-0.240885 q 0,-0.169271 0,-0.332031 0,-0.16276 0,-0.32552 v -1.588537 q 0,-0.664061 0.13021,-1.165362 0.13672,-0.507811 0.41015,-0.826821 0.22787,-0.253905 0.55339,-0.384113 0.33203,-0.136719 0.76171,-0.136719 0.42318,0 0.74219,0.123698 0.32552,0.123698 0.54687,0.371093 0.22787,0.240885 0.35808,0.605467 0.13671,0.358072 0.1888,0.826821 z m 3.71744,0.49479 q 0,0.696613 -0.14323,1.210935 -0.13672,0.514321 -0.4362,0.833331 -0.22135,0.234374 -0.54036,0.358072 -0.31901,0.123698 -0.72916,0.123698 -0.39063,0 -0.70313,-0.110677 -0.3125,-0.117187 -0.53385,-0.338541 -0.24089,-0.234374 -0.39062,-0.592446 -0.14974,-0.364583 -0.20834,-0.839842 l 3.68489,-2.819003 q 0,0.182291 0,0.462238 0,0.273437 0,0.371093 z"
       style="font-size:13.3333px;font-family:'Roboto Mono';-inkscape-font-specification:'Roboto Mono, Normal';fill:#ffffff;fill-opacity:0.2"
       id="path934" /></g><g
     inkscape:groupmode="layer"
     id="layer1"
     inkscape:label="Layer 1" /><path
     d="m 83.119712,67.36542 c -1.21765,0 -2.197262,0.979613 -2.197262,2.197262 0,3.561401 2.142337,5.438238 3.579712,6.692513 l 0.100751,0.09162 c 1.492312,1.30005 2.178949,1.99585 2.178949,3.469838 0,1.217662 0.979625,2.197275 2.197263,2.197275 1.217662,0 2.197275,-0.979613 2.197275,-2.197275 0,-3.561388 -2.142337,-5.438225 -3.579712,-6.6925 l -0.100751,-0.09162 c -1.492312,-1.30005 -2.17895,-1.99585 -2.17895,-3.469851 0,-1.217649 -0.979625,-2.197262 -2.197275,-2.197262 z m -5.126948,17.578125 c -1.620479,0 -2.929688,1.309213 -2.929688,2.929687 v 17.578128 c 0,4.85229 3.936772,8.78906 8.789061,8.78906 h 17.578123 c 4.85229,0 8.78906,-3.93677 8.78906,-8.78906 h 1.46486 c 5.66711,0 10.2539,-4.58679 10.2539,-10.253906 0,-5.667122 -4.58679,-10.253909 -10.2539,-10.253909 h -4.39454 z m 32.226556,5.859375 h 1.46486 c 2.42613,0 4.39452,1.968387 4.39452,4.394534 0,2.426142 -1.96839,4.394528 -4.39452,4.394528 h -1.46485 z M 95.570887,69.562682 c 0,-1.217649 -0.979612,-2.197262 -2.197274,-2.197262 -1.217638,0 -2.19725,0.979613 -2.19725,2.197262 0,3.561401 2.142325,5.438238 3.5797,6.692513 l 0.10075,0.09162 c 1.492312,1.30005 2.178962,1.99585 2.178962,3.469838 0,1.217662 0.979613,2.197275 2.197263,2.197275 1.217652,0 2.197272,-0.979613 2.197272,-2.197275 0,-3.561388 -2.142335,-5.438225 -3.57971,-6.6925 l -0.10075,-0.09162 c -1.492312,-1.30005 -2.178963,-1.99585 -2.178963,-3.469851 z"
     id="path327"
     style="fill:#ff0000;fill-opacity:1;stroke-width:0.0915527"
     inkscape:export-filename="datencafe.png"
     inkscape:export-xdpi="314.57281"
     inkscape:export-ydpi="314.57281" /></svg>
