<?xml version="1.0" encoding="UTF-8" standalone="no"?>
<!-- Created with Inkscape (http://www.inkscape.org/) -->

<svg
   id="svg4155"
   version="1.1"
   xml:space="preserve"
   width="192"
   height="192"
   viewBox="0 0 192 192"
   xmlns="http://www.w3.org/2000/svg"
   xmlns:svg="http://www.w3.org/2000/svg"
   xmlns:rdf="http://www.w3.org/1999/02/22-rdf-syntax-ns#"
   xmlns:cc="http://creativecommons.org/ns#"
   xmlns:dc="http://purl.org/dc/elements/1.1/"><metadata
     id="metadata4161"><rdf:RDF><cc:Work
         rdf:about=""><dc:format>image/svg+xml</dc:format><dc:type
           rdf:resource="http://purl.org/dc/dcmitype/StillImage" /></cc:Work></rdf:RDF></metadata><defs
     id="defs4159"><rect
       x="36.05867"
       y="135.48264"
       width="87.799278"
       height="16.841948"
       id="rect1174" /><rect
       x="66.443604"
       y="48.806522"
       width="44.259373"
       height="17.384611"
       id="rect1326" /><rect
       x="72.909431"
       y="39.494274"
       width="47.428661"
       height="19.56949"
       id="rect716" /><rect
       x="-68.255234"
       y="134.90244"
       width="46.66608"
       height="15.397176"
       id="rect710" /><clipPath
       clipPathUnits="userSpaceOnUse"
       id="clipPath4177"><path
         d="M 30,21 H 168.001 V 177.001 H 30 Z"
         id="path4179" /></clipPath><rect
       x="66.443604"
       y="48.806522"
       width="54.253048"
       height="15.855855"
       id="rect1326-3" /></defs><g
     id="g4163"
     transform="matrix(1.25,0,0,-1.25,-45.531,214.01612)"><g
   id="g4165"
   transform="matrix(1,0,0,0.86833369,175.8248,64.751954)"><path
     d="M 0,0 -62.5,-36 -125,0 v 72.001 l 62.5,36 62.5,-36 z"
     style="fill:#0c0c0b;fill-opacity:1;fill-rule:nonzero;stroke:none"
     id="path4167" /></g><g
   id="g4169"
   transform="matrix(1,0,0,0.86744494,171.8248,66.663635)"><path
     d="M 0,0 -58.5,-33.834 -117,0 V 67.667 L -58.5,101.5 0,67.667 Z"
     style="fill:none;stroke:#ffffff;stroke-width:3.75;stroke-linecap:butt;stroke-linejoin:miter;stroke-miterlimit:10;stroke-dasharray:none;stroke-opacity:1"
     id="path4171" /></g><path
   d="M 142.83001,51.246151 H 83.819989 v 12.957698 h 59.010021 z"
   style="fill:#0c0c0b;fill-opacity:1;fill-rule:nonzero;stroke:#ffffff;stroke-width:1.61553;stroke-linecap:butt;stroke-linejoin:miter;stroke-miterlimit:10;stroke-dasharray:none;stroke-opacity:1"
   id="path4185" /><g
   id="g4231"
   transform="translate(125.8248,111.7248)"><path
     d="m 0,0 c 0,-1.932 -1.567,-3.5 -3.5,-3.5 h -18 c -1.933,0 -3.5,1.568 -3.5,3.5 0,1.934 1.567,3.5 3.5,3.5 h 18 C -1.567,3.5 0,1.934 0,0"
     style="fill:#0c0c0b;fill-opacity:1;fill-rule:nonzero;stroke:none"
     id="path4233" /></g><g
   id="g4239"
   transform="translate(125.8248,80.7248)"><path
     d="m 0,0 c 0,-1.932 -1.567,-3.5 -3.5,-3.5 h -18 c -1.933,0 -3.5,1.568 -3.5,3.5 0,1.934 1.567,3.5 3.5,3.5 h 18 C -1.567,3.5 0,1.934 0,0"
     style="fill:#0c0c0b;fill-opacity:1;fill-rule:nonzero;stroke:none"
     id="path4241" /></g><text
   xml:space="preserve"
   style="font-style:normal;font-variant:normal;font-weight:bold;font-stretch:normal;font-size:12px;line-height:1.25;font-family:sans-serif;-inkscape-font-specification:'sans-serif, Bold';font-variant-ligatures:normal;font-variant-caps:normal;font-variant-numeric:normal;font-feature-settings:normal;text-align:start;letter-spacing:0px;word-spacing:0px;writing-mode:lr-tb;text-anchor:start;fill:#ffffff;fill-opacity:1;stroke:none;stroke-width:0.75"
   x="87.188065"
   y="-53.262897"
   id="text4777"
   transform="scale(1,-1)"><tspan
     id="tspan4779"
     x="87.188065"
     y="-53.262897"
     style="font-style:normal;font-variant:normal;font-weight:bold;font-stretch:normal;font-size:12px;font-family:RobotoBold;-inkscape-font-specification:'RobotoBold Bold'">Karlsruhe</tspan></text>



<text
   xml:space="preserve"
   transform="matrix(0.75,0,0,-0.75,36.4248,171.2129)"
   id="text708"
   style="font-size:14.6667px;line-height:1.25;font-family:'Exo 2';-inkscape-font-specification:'Exo 2, ';white-space:pre;shape-inside:url(#rect710);display:inline"><tspan
     x="-68.255859"
     y="164.34219"
     id="tspan1231"><tspan
       dx="0 8.6680145 8.0520153 5.8813343 4.3560219 7.450676 5.8813324 8.3600159 8.5213432"
       id="tspan1229">Karlsruhe</tspan></tspan></text><text
   xml:space="preserve"
   transform="matrix(0.75,0,0,-0.75,36.4248,171.2129)"
   id="text714"
   style="font-size:14.6667px;line-height:1.25;font-family:'Exo 2';-inkscape-font-specification:'Exo 2, ';white-space:pre;shape-inside:url(#rect716);display:inline;fill:#ffffff;fill-opacity:0" /><text
   xml:space="preserve"
   transform="matrix(1.2290682,0,0,-1.4407461,4.572716,212.01155)"
   id="text1324"
   style="font-size:13.5267px;line-height:1.25;font-family:'Exo 2';-inkscape-font-specification:'Exo 2, ';white-space:pre;shape-inside:url(#rect1326);shape-padding:0.145532;display:inline;fill:#ffffff;fill-opacity:1"><tspan
     x="66.589844"
     y="61.902987"
     id="tspan1235"><tspan
       style="font-family:RobotoBold;-inkscape-font-specification:RobotoBold"
       id="tspan1233">OK Lab</tspan></tspan></text><path
   d="m 102.92057,117.32056 c -0.97412,0 -1.75781,-0.78369 -1.75781,-1.75781 0,-2.84912 1.71387,-4.35059 2.86377,-5.35401 l 0.0806,-0.0733 c 1.19385,-1.04004 1.74316,-1.59668 1.74316,-2.77587 0,-0.97413 0.7837,-1.75782 1.75781,-1.75782 0.97413,0 1.75782,0.78369 1.75782,1.75782 0,2.84911 -1.71387,4.35058 -2.86377,5.354 l -0.0806,0.0733 c -1.19385,1.04004 -1.74316,1.59668 -1.74316,2.77588 0,0.97412 -0.7837,1.75781 -1.75782,1.75781 z m -4.101559,-14.0625 c -1.296383,0 -2.34375,-1.04737 -2.34375,-2.34375 v -14.0625 c 0,-3.881833 3.149417,-7.03125 7.031249,-7.03125 h 14.0625 c 3.88183,0 7.03125,3.149417 7.03125,7.03125 h 1.17188 c 4.53369,0 8.20312,3.669434 8.20312,8.203123 0,4.533697 -3.66943,8.203127 -8.20312,8.203127 h -3.51563 z m 25.781249,-4.6875 h 1.17188 c 1.94091,0 3.51562,-1.57471 3.51562,-3.515627 0,-1.940914 -1.57471,-3.515623 -3.51562,-3.515623 h -1.17188 z m -11.71875,16.99219 c 0,0.97412 -0.78369,1.75781 -1.75782,1.75781 -0.97411,0 -1.7578,-0.78369 -1.7578,-1.75781 0,-2.84912 1.71386,-4.35059 2.86376,-5.35401 l 0.0806,-0.0733 c 1.19385,-1.04004 1.74317,-1.59668 1.74317,-2.77587 0,-0.97413 0.78369,-1.75782 1.75781,-1.75782 0.97412,0 1.75782,0.78369 1.75782,1.75782 0,2.84911 -1.71387,4.35058 -2.86377,5.354 l -0.0806,0.0733 c -1.19385,1.04004 -1.74317,1.59668 -1.74317,2.77588 z"
   id="path327"
   style="fill:#ff0000;fill-opacity:1;stroke-width:0.0732422" /><text
   xml:space="preserve"
   transform="matrix(1.2290682,0,0,-1.4407461,-0.800766,155.64885)"
   id="text1324-6"
   style="font-size:13.5267px;line-height:1.25;font-family:'Exo 2';-inkscape-font-specification:'Exo 2, ';white-space:pre;shape-inside:url(#rect1326-3);shape-padding:0.198995;display:inline;fill:#ffffff;fill-opacity:1"><tspan
     x="66.642578"
     y="61.957675"
     id="tspan1239"><tspan
       style="font-size:10.5207px;font-family:RobotoBold;-inkscape-font-specification:'RobotoBold, Normal'"
       id="tspan1237">Daten.Cafe</tspan></tspan></text><text
   xml:space="preserve"
   transform="matrix(0.75,0,0,-0.75,36.4248,171.2129)"
   id="text1172"
   style="font-size:14.6667px;line-height:1.25;font-family:'Exo 2';-inkscape-font-specification:'Exo 2, ';white-space:pre;shape-inside:url(#rect1174)" /></g></svg>
