<?xml version="1.0" encoding="UTF-8" standalone="no"?>
<svg
   xmlns:dc="http://purl.org/dc/elements/1.1/"
   xmlns:cc="http://creativecommons.org/ns#"
   xmlns:rdf="http://www.w3.org/1999/02/22-rdf-syntax-ns#"
   xmlns:svg="http://www.w3.org/2000/svg"
   xmlns="http://www.w3.org/2000/svg"
   xmlns:sodipodi="http://sodipodi.sourceforge.net/DTD/sodipodi-0.dtd"
   xmlns:inkscape="http://www.inkscape.org/namespaces/inkscape"
   sodipodi:docname="CfKA Hexagon 3d.svg"
   viewBox="0 0 156.25 180.00125"
   height="192.00133"
   width="166.66667"
   xml:space="preserve"
   inkscape:version="1.0beta2 (unknown)"
   version="1.1"
   id="svg4155"><metadata
     id="metadata4161"><rdf:RDF><cc:Work
         rdf:about=""><dc:format>image/svg+xml</dc:format><dc:type
           rdf:resource="http://purl.org/dc/dcmitype/StillImage" /><dc:title /></cc:Work></rdf:RDF></metadata><defs
     id="defs4159"><clipPath
       id="clipPath4177"
       clipPathUnits="userSpaceOnUse"><path
         inkscape:connector-curvature="0"
         id="path4179"
         d="M 30,21 H 168.001 V 177.001 H 30 Z" /></clipPath></defs><sodipodi:namedview
     inkscape:document-rotation="0"
     inkscape:snap-text-baseline="true"
     inkscape:current-layer="text4777-3-4"
     inkscape:window-maximized="1"
     inkscape:window-y="0"
     inkscape:window-x="0"
     inkscape:cy="92.781117"
     inkscape:cx="57.63668"
     inkscape:zoom="4.0588434"
     fit-margin-bottom="0"
     fit-margin-right="0"
     fit-margin-left="0"
     fit-margin-top="0"
     showgrid="false"
     id="namedview4157"
     inkscape:window-height="1025"
     inkscape:window-width="1920"
     inkscape:pageshadow="2"
     inkscape:pageopacity="0"
     guidetolerance="10"
     gridtolerance="10"
     objecttolerance="10"
     borderopacity="1"
     bordercolor="#666666"
     pagecolor="#ffffff" /><g
     transform="matrix(1.25,0,0,-1.25,-45.531,214.01612)"
     inkscape:label="CfKA Hexagon"
     inkscape:groupmode="layer"
     id="g4163"><g
   inkscape:export-ydpi="299.99792"
   inkscape:export-xdpi="299.99792"
   transform="translate(161.4248,63.2119)"
   id="g4165"><path
     inkscape:connector-curvature="0"
     id="path4167"
     style="fill:#0c0c0b;fill-opacity:1;fill-rule:nonzero;stroke:none"
     d="M 0,0 -62.5,-36 -125,0 v 72.001 l 62.5,36 62.5,-36 z" /></g><g
   inkscape:export-ydpi="299.99792"
   inkscape:export-xdpi="299.99792"
   transform="translate(157.4248,65.3789)"
   id="g4169"><path
     inkscape:connector-curvature="0"
     id="path4171"
     style="fill:none;stroke:#ffffff;stroke-width:3.75;stroke-linecap:butt;stroke-linejoin:miter;stroke-miterlimit:10;stroke-dasharray:none;stroke-opacity:1"
     d="M 0,0 -58.5,-33.834 -117,0 V 67.667 L -58.5,101.5 0,67.667 Z" /></g><g
   inkscape:export-ydpi="299.99792"
   inkscape:export-xdpi="299.99792"
   transform="translate(81.9546,67.4248)"
   id="g4181"><path
     inkscape:connector-curvature="0"
     id="path4183"
     style="fill:#0c0c0b;fill-opacity:1;fill-rule:nonzero;stroke:#ffffff;stroke-width:2;stroke-linecap:butt;stroke-linejoin:miter;stroke-miterlimit:10;stroke-dasharray:none;stroke-opacity:1"
     d="m 0,0 v 0 c 0,2.762 2.239,5 5,5 h 25 c 2.761,0 5,-2.238 5,-5" /></g><path
   inkscape:export-ydpi="299.99792"
   inkscape:export-xdpi="299.99792"
   inkscape:connector-curvature="0"
   id="path4185"
   style="fill:#0c0c0b;fill-opacity:1;fill-rule:nonzero;stroke:#ffffff;stroke-width:1.61553;stroke-linecap:butt;stroke-linejoin:miter;stroke-miterlimit:10;stroke-dasharray:none;stroke-opacity:1"
   d="M 128.43001,54.446151 H 69.419989 v 12.957698 h 59.010021 z" /><g
   inkscape:export-ydpi="299.99792"
   inkscape:export-xdpi="299.99792"
   transform="translate(72.5171,118.9873)"
   id="g4221"><path
     inkscape:connector-curvature="0"
     id="path4223"
     style="fill:none;stroke:#ffffff;stroke-width:2;stroke-linecap:butt;stroke-linejoin:miter;stroke-miterlimit:10;stroke-dasharray:none;stroke-opacity:1"
     d="m 0,0 -13,2 7,-14.615 -13.125,-7.115 12.75,-7.52 L -13,-42 0,-40" /></g><g
   inkscape:export-ydpi="299.99792"
   inkscape:export-xdpi="299.99792"
   transform="translate(153.4248,108.4248)"
   id="g4225"><path
     inkscape:connector-curvature="0"
     id="path4227"
     style="fill:#0c0c0b;fill-opacity:1;fill-rule:nonzero;stroke:#ffffff;stroke-width:2;stroke-linecap:butt;stroke-linejoin:miter;stroke-miterlimit:10;stroke-dasharray:none;stroke-opacity:1"
     d="m 0,0 -52.155,-14 c -1.831,0 -3.845,1.771 -3.845,3.604 v 0.369 c 0,1.83 2.014,3.027 3.845,3.027 L 0,7" /></g><path
   inkscape:export-ydpi="299.99792"
   inkscape:export-xdpi="299.99792"
   inkscape:connector-curvature="0"
   id="path4229"
   style="fill:#0c0c0b;fill-opacity:1;fill-rule:nonzero;stroke:#ffffff;stroke-width:2;stroke-linecap:butt;stroke-linejoin:miter;stroke-miterlimit:10;stroke-dasharray:none;stroke-opacity:1"
   d="m 108.425,87.425 h -19 v 24 h 19 z" /><g
   inkscape:export-ydpi="299.99792"
   inkscape:export-xdpi="299.99792"
   transform="translate(111.4248,114.9248)"
   id="g4231"><path
     inkscape:connector-curvature="0"
     id="path4233"
     style="fill:#0c0c0b;fill-opacity:1;fill-rule:nonzero;stroke:none"
     d="m 0,0 c 0,-1.932 -1.567,-3.5 -3.5,-3.5 h -18 c -1.933,0 -3.5,1.568 -3.5,3.5 0,1.934 1.567,3.5 3.5,3.5 h 18 C -1.567,3.5 0,1.934 0,0" /></g><g
   inkscape:export-ydpi="299.99792"
   inkscape:export-xdpi="299.99792"
   transform="translate(111.4248,114.9248)"
   id="g4235"><path
     inkscape:connector-curvature="0"
     id="path4237"
     style="fill:none;stroke:#ffffff;stroke-width:2;stroke-linecap:butt;stroke-linejoin:miter;stroke-miterlimit:10;stroke-dasharray:none;stroke-opacity:1"
     d="m 0,0 c 0,-1.932 -1.567,-3.5 -3.5,-3.5 h -18 c -1.933,0 -3.5,1.568 -3.5,3.5 0,1.934 1.567,3.5 3.5,3.5 h 18 C -1.567,3.5 0,1.934 0,0 Z" /></g><g
   inkscape:export-ydpi="299.99792"
   inkscape:export-xdpi="299.99792"
   transform="translate(111.4248,83.9248)"
   id="g4239"><path
     inkscape:connector-curvature="0"
     id="path4241"
     style="fill:#0c0c0b;fill-opacity:1;fill-rule:nonzero;stroke:none"
     d="m 0,0 c 0,-1.932 -1.567,-3.5 -3.5,-3.5 h -18 c -1.933,0 -3.5,1.568 -3.5,3.5 0,1.934 1.567,3.5 3.5,3.5 h 18 C -1.567,3.5 0,1.934 0,0" /></g><g
   inkscape:export-ydpi="299.99792"
   inkscape:export-xdpi="299.99792"
   transform="translate(111.4248,83.9248)"
   id="g4243"><path
     inkscape:connector-curvature="0"
     id="path4245"
     style="fill:none;stroke:#ffffff;stroke-width:2;stroke-linecap:butt;stroke-linejoin:miter;stroke-miterlimit:10;stroke-dasharray:none;stroke-opacity:1"
     d="m 0,0 c 0,-1.932 -1.567,-3.5 -3.5,-3.5 h -18 c -1.933,0 -3.5,1.568 -3.5,3.5 0,1.934 1.567,3.5 3.5,3.5 h 18 C -1.567,3.5 0,1.934 0,0 Z" /></g><g
   inkscape:export-ydpi="299.99792"
   inkscape:export-xdpi="299.99792"
   transform="translate(89.4248,91.4248)"
   id="g4247"><path
     inkscape:connector-curvature="0"
     id="path4249"
     style="fill:none;stroke:#ffffff;stroke-width:2;stroke-linecap:butt;stroke-linejoin:miter;stroke-miterlimit:10;stroke-dasharray:none;stroke-opacity:1"
     d="M 0,0 H 19" /></g><g
   inkscape:export-ydpi="299.99792"
   inkscape:export-xdpi="299.99792"
   transform="translate(89.4248,107.4248)"
   id="g4251"><path
     inkscape:connector-curvature="0"
     id="path4253"
     style="fill:none;stroke:#ffffff;stroke-width:2;stroke-linecap:butt;stroke-linejoin:miter;stroke-miterlimit:10;stroke-dasharray:none;stroke-opacity:1"
     d="M 0,0 H 19" /></g><g
   inkscape:export-ydpi="299.99792"
   inkscape:export-xdpi="299.99792"
   transform="matrix(1.5418963,0,0,1.4661964,-53.72699,-64.466212)"
   id="g4857"><g
     id="g4271"
     transform="translate(93.6903,146.2076)"><path
       d="m 0,0 v -0.149 -9.418 h 0.788 0.22 0.187 V 0 Z"
       style="fill:#ffffff;fill-opacity:1;fill-rule:nonzero;stroke:none"
       id="path4273"
       inkscape:connector-curvature="0" /></g><g
     id="g4275"
     transform="translate(98.4317,135.7436)"><path
       d="M 0,0 C 0.084,0 0.191,0.075 0.191,0.155 V 11.361 C 0.191,11.442 0.084,11.51 0,11.51 h -3.734 c -0.081,0 -0.111,-0.032 -0.111,-0.075 v -0.223 -0.748 c 0,-0.081 0.03,-0.151 0.111,-0.151 h 2.539 c 0.084,0 0.19,-0.065 0.19,-0.146 V 1.35 c 0,-0.081 -0.106,-0.153 -0.19,-0.153 h -2.539 c -0.081,0 -0.111,-0.028 -0.111,-0.07 V 0.903 0.155 C -3.845,0.075 -3.815,0 -3.734,0 Z"
       style="fill:#ffffff;fill-opacity:1;fill-rule:nonzero;stroke:none"
       id="path4277"
       inkscape:connector-curvature="0" /></g><g
     id="g4279"
     transform="translate(100.117,146.2076)"><path
       d="M 0,0 V -0.149 -9.567 H 1.005 1.198 V 0 Z"
       style="fill:#ffffff;fill-opacity:1;fill-rule:nonzero;stroke:none"
       id="path4281"
       inkscape:connector-curvature="0" /></g><g
     id="g4283"
     transform="translate(101.1646,135.7493)"><path
       d="m 0,0 v 1.197 c 1.645,0 2.791,2.043 2.791,4.557 0,2.511 -1.146,4.556 -2.791,4.556 v 1.194 c 2.243,0 3.985,-2.58 3.985,-5.75 C 3.985,2.581 2.243,0 0,0"
       style="fill:#ffffff;fill-opacity:1;fill-rule:nonzero;stroke:none"
       id="path4285"
       inkscape:connector-curvature="0" /></g><g
     id="g4287"
     transform="translate(88.7584,139.4259)"
     style="stroke-width:0.15;stroke-miterlimit:10;stroke-dasharray:none"><path
       d="m 0,0 v -1.647 -0.532 c 0,-0.894 0.572,-1.503 1.475,-1.503 h 0.254 0.733 0.862 c 0.043,0 0.113,0.075 0.113,0.155 v 0.898 c 0,0.08 -0.104,0.142 -0.188,0.142 H 2.392 1.953 1.683 c -0.387,0 -0.488,0.166 -0.488,0.608 v 0.261 1.439 0.878 c 0,0.9 -0.366,1.232 -0.814,1.396 0.448,0.161 0.814,0.494 0.814,1.393 v 0.624 1.581 0.374 c 0,0.434 0.086,0.564 0.488,0.564 H 2.02 2.447 3.324 c 0.043,0 0.113,0.07 0.113,0.151 v 0.897 c 0,0.081 -0.104,0.149 -0.188,0.149 H 2.531 1.856 1.475 C 0.572,7.828 0,7.241 0,6.367 V 5.898 3.944 c 0,0 -0.031,-0.45 -0.052,-0.602 -0.057,-0.405 -0.551,-0.75 -0.86,-0.746 H -1.38 c -0.083,0 -0.115,-0.063 -0.115,-0.146 V 1.553 c 0,-0.081 0.032,-0.154 0.115,-0.154 h 0.427 C -0.56,1.405 -0.066,1.077 -0.03,0.584 -0.018,0.442 0,0 0,0"
       style="fill:#ffffff;fill-opacity:1;fill-rule:nonzero;stroke:none;stroke-width:0.15;stroke-miterlimit:10;stroke-dasharray:none"
       id="path4289"
       inkscape:connector-curvature="0" /></g><g
     id="g4291"
     transform="translate(94.6975,147.2538)"><path
       d="m 0,0 h -0.424 -0.47 c -0.084,0 -0.114,-0.068 -0.114,-0.149 v -0.277 -0.62 -0.151 H -0.894 0 0.188 V -1.046 -0.149 0 Z"
       style="fill:#ffffff;fill-opacity:1;fill-rule:nonzero;stroke:none"
       id="path4293"
       inkscape:connector-curvature="0" /></g><g
     id="g4295"
     transform="translate(93.6903,136.7969)"><path
       d="M 0,0 V -0.424 -0.897 C 0,-0.978 0.03,-1.053 0.112,-1.053 H 0.387 1.008 1.195 V -0.897 0 0.143 H 1.008 0.112 0 Z"
       style="fill:#ffffff;fill-opacity:1;fill-rule:nonzero;stroke:none"
       id="path4297"
       inkscape:connector-curvature="0" /></g><g
     id="g4299"
     transform="translate(101.1213,147.2538)"><path
       d="m 0,0 h -0.421 -0.473 c -0.084,0 -0.111,-0.068 -0.111,-0.149 v -0.277 -0.62 -0.151 H -0.894 0 0.194 V -1.046 -0.149 0 Z"
       style="fill:#ffffff;fill-opacity:1;fill-rule:nonzero;stroke:none"
       id="path4301"
       inkscape:connector-curvature="0" /></g><g
     id="g4303"
     transform="translate(100.117,136.7969)"><path
       d="M 0,0 V -0.424 -0.897 C 0,-0.978 0.027,-1.053 0.109,-1.053 H 0.384 1.005 1.198 V -0.897 0 0.143 H 1.005 0.109 0 Z"
       style="fill:#ffffff;fill-opacity:1;fill-rule:nonzero;stroke:none"
       id="path4305"
       inkscape:connector-curvature="0" /></g><g
     id="g4307"
     transform="translate(107.5914,139.4259)"><path
       d="M 0,0 V -1.647 -2.179 C 0,-3.073 0.563,-3.682 1.466,-3.682 H 1.72 2.453 3.316 c 0.04,0 0.121,0.075 0.121,0.155 v 0.898 c 0,0.08 -0.113,0.142 -0.197,0.142 H 2.383 1.944 1.674 c -0.387,0 -0.479,0.166 -0.479,0.608 v 0.261 1.439 0.878 c 0,0.288 -0.084,0.551 -0.15,0.7 H -0.96 C -0.409,1.25 -0.176,1.053 -0.061,0.575 -0.006,0.335 0,0 0,0"
       style="fill:#ffffff;fill-opacity:1;fill-rule:nonzero;stroke:none"
       id="path4309"
       inkscape:connector-curvature="0" /></g><g
     id="g4311"
     transform="translate(107.5077,142.7677)"><path
       d="m 0,0 c -0.115,-0.392 -0.375,-0.595 -0.836,-0.746 h 1.884 c 0.115,0.298 0.23,0.498 0.23,0.895 V 0.77 2.351 2.726 c 0,0.434 0.078,0.564 0.479,0.564 H 2.095 2.522 3.4 c 0.04,0 0.121,0.068 0.121,0.15 v 0.898 c 0,0.08 -0.112,0.148 -0.197,0.148 H 2.606 1.931 1.55 C 0.646,4.486 0.084,3.901 0.084,3.025 V 2.556 0.601 C 0.084,0.601 0.058,0.197 0,0"
       style="fill:#ffffff;fill-opacity:1;fill-rule:nonzero;stroke:none"
       id="path4313"
       inkscape:connector-curvature="0" /></g><g
     id="g4315"
     transform="translate(107.7991,141.4143)"><path
       d="m 0,0 c 0.303,-0.109 0.632,-0.288 0.836,-0.588 h 2.197 c 0.083,0 0.197,0.071 0.197,0.152 v 0.897 c 0,0.083 -0.114,0.148 -0.197,0.148 H 0.757 C 0.606,0.309 0.248,0.092 0,0"
       style="fill:#ffffff;fill-opacity:1;fill-rule:nonzero;stroke:none"
       id="path4317"
       inkscape:connector-curvature="0" /></g><g
     id="g4319"
     transform="translate(106.2004,142.0217)"><path
       d="m 0,0 c -0.081,0 -0.103,-0.065 -0.103,-0.146 v -0.897 c 0,-0.081 0.022,-0.154 0.103,-0.154 H 0.43 2.435 C 2.301,-0.895 1.968,-0.691 1.729,-0.598 1.977,-0.507 2.204,-0.298 2.355,0 H 0.47 Z"
       style="fill:#ffffff;fill-opacity:1;fill-rule:nonzero;stroke:none"
       id="path4321"
       inkscape:connector-curvature="0" /></g></g><g
   style="font-style:normal;font-variant:normal;font-weight:bold;font-stretch:normal;font-size:10px;line-height:1.25;font-family:sans-serif;-inkscape-font-specification:'sans-serif, Bold';font-variant-ligatures:normal;font-variant-caps:normal;font-variant-numeric:normal;font-feature-settings:normal;text-align:start;letter-spacing:0px;word-spacing:0px;writing-mode:lr-tb;text-anchor:start;fill:#ffffff;fill-opacity:1;stroke:none;stroke-width:0.75"
   id="text4777"
   transform="scale(1,-1)"
   aria-label="Karlsruhe"><path
     inkscape:connector-curvature="0"
     id="path887"
     d="m 72.55162,-65.198303 h 1.879883 v 2.661133 l 2.709961,-2.661133 h 2.182617 l -3.510742,3.452148 3.872071,3.837891 h -2.353516 l -2.900391,-2.871094 v 2.871094 H 72.55162 Z" /><path
     inkscape:connector-curvature="0"
     id="path889"
     d="m 82.673691,-60.369202 q -0.546875,0 -0.825196,0.185547 -0.273437,0.185547 -0.273437,0.546875 0,0.332031 0.219727,0.522461 0.224609,0.185547 0.620117,0.185547 0.493164,0 0.830078,-0.351562 0.336914,-0.356446 0.336914,-0.888672 v -0.200196 z m 2.670898,-0.659179 v 3.120117 h -1.762695 v -0.810547 q -0.351563,0.498047 -0.791016,0.727539 -0.439453,0.224609 -1.069336,0.224609 -0.849609,0 -1.381836,-0.493164 -0.527343,-0.498047 -0.527343,-1.289062 0,-0.961914 0.659179,-1.411133 0.664063,-0.449219 2.080078,-0.449219 h 1.030274 v -0.136718 q 0,-0.41504 -0.327149,-0.605469 -0.327148,-0.195313 -1.020507,-0.195313 -0.561524,0 -1.044922,0.112305 -0.483399,0.112305 -0.898438,0.336914 v -1.333008 q 0.561524,-0.136719 1.12793,-0.205078 0.566406,-0.07324 1.132812,-0.07324 1.479493,0 2.13379,0.585937 0.659179,0.581055 0.659179,1.894532 z" /><path
     inkscape:connector-curvature="0"
     id="path891"
     d="m 91.033066,-61.887756 q -0.229492,-0.107422 -0.458985,-0.15625 -0.224609,-0.05371 -0.454101,-0.05371 -0.673828,0 -1.040039,0.43457 -0.361328,0.429688 -0.361328,1.235352 v 2.519531 h -1.748047 v -5.46875 h 1.748047 v 0.898437 q 0.336914,-0.537109 0.771484,-0.78125 0.439453,-0.249023 1.049805,-0.249023 0.08789,0 0.190429,0.0098 0.102539,0.0049 0.297852,0.0293 z" /><path
     inkscape:connector-curvature="0"
     id="path893"
     d="m 91.902206,-65.50592 h 1.748047 v 7.597656 h -1.748047 z" /><path
     inkscape:connector-curvature="0"
     id="path895"
     d="m 99.602402,-63.206116 v 1.328125 q -0.561524,-0.234375 -1.083985,-0.351562 -0.522461,-0.117188 -0.986328,-0.117188 -0.498047,0 -0.742187,0.126953 -0.239258,0.122071 -0.239258,0.38086 0,0.209961 0.180664,0.322265 0.185547,0.112305 0.65918,0.166016 l 0.307617,0.04395 q 1.342773,0.170899 1.80664,0.561524 0.463868,0.390625 0.463868,1.225586 0,0.874023 -0.644532,1.313476 -0.644531,0.439453 -1.923828,0.439453 -0.541992,0 -1.123047,-0.08789 -0.576171,-0.08301 -1.186523,-0.253906 v -1.328125 q 0.522461,0.253906 1.069336,0.380859 0.551758,0.126953 1.118164,0.126953 0.512695,0 0.771484,-0.141602 0.258789,-0.141601 0.258789,-0.419921 0,-0.234375 -0.180664,-0.34668 -0.175781,-0.117188 -0.708007,-0.180664 l -0.307618,-0.03906 q -1.166992,-0.146484 -1.635742,-0.541992 -0.46875,-0.395508 -0.46875,-1.201172 0,-0.86914 0.595703,-1.289062 0.595703,-0.419922 1.826172,-0.419922 0.483399,0 1.015625,0.07324 0.532227,0.07324 1.157227,0.229492 z" /><path
     inkscape:connector-curvature="0"
     id="path897"
     d="m 105.34459,-61.887756 q -0.22949,-0.107422 -0.45899,-0.15625 -0.2246,-0.05371 -0.4541,-0.05371 -0.67382,0 -1.04004,0.43457 -0.36132,0.429688 -0.36132,1.235352 v 2.519531 h -1.74805 v -5.46875 h 1.74805 v 0.898437 q 0.33691,-0.537109 0.77148,-0.78125 0.43945,-0.249023 1.04981,-0.249023 0.0879,0 0.19042,0.0098 0.10254,0.0049 0.29786,0.0293 z" /><path
     inkscape:connector-curvature="0"
     id="path899"
     d="m 106.15514,-60.03717 v -3.339844 h 1.75781 v 0.546875 q 0,0.444336 -0.005,1.118164 -0.005,0.668945 -0.005,0.893555 0,0.659179 0.0342,0.952148 0.0342,0.288086 0.11719,0.419922 0.10742,0.170898 0.27832,0.263672 0.17578,0.09277 0.40039,0.09277 0.54688,0 0.85938,-0.419922 0.3125,-0.419922 0.3125,-1.166992 v -2.700195 h 1.74804 v 5.46875 h -1.74804 v -0.791016 q -0.39551,0.478516 -0.83985,0.708008 -0.43945,0.224609 -0.97168,0.224609 -0.94726,0 -1.44531,-0.581054 -0.49316,-0.581055 -0.49316,-1.689453 z" /><path
     inkscape:connector-curvature="0"
     id="path901"
     d="m 118.83092,-61.238342 v 3.330078 h -1.75782 v -0.541992 -1.997071 q 0,-0.717773 -0.0342,-0.986328 -0.0293,-0.268554 -0.10743,-0.395508 -0.10254,-0.170898 -0.27832,-0.263671 -0.17578,-0.09766 -0.40039,-0.09766 -0.54687,0 -0.85937,0.424805 -0.3125,0.419922 -0.3125,1.166992 v 2.69043 h -1.74805 v -7.597656 h 1.74805 v 2.929687 q 0.39551,-0.478516 0.83984,-0.703125 0.44434,-0.229492 0.98145,-0.229492 0.94726,0 1.43554,0.581055 0.49317,0.581054 0.49317,1.689453 z" /><path
     inkscape:connector-curvature="0"
     id="path903"
     d="m 125.911,-60.657288 v 0.498047 h -4.08692 q 0.0635,0.615235 0.44434,0.922852 0.38086,0.307617 1.06445,0.307617 0.55176,0 1.12793,-0.161133 0.58105,-0.166015 1.19141,-0.498047 v 1.347657 q -0.62012,0.234375 -1.24024,0.351562 -0.62012,0.12207 -1.24023,0.12207 -1.48438,0 -2.30957,-0.751953 -0.82032,-0.756836 -0.82032,-2.11914 0,-1.337891 0.80567,-2.104493 0.81055,-0.766601 2.22656,-0.766601 1.28906,0 2.06055,0.776367 0.77637,0.776367 0.77637,2.075195 z m -1.79688,-0.581054 q 0,-0.498047 -0.29297,-0.800782 -0.28808,-0.307617 -0.75683,-0.307617 -0.50782,0 -0.8252,0.288086 -0.31738,0.283203 -0.39551,0.820313 z" /></g>

<g
   style="font-style:normal;font-variant:normal;font-weight:bold;font-stretch:normal;font-size:8px;line-height:1.25;font-family:sans-serif;-inkscape-font-specification:'sans-serif, Bold';font-variant-ligatures:normal;font-variant-caps:normal;font-variant-numeric:normal;font-feature-settings:normal;text-align:start;letter-spacing:0px;word-spacing:0px;writing-mode:lr-tb;text-anchor:start;fill:#ffffff;fill-opacity:1;stroke:none;stroke-width:0.75"
   id="text4777-3-4"
   transform="scale(1,-1)"
   aria-label="for"><path
     inkscape:connector-curvature="0"
     id="path906"
     d="m 95.34169,-131.18857 v 0.91797 h -0.773437 q -0.296875,0 -0.414063,0.10938 -0.117187,0.10546 -0.117187,0.37109 v 0.30469 h 1.195312 v 1 h -1.195312 v 3.375 h -1.398438 v -3.375 h -0.695312 v -1 h 0.695312 v -0.30469 q 0,-0.71484 0.398438,-1.05469 0.398437,-0.34375 1.234375,-0.34375 z" /><path
     inkscape:connector-curvature="0"
     id="path908"
     d="m 98.025284,-128.59091 q -0.464844,0 -0.710938,0.33594 -0.242187,0.33203 -0.242187,0.96093 0,0.62891 0.242187,0.96485 0.246094,0.33203 0.710938,0.33203 0.457031,0 0.699219,-0.33203 0.242187,-0.33594 0.242187,-0.96485 0,-0.6289 -0.242187,-0.96093 -0.242188,-0.33594 -0.699219,-0.33594 z m 0,-1 q 1.128906,0 1.761719,0.60937 0.636717,0.60938 0.636717,1.6875 0,1.07813 -0.636717,1.6875 -0.632813,0.60938 -1.761719,0.60938 -1.132813,0 -1.773438,-0.60938 -0.636718,-0.60937 -0.636718,-1.6875 0,-1.07812 0.636718,-1.6875 0.640625,-0.60937 1.773438,-0.60937 z" /><path
     inkscape:connector-curvature="0"
     id="path910"
     d="m 104.68935,-128.29404 q -0.1836,-0.0859 -0.36719,-0.125 -0.17969,-0.043 -0.36328,-0.043 -0.53906,0 -0.83203,0.34766 -0.28907,0.34375 -0.28907,0.98828 v 2.01563 h -1.39843 v -4.375 h 1.39843 v 0.71875 q 0.26954,-0.42969 0.61719,-0.625 0.35156,-0.19922 0.83985,-0.19922 0.0703,0 0.15234,0.008 0.082,0.004 0.23828,0.0234 z" /></g>

</g></svg>
